<svg width="347" height="372" viewBox="0 0 347 372" fill="none" xmlns="http://www.w3.org/2000/svg">
<path fill-rule="evenodd" clip-rule="evenodd" d="M54.8915 173.762C54.8392 173.812 54.8326 173.909 54.7659 174.085C56.0561 175.21 58.6309 177.035 58.6309 181.301C58.6309 189.142 52.6795 189.834 50.932 189.834C50.7742 189.834 46.4097 189.821 45.1934 182.759C43.9626 184.585 43.8732 186.102 43.8732 187.322C43.8732 192.698 45.9802 192.122 45.9802 194.435C45.9802 195.994 44.6794 197.054 43.3603 197.054C41.2639 197.054 39.6831 194.348 38.943 191.382C38.2779 190.232 37.8312 188.294 37.8312 185.715C37.8312 172.056 47.9154 172.168 48.3266 172.072C55.1548 160.603 65.1308 160.548 65.2663 160.548C66.7443 160.548 66.8971 161.772 66.8971 162.072C66.8971 162.486 66.741 162.799 66.4576 163.05C66.506 163.05 66.5537 163.049 66.5938 163.049C68.4957 163.049 69.1347 164.986 69.1347 165.685C69.1347 170.504 63.0154 165.943 54.8915 173.762ZM179.878 17.9216C182.213 17.9216 183.193 18.6778 184.09 18.6778C184.997 18.6778 186.668 17.7975 190.029 17.7975C198.666 17.7975 204.89 24.4668 204.89 26.7819C204.89 26.9166 204.867 27.0535 204.836 27.1894C205.688 28.2832 206.175 29.3476 206.175 30.2784C206.175 32.1417 204.462 32.8829 203.479 32.8829C200.31 32.8829 201.683 27.9394 192.561 25.5351C192.561 26.0135 192.567 26.4365 192.567 26.8384C192.567 28.8132 191.622 35.3566 184.443 35.3566C182.262 35.3566 180.195 34.6381 178.395 33.3159C176.244 31.7365 176.176 28.6967 176.071 27.39C173.468 28.409 169.585 32.5037 169.585 36.1217C169.585 36.5613 169.626 36.6894 169.626 36.9582C169.626 38.5261 168.334 39.5051 166.956 39.5051C164.624 39.5051 164.296 37.4112 164.296 35.8689C164.296 35.4309 164.338 34.973 164.41 34.5045C164.123 34.1924 163.898 33.6059 163.898 32.4915C163.898 22.6012 174.94 17.9216 179.878 17.9216ZM274.524 167.468C274.524 165.282 277.703 163.351 280.405 163.351C284.159 163.351 291.801 168.418 294.007 175.234C294.237 175.738 294.453 176.271 294.661 176.826C296.539 179.633 303.434 185.713 303.434 199.495C303.434 200.302 303.203 200.776 302.917 201.054C302.856 202.092 302.455 204.013 300.208 204.013C295.001 204.013 300.328 196.799 293.935 186.558C292.924 187.647 290.149 191.369 286.782 191.369C284.335 191.369 278.637 188.789 278.637 182.756C278.637 178.536 280.529 177.389 281.44 176.806C283.17 175.699 284.995 174.807 287.185 174.485C285.553 171.74 282.205 170.288 280.556 170.288C278.139 170.288 278.93 171.33 277.89 172.782C277.38 173.495 276.576 173.877 275.751 173.877C273.977 173.877 273.13 172.372 273.13 171.209C273.13 169.941 273.629 168.661 274.533 167.588C274.531 167.547 274.524 167.508 274.524 167.468ZM25.2721 84.2321C25.2721 83.9832 25.2688 83.864 25.2688 83.8041C25.2688 82.3494 26.4673 81.6941 27.6186 81.6941C27.6858 81.6941 27.7102 81.6908 27.738 81.6908C27.8886 81.6908 28.1336 81.775 35.7214 82.8539C36.2982 82.0467 37.6111 77.1326 44.8333 77.1326C48.7967 77.1326 54.0647 79.3845 54.9409 84.6024C62.0303 85.3608 64.2012 84.4688 64.8668 88.0541C64.9296 88.0496 64.9907 88.0435 65.0563 88.0435C67.5506 88.0435 67.7711 90.4213 67.8562 91.0877C68.3685 95.0893 68.6602 99.0914 68.6602 103.094C68.6602 138.051 47.1476 149.053 45.354 149.053C45.0789 149.053 13.207 139.179 10.9561 138.756C10.8478 140.197 10.4521 143.955 10.4521 150.857C10.4521 170.164 17.2054 211.632 17.5682 213.61C19.1457 213.521 40.8472 209.795 41.8701 209.795C43.487 209.795 44.4738 211.12 44.4738 212.463C44.4738 215.638 42.1196 214.883 18.45 218.924C21.0893 233.887 25.2871 248.226 31.6508 261.992C36.8916 256.302 41.4645 252.455 43.2981 250.844C42.5974 249.508 42.179 248.847 42.179 248.317C42.179 246.739 46.363 245.407 49.1767 243.853C48.2583 241.065 48.1666 240.942 48.1666 240.371C48.1666 238.189 49.7202 238.643 62.8299 237.332C61.9909 235.196 60.3895 231.539 60.3895 226.31C60.3895 224.912 60.5167 218.017 64.2445 213.83C65.0096 212.971 64.719 206.893 72.5318 206.893C72.9025 206.893 72.9391 206.928 73.1736 206.928C74.6638 206.928 74.4099 205.716 78.8022 204.851C78.5116 201.332 78.3616 200.062 78.3616 197.849C78.3616 187.565 82.5128 184.289 84.9598 184.289C92.2364 184.289 96.5987 215.133 96.8716 217.466C97.0977 219.402 98.5196 220.982 99.3736 220.982C100.963 220.982 101.866 217.359 103.959 213.055C105.026 210.861 109.235 205.052 111.658 205.052C111.775 205.052 115.217 205.297 115.217 210.117C115.217 210.209 115.215 210.31 115.214 210.408C115.312 210.619 115.396 210.833 115.46 211.043C118.33 210.071 121.185 209.574 124.082 209.574C126.068 209.574 128.073 209.806 130.119 210.271C130.444 207.493 130.759 204.796 131.089 201.968C130.606 201.968 130.181 201.959 129.779 201.959C128.546 201.959 108.508 202.819 107.945 202.819C106.491 202.819 105.896 202.314 105.757 200.883C104.155 184.376 101.627 135.667 101.627 125.971C101.627 59.7398 149.844 46.4056 175.939 46.4056C236.522 46.4056 248.627 96.0822 248.627 103.801C248.627 104.181 248.622 104.56 248.622 104.94C248.622 106.705 252.582 194.001 252.582 194.259C252.582 195.278 252.135 195.647 250.83 195.892C245.584 196.88 241.165 197.71 237.437 198.409C236.315 198.769 234.962 199.087 233.262 199.273C233.252 199.274 232.837 199.32 232.121 199.405C215.371 202.539 217.541 202.1 216.484 202.444C216.712 203.442 216.931 204.395 217.144 205.325C218.019 205.325 218.856 205.34 219.676 205.34C221.319 205.34 221.871 205.259 224.453 205.259C267.155 205.259 299.789 231.461 317.787 267.373C322.419 260.163 328.2 244.921 328.2 225.023C328.2 222.485 328.171 222.993 328.06 222.223C325.233 222.348 308.543 223.524 307.834 223.524C305.489 223.524 305.107 221.499 305.107 220.907C305.107 216.313 314.938 218.737 327.781 216.827C327.408 211.585 318.068 151.958 317.125 147.053C309.836 148.772 300.081 151.919 298.527 151.919C292.142 151.919 275.02 131.127 275.02 102.194C275.02 95.1552 276.316 82.2624 280.871 82.2624C280.909 82.2624 280.959 82.2646 281.014 82.2685C281.443 82.1576 282.015 82.0949 282.808 82.0949C284.03 82.0949 283.719 82.1215 286.902 82.1215C287.729 82.1215 288.552 82.1204 289.369 82.1204C289.656 81.4846 291.087 74.5896 299.621 74.3518C296.788 67.7762 289.435 52.5571 278.21 42.5166C266.628 50.7115 258.365 58.6637 256.129 58.6637C254.621 58.6637 253.52 57.4202 253.52 56.0619C253.52 53.7307 255.514 53.5794 273.989 38.9912C252.256 19.4335 201.33 1.53723 153.71 1.53723C152.297 1.53723 144.269 1.5716 139.163 2.22301C139.566 5.03376 142.69 17.6511 142.69 18.7194C142.69 20.4086 141.311 21.3888 140.04 21.3888C136.036 21.3888 136.38 10.444 133.627 2.71475C125.869 3.57849 118.294 5.00715 110.754 7.04065C113.548 10.2766 115.424 14.7522 115.424 20.8216C115.424 36.1965 102.793 46.7016 100.863 48.9857C102.446 51.1672 103.171 52.7678 105.249 52.7678C105.443 52.7678 105.494 52.7556 105.651 52.7556C106.793 52.7556 107.194 53.4885 107.249 54.0844C108.376 54.36 109.291 55.3623 109.291 56.6363C109.291 58.2363 107.27 61.0963 101.596 61.0963C96.4904 61.0963 94.0439 58.7712 92.8765 58.7712C91.5241 58.7712 85.6488 63.3322 75.4828 63.3322C54.8681 63.3322 51.3721 43.6226 51.2726 43.245C46.3902 44.4209 19.4735 85.9418 14.4361 112.268C20.3564 103.337 25.2721 92.2719 25.2721 84.2321Z" fill="#5FC690"/>
<mask id="mask0_1_174" style="mask-type:luminance" maskUnits="userSpaceOnUse" x="9" y="46" width="326" height="326">
<path d="M9.54541 46.9371H334.066V372H9.54541V46.9371Z" fill="white"/>
</mask>
<g mask="url(#mask0_1_174)">
<path fill-rule="evenodd" clip-rule="evenodd" d="M75.448 228.895C75.6212 228.895 75.8028 228.876 75.9927 228.835C73.703 223.056 73.764 216.996 73.522 210.999C73.4148 210.996 73.3087 210.995 73.206 210.995H73.0911C72.0873 210.995 68.5283 211.088 68.5283 215.655C68.5283 215.707 68.7493 220.007 69.0707 221.856C69.9708 227.037 74.0605 228.895 75.448 228.895ZM80.2907 208.998C77.9404 209.127 76.8433 209.301 76.8433 212.545C76.8433 223.883 79.3696 228.922 80.5127 228.922C80.6182 228.922 80.7304 228.905 80.8487 228.867C83.9412 227.905 85.2943 227.798 85.2943 226.22C85.2943 221.133 83.4804 220.924 80.2907 208.998ZM281.702 323.007C281.702 321.71 281.424 314.298 265.609 300.925C265.515 300.956 265.422 300.988 265.328 301.02C269.175 325.659 277.363 327.372 278.936 327.372C280.963 327.372 281.702 324.499 281.702 323.125C281.702 323.094 281.702 323.054 281.702 323.007ZM112.858 210.815C112.858 210.441 112.764 210.047 112.713 209.567C106.497 212.887 106.19 225.367 100.236 225.367C91.1397 225.367 92.0281 188.6 85.8251 188.6C85.5325 188.6 82.4632 190.17 82.4632 199.078C82.4632 211.47 88.3397 219.875 88.3397 225.637C88.3397 227.476 88.0343 230.109 85.0933 231.006C83.7808 231.407 81.712 232.158 80.7598 232.158C80.2346 232.158 78.66 231.892 78.2097 231.892C77.7183 231.892 77.2447 232.249 75.8378 232.249C73.432 232.249 67.2874 230.622 65.4923 220.807C64.8816 222.212 64.5218 224.422 64.5218 226.901C64.5218 230.638 65.3385 234.988 67.3384 238.117C81.3378 236.766 95.3772 235.413 109.538 234.047C111.421 213.572 112.858 216.271 112.858 210.815ZM144.297 308.572C147.223 305.143 150.707 299.493 159.563 299.493C160.861 299.493 162.176 299.724 163.47 299.909C164.261 300.023 164.731 300.653 164.731 301.334C164.731 302.441 163.714 302.864 163.101 302.864C162.666 302.864 161.055 302.456 159.441 302.456C152.727 302.456 150.734 305.867 146.671 310.494C146.547 310.636 146.48 310.894 146.48 311.127C146.48 311.221 146.49 311.31 146.513 311.385C147.525 314.812 148.411 316.647 151.03 316.647C154.411 316.647 156.363 314.152 160.623 314.152C161.743 314.152 172.175 314.652 172.395 314.652C180.045 314.652 188.922 309.002 188.922 306.612C188.922 302.883 189.005 299.768 189.005 297.126C189.005 280.729 185.793 282.521 139.501 268.738C140.482 273.171 141.428 277.451 142.406 281.869C145.128 279.437 145.795 277.773 154.112 277.773C154.81 277.773 155.514 277.831 156.211 277.895C163.8 278.59 164.591 278.53 164.591 279.938V279.944C164.591 280.086 164.578 281.271 162.99 281.271C160.887 281.271 156.368 280.783 154.687 280.783C147.635 280.783 146.962 281.765 146.462 282.269C142.213 286.55 134.108 297.2 134.108 298.951C134.108 300.528 136.683 301.622 136.825 301.678C144.347 289.273 151.372 288.715 155.572 288.715C160.778 288.715 161.571 289.215 161.571 290.33C161.571 290.343 161.573 290.372 161.573 290.414C161.573 290.712 161.466 291.622 159.702 291.622C159.39 291.622 157.869 291.572 156.629 291.572C152.066 291.572 148.596 292.44 145.698 295.633C145.145 296.243 139.17 301.565 139.17 304.338C139.17 306.907 143.674 308.297 144.297 308.572ZM142.098 341.343C142.704 337.82 143.85 333.511 143.85 323.573C143.85 320.044 143.694 316.514 143.464 312.985C143.341 311.082 143.674 311.577 141.848 310.768C140.386 310.12 137.375 309.141 136.219 305.352C135.732 303.752 131.055 302.787 131.055 299.192C131.055 294.785 139.793 286.907 139.793 284.605C139.793 284.552 134.749 254.199 124.137 235.644C100.194 237.953 76.2548 240.262 52.2575 242.577C52.7195 245.734 65.0126 277.745 65.0126 311.86C65.0126 322.663 64.0826 342.026 64.0826 343.398C64.0826 343.996 64.0954 344.6 64.0954 345.224C64.3908 345.224 64.6329 345.229 64.8544 345.229C66.2352 345.229 81.2634 344.416 142.098 341.343ZM141.004 81.2721C124.483 92.8618 110.395 116.023 110.395 136.62C110.395 139.374 110.699 142.114 111.431 144.814C112.203 147.661 111.662 147.362 114.808 148.311C120.772 150.109 125.27 150.271 128.511 150.271C129.219 150.271 129.867 150.263 130.457 150.263C133.041 150.263 134.519 150.41 135.074 151.996C135.663 153.677 137.335 162.005 137.335 170.032C137.335 190.01 133.796 208.446 133.796 212.217C133.796 216.103 147.096 226.008 170.772 226.008C200.313 226.008 214.83 212.63 214.83 207.023C214.83 204.928 210.017 189.995 210.017 162.933C210.017 159.931 210.103 156.928 210.3 153.925C210.726 147.421 209.525 147.039 219.612 145.591C219.357 140.983 219.355 141.424 219.355 140.935V140.915C219.355 140.91 219.352 140.866 219.352 140.796C219.352 140.405 219.458 139.204 220.837 139.204C222.602 139.204 222.357 141.443 222.615 144.353C223.378 143.965 227.722 140.721 228.338 135.619C228.619 133.296 232.32 101.31 232.32 98.6036C232.32 90.9955 228.681 89.7176 223.165 89.7176C209.565 89.7176 212.306 121.998 208.404 121.998C208.344 121.998 208.28 121.998 208.214 121.998C206.466 121.998 205.314 121.367 202.985 118.379C186.098 96.7201 164.839 120.525 141.004 81.2721ZM112.983 233.711C123.54 232.708 124.754 232.541 125.244 232.541C126.908 232.541 131.633 242.048 138.022 263.431C139.738 269.176 172.321 271.529 187.506 282.37C187.506 281.791 187.532 281.287 187.532 280.816C187.532 280.081 187.472 279.977 187.472 279.663C187.472 279.038 188.066 275.267 203.78 275.267C234.683 275.267 253.321 288.836 261.291 293.829C261.316 293.501 261.356 293.26 261.356 293.032C261.356 292.23 260.95 287.648 260.95 284.421C260.95 265.969 268.718 244.422 271.165 244.422C272.275 244.422 272.591 245.473 272.591 245.871C272.591 247.083 263.941 262.963 263.941 284.913C263.941 289.924 264.4 292.556 264.63 295.706C264.746 297.29 284.692 310.835 284.692 323.144C284.692 325.596 283.168 330.365 278.973 330.365C265.253 330.365 262.301 300.619 262.082 299.02C261.85 297.33 237.903 278.254 204.378 278.254C194.13 278.254 190.792 279.729 190.644 279.771C190.644 280.65 190.624 281.454 190.624 282.228C190.624 282.686 190.631 283.134 190.654 283.58C193.097 332.019 189.617 309.565 205.275 325.641C249.341 370.883 253.786 367.083 253.786 369.826C253.786 370.218 253.464 370.708 252.716 370.708C241.237 370.708 205.937 326.381 191.649 319.663C188.857 318.35 189.69 316.756 189.137 311.384C188.27 311.946 181.387 317.651 172.254 317.651C168.395 317.651 167.152 317.096 162.36 317.096C162.189 317.096 161.933 317.085 161.604 317.085C160.265 317.085 157.713 317.271 154.678 319.157C154.874 329.091 154.887 329.39 154.887 330.57C154.887 335.447 154.422 340.283 153.471 345.076C152.34 350.772 152.89 351.686 149.481 351.968C148.968 352.011 76.8133 358.183 76.4457 358.183C73.115 358.183 75.956 355.052 72.1844 348.052C71.4066 348.052 70.6537 348.043 69.9108 348.043C67.4073 348.043 64.8816 348.254 64.2858 348.254C63.7267 348.254 63.2109 348.133 62.8189 347.646C62.3265 347.033 61.01 347.454 61.01 345.319C61.01 344.15 61.8107 333.81 61.8107 319.842V319.254C61.8107 305.098 61.7002 281.653 45.6087 254.81C45.0291 255.241 12.5297 280.238 12.5297 315.11C12.5297 364.54 71.4371 367.864 71.4371 370.525C71.4371 371.276 70.888 372 69.8053 372C63.0693 372 9.54541 362.167 9.54541 314.797C9.54541 281.005 38.7301 256.775 44.133 252.008C43.4328 250.668 43.0147 250.006 43.0147 249.473C43.0147 247.891 47.1956 246.554 50.0072 244.996C49.0894 242.199 48.9978 242.075 48.9978 241.503C48.9978 239.313 50.5502 239.769 63.6501 238.454C62.8117 236.311 61.2105 232.644 61.2105 227.398C61.2105 225.996 61.3387 219.08 65.0637 214.88C65.8282 214.018 65.5373 207.922 73.3448 207.922C73.7152 207.922 73.7518 207.956 73.9861 207.956C75.4752 207.956 75.2215 206.741 79.6105 205.872C79.3196 202.342 79.1702 201.069 79.1702 198.85C79.1702 188.533 83.3183 185.247 85.7629 185.247C93.0347 185.247 97.3932 216.186 97.6663 218.526C97.8923 220.469 99.3126 222.054 100.166 222.054C101.755 222.054 102.657 218.419 104.748 214.102C105.814 211.902 110.021 206.074 112.442 206.074C112.558 206.074 115.998 206.321 115.998 211.155C115.998 211.454 115.989 211.777 115.989 212.167C118.941 211.134 121.876 210.611 124.856 210.611C126.84 210.611 128.845 210.842 130.889 211.31C131.213 208.523 131.528 205.817 131.859 202.98C131.375 202.98 130.951 202.972 130.549 202.972C129.316 202.972 109.293 203.835 108.732 203.835C107.278 203.835 106.684 203.328 106.545 201.892C104.945 185.335 102.418 136.475 102.418 126.749C102.418 60.3125 150.599 46.9371 176.675 46.9371C237.212 46.9371 249.308 96.7679 249.308 104.511C249.308 104.891 249.303 105.272 249.303 105.653C249.303 107.423 253.26 194.99 253.26 195.248C253.26 196.27 252.814 196.64 251.509 196.886C214.628 203.858 218.538 203.017 217.189 203.459C217.417 204.459 217.636 205.415 217.849 206.348C218.724 206.348 219.559 206.363 220.379 206.363C222.02 206.363 222.571 206.282 225.152 206.282C291.923 206.282 334.066 270.636 334.066 335.969C334.066 336.894 333.973 338.262 332.583 338.262C329.893 338.262 329.541 209.279 225.147 209.279C222.836 209.279 221.373 209.356 218.484 209.472C215.383 241.681 184.122 247.089 173.15 247.089C136.087 247.089 130.52 214.336 129.93 214.2C128.17 213.795 126.426 213.586 124.698 213.586C121.992 213.586 119.325 214.1 116.697 215.183C116.224 215.378 114.034 215.159 112.983 233.711Z" fill="black"/>
</g>
<path fill-rule="evenodd" clip-rule="evenodd" d="M307.878 82.873C306.787 79.721 303.061 78.4959 300.643 78.4959C295.922 78.4959 293.887 81.5334 293.887 82.6623C293.887 82.7301 293.891 82.8007 293.898 82.873H307.878ZM281.798 102.245C281.798 105.723 281.922 130.014 299.817 144.786C313.257 140.32 326.628 135.876 339.981 131.438C339.643 129.527 320.495 123.814 316.696 86.5244C305.678 86.4543 294.748 86.3854 283.904 86.3164C283.249 87.3257 281.798 94.9688 281.798 102.112V102.245ZM287.554 82.764C288.38 82.764 289.203 82.7629 290.02 82.7629C290.311 82.1134 291.781 74.9591 300.714 74.9591C309.717 74.9591 311.648 82.9459 311.667 82.9981C312.522 82.9981 313.38 82.9965 314.239 82.9965C315.55 82.9965 315.922 83.0004 316.19 83.0004C316.492 83.0004 316.794 82.9976 317.095 82.9976C317.233 82.9976 317.372 82.997 317.51 82.997C318.972 82.997 320.453 83.0749 320.453 84.8789C320.453 85.4873 320.311 85.7103 320.311 86.7613C320.311 119.203 346.859 130.638 346.859 131.725C346.859 133.924 299.21 148.566 299.158 148.566C297.802 148.566 278.298 132.94 278.298 102.378C278.298 94.8487 279.458 89.2154 280.236 85.9588C280.685 84.0731 279.708 82.7373 283.463 82.7373C284.684 82.7373 284.373 82.764 287.554 82.764Z" fill="black"/>
<path fill-rule="evenodd" clip-rule="evenodd" d="M51.9576 84.9042C51.1903 82.6598 48.5386 81.3118 45.4266 81.3118C43.0958 81.3118 41.288 82.1749 40.5118 83.7781C44.3472 84.1557 48.1277 84.5272 51.9576 84.9042ZM29.3651 86.2227C26.83 100.399 27.2042 105.741 6.13076 128.869C7.3045 129.298 44.5416 141.006 45.0107 141.006C45.4616 141.006 45.7969 140.792 46.1489 140.34C53.9831 130.292 62.5779 121.659 62.5779 94.0254C62.5779 90.4397 62.428 89.923 62.3747 89.4604C51.3291 88.3771 40.394 87.3044 29.3651 86.2227ZM28.5839 82.3322C28.7349 82.3322 28.9787 82.4162 36.5619 83.4989C37.1382 82.6887 38.4502 77.7594 45.667 77.7594C49.6274 77.7594 54.8909 80.0188 55.7665 85.2518C65.8515 86.3356 65.9809 84.0489 65.9809 96.1698C65.9809 128.499 47.311 144.921 45.8341 144.921C45.7814 144.921 0 131.664 0 129.4C0 128.584 0.42641 128.072 1.17374 127.742C10.2094 123.744 26.1204 99.3952 26.1204 84.8809C26.1204 84.6312 26.1165 84.5116 26.1165 84.4521C26.1165 82.9923 27.3141 82.3345 28.4646 82.3345C28.5323 82.3345 28.5567 82.3322 28.5839 82.3322Z" fill="black"/>
<path fill-rule="evenodd" clip-rule="evenodd" d="M101.058 54.2028C100.802 53.833 98.3733 50.5481 98.3733 48.579C98.3733 47.0808 113.113 37.3907 113.113 21.1681C113.113 5.84798 99.7041 3.1025 93.9748 3.1025C76.2888 3.1025 57.6089 20.5914 57.6089 37.5887C57.6089 55.6398 75.1828 55.8951 76.5375 55.8951C76.5764 55.8951 76.6019 55.8945 76.6136 55.8945C87.16 55.8945 92.3908 50.8545 94.2907 50.8545C96.4056 50.8545 94.4068 52.7764 101.058 54.2028ZM101.654 49.5255C103.236 51.7137 103.961 53.3197 106.038 53.3197C106.231 53.3197 106.282 53.307 106.438 53.307C107.672 53.307 108.046 54.1678 108.046 54.7834C108.046 56.4762 104.193 57.4027 101.992 57.4027C97.1856 57.4027 95.4262 54.8218 93.6478 54.8218C91.9316 54.8218 86.3161 58.9953 76.5281 58.9953C67.4519 58.9953 54.4985 53.7318 54.4985 37.3868C54.4985 19.9547 73.8619 0 93.9298 0C102.487 0 116.205 4.79472 116.205 21.2743C116.205 36.6967 103.583 47.2343 101.654 49.5255Z" fill="black"/>
<path fill-rule="evenodd" clip-rule="evenodd" d="M292.026 179.689C291.297 179.37 290.593 179.2 289.922 179.2C287.321 179.2 285.582 181.799 285.582 184.174C285.582 185.033 285.679 185.934 286.82 185.934C288.776 185.934 291.917 183.542 292.026 179.689ZM291.256 176.027C289.538 171.202 282.699 167.276 281.011 167.276C280.755 167.276 278.145 167.45 278.071 168.992C278.004 170.375 277.078 170.507 276.733 170.507C275.747 170.507 275.186 169.454 275.186 168.373C275.186 166.181 278.362 164.245 281.062 164.245C284.946 164.245 293 169.695 294.87 176.901C295.482 179.258 304.074 185.066 304.074 200.5C304.074 202.391 302.815 202.462 302.545 202.462C302.522 202.462 302.507 202.461 302.5 202.461C300.459 202.461 301.057 200.017 300.385 194.779C299.555 188.318 295.53 182.881 294.864 182.457C291.965 188.487 288.176 189.137 286.976 189.137C285.88 189.137 282.363 188.427 282.363 184.099C282.363 180.5 285.07 176.939 288.604 176.224C289.409 176.061 290.254 176.095 291.256 176.027Z" fill="black"/>
<path fill-rule="evenodd" clip-rule="evenodd" d="M184.747 22.9036C182.879 24.3456 182.6 26.411 182.6 26.981C182.6 28.0899 183.542 28.1488 184.104 28.1488C184.809 28.1488 186.547 28.0337 186.547 26.6284C186.547 24.3923 184.828 22.9748 184.747 22.9036ZM190.564 21.3427C189.736 21.3427 188.897 21.445 188.036 21.703C188.779 23.1027 189.654 24.4402 189.654 26.5339C189.654 30.0179 186.577 31.3408 184.283 31.3408C182.819 31.3408 179.5 30.8721 179.5 26.8709C179.5 24.6265 180.563 23.1255 181.392 21.6997C181.039 21.5646 180.697 21.5134 180.365 21.5134C179.996 21.5134 179.641 21.5768 179.297 21.6596C164.154 25.2993 169.356 35.352 166.083 35.352C165.596 35.352 164.642 35.2858 164.642 32.9802C164.642 23.0594 175.676 18.3653 180.61 18.3653C182.943 18.3653 183.923 19.1238 184.819 19.1238C185.726 19.1238 187.395 18.2407 190.754 18.2407C199.384 18.2407 205.603 24.9306 205.603 27.2529C205.603 28.0843 204.976 29.0314 204.07 29.0314C202.117 29.0314 200.587 21.3427 190.564 21.3427Z" fill="black"/>
<path fill-rule="evenodd" clip-rule="evenodd" d="M50.036 181.034C50.036 181.694 50.1543 182.364 50.4635 183.052C52.0887 182.738 53.0525 181.823 53.0525 180.112C53.0525 178.659 52.3446 177.571 50.9166 176.961C50.5496 178.326 50.036 179.658 50.036 181.034ZM49.1571 172.992C55.9802 161.488 65.9487 161.433 66.0841 161.433C67.561 161.433 67.7137 162.661 67.7137 162.961C67.7137 166.291 57.7125 163.094 52.2669 173.898C53.1169 174.468 56.2151 176.034 56.2151 180.172C56.2151 185.18 51.4507 186.238 50.6745 186.238C48.5552 186.238 46.9018 184.416 46.9018 181.194C46.9018 179.531 47.3648 177.946 47.7807 176.33C45.6953 176.98 41.6655 178.527 41.6655 186.97C41.6655 191.189 42.7304 191.11 42.7304 192.292C42.7304 193.157 41.8826 193.565 41.3629 193.565C39.921 193.565 38.6689 191.017 38.6689 186.678C38.6689 172.976 48.7462 173.088 49.1571 172.992Z" fill="black"/>
<path fill-rule="evenodd" clip-rule="evenodd" d="M220.836 121.607C218.463 121.373 216.998 121.494 216.998 119.703C216.998 119.268 218.463 102.466 218.63 101.88C218.828 101.194 219.397 100.752 220.038 100.752C221.151 100.752 221.518 101.803 221.518 102.47C221.518 102.738 220.96 108.547 220.058 118.613C222.556 119.383 224.323 117.665 224.323 131.861C224.323 132.878 224.275 134.806 222.753 134.806C220.365 134.806 221.778 132.395 220.836 121.607Z" fill="black"/>
<path fill-rule="evenodd" clip-rule="evenodd" d="M164.237 154.361C163.011 154.361 160.051 153.783 160.051 152.134C160.051 151.421 160.571 150.701 161.501 150.701C162.328 150.701 162.973 151.315 164.54 151.315C166.11 151.315 167.393 150.524 168.398 148.886C169.923 146.402 169.387 144.046 171.204 144.046C171.458 144.046 172.613 144.236 172.613 145.409C172.613 148.807 169.736 154.361 164.237 154.361Z" fill="black"/>
<path fill-rule="evenodd" clip-rule="evenodd" d="M148.276 105.11C149.413 105.42 150.881 105.502 150.881 106.905C150.881 107.364 150.549 108.367 149.534 108.367C149.202 108.367 149.016 108.228 148.406 108.228C147.268 108.228 146.352 108.837 145.47 109.551C142.42 112.024 142.699 114.415 141.041 114.415C140.331 114.415 139.571 113.847 139.571 112.958C139.571 112.297 142.661 105.705 148.276 105.11Z" fill="black"/>
<path fill-rule="evenodd" clip-rule="evenodd" d="M179.032 128.497C180.406 128.515 180.708 129.464 180.708 129.97C180.708 130.307 180.574 130.628 180.305 130.907C179.799 131.434 175.668 133.608 174.843 133.608C173.706 133.608 173.408 132.571 173.408 132.166C173.408 131.717 173.633 131.284 174.068 130.949C174.429 130.672 177.463 129.092 179.032 128.497Z" fill="black"/>
<path fill-rule="evenodd" clip-rule="evenodd" d="M142.2 136.033C141.977 135.929 141.566 135.817 141.253 135.577C137.694 132.846 137.507 132.539 137.507 131.782C137.507 130.959 138.232 130.325 138.936 130.325C139.296 130.325 139.681 130.467 140.056 130.761C143.79 133.687 143.809 133.926 143.809 134.512C143.809 135.023 143.529 135.931 142.2 136.033Z" fill="black"/>
<path fill-rule="evenodd" clip-rule="evenodd" d="M148.044 121.06C148.044 121.03 148.044 121.001 148.044 120.972C148.044 120.107 148.258 118.959 149.559 118.959C150.344 118.959 150.932 119.473 151.088 120.404C151.399 122.248 151.544 123.85 151.544 124.047C151.544 124.34 151.403 125.572 150.054 125.572C148.531 125.572 148.559 124.038 148.044 121.06Z" fill="black"/>
<path fill-rule="evenodd" clip-rule="evenodd" d="M166.528 124.012C166.528 124.012 166.528 124.015 166.528 124.023C166.528 124.651 166.088 125.501 165.157 125.501C164.549 125.501 163.922 125.089 163.854 124.425C163.703 122.953 163.601 121.469 163.601 119.99C163.601 118.645 164.7 118.537 164.922 118.537C166.56 118.537 166.286 120.594 166.528 124.012Z" fill="black"/>
<path fill-rule="evenodd" clip-rule="evenodd" d="M303.491 122.315C312.701 119.435 312.889 119.206 313.799 119.206C315.237 119.206 315.439 120.592 315.439 120.901C315.439 121.445 315.186 121.95 314.695 122.272C314.037 122.702 302.214 126.543 301.282 126.543C300.087 126.543 299.367 125.811 299.367 124.543C299.367 121.928 303.711 111.296 303.711 107.976C303.711 107.009 303.584 106.042 303.365 105.076C303.157 104.156 302.858 103.767 302.268 103.767C302.17 103.767 299.08 104.015 299.08 107.087C299.08 107.642 299.179 108.258 299.179 108.705C299.179 108.995 299.11 110.334 297.66 110.334C296.985 110.334 296.337 109.931 296.199 109.191C296.043 108.354 295.904 107.476 295.904 106.62C295.904 101.723 300.698 100.222 302.46 100.222C303.835 100.222 307.189 100.99 307.189 107.82C307.189 112.322 304.642 116.868 303.491 122.315Z" fill="black"/>
<path fill-rule="evenodd" clip-rule="evenodd" d="M39.846 117.227C42.9964 117.852 44.8547 117.879 44.8547 119.626C44.8547 121.219 43.355 121.353 43.0347 121.353C42.6199 121.353 41.9842 121.23 41.8632 121.208C31.4183 119.291 30.0708 119.463 30.0708 117.564C30.0708 117.239 30.3306 115.841 31.8136 115.841C32.4771 115.841 33.7508 116.188 36.236 116.544C37.885 112.704 39.2536 108.793 40.6506 104.774C40.3652 104.774 40.1348 104.777 39.9249 104.777C39.7983 104.777 39.6795 104.775 39.5601 104.772C38.2526 104.739 38.0754 103.493 38.0754 103.272C38.0754 102.895 38.2403 102.549 38.5085 102.223C38.5429 102.181 42.9636 98.9819 43.7848 98.9819C43.8353 98.9819 45.3039 99.0053 45.3039 100.77C45.3039 102.245 39.8655 117.174 39.846 117.227Z" fill="black"/>
<path fill-rule="evenodd" clip-rule="evenodd" d="M81.5378 25.2731C83.9625 19.6575 86.0573 17.6311 88.3576 17.6311C89.9589 17.6311 93.0542 19.1109 93.0542 27.0704C93.0542 32.335 91.3525 36.8106 90.7534 38.6774C90.5074 39.442 90.2087 39.5165 86.6953 39.5165C78.7812 39.5165 70.751 36.2611 70.751 31.6416C70.751 26.3041 80.7272 25.4494 81.5378 25.2731Z" fill="black"/>
</svg>
