<svg width="365" height="58" viewBox="0 0 365 58" fill="none" xmlns="http://www.w3.org/2000/svg">
<path d="M50.2015 21.7761L69.5243 21.7761V25.3733L61.9162 25.3733V45.6511H57.746V25.3733H50.1697L50.2015 21.7761ZM68.6967 28.3656H72.262V31.7081H72.3257C72.453 31.2306 72.6758 30.7849 72.9942 30.3393C73.3125 29.8936 73.6945 29.4798 74.172 29.1296C74.6177 28.7476 75.127 28.4611 75.7 28.2383C76.2412 28.0154 76.8142 27.8881 77.3872 27.8881C77.8328 27.8881 78.1512 27.9199 78.3103 27.9199C78.4695 27.9518 78.6605 27.9836 78.8197 27.9836V31.6444C78.565 31.5808 78.2785 31.5489 77.992 31.5171C77.7055 31.4853 77.4508 31.4534 77.1643 31.4534C76.5277 31.4534 75.9228 31.5808 75.3498 31.8354C74.7768 32.0901 74.2993 32.4721 73.8537 32.9496C73.4398 33.4589 73.0897 34.0638 72.835 34.7959C72.5803 35.5281 72.453 36.3876 72.453 37.3426V45.5556H68.633L68.6967 28.3656ZM96.328 45.6511L92.5716 45.6511V43.2318H92.508C92.0305 44.1231 91.3301 44.7916 90.407 45.3328C89.4838 45.8739 88.5288 46.1286 87.5738 46.1286C85.3137 46.1286 83.6583 45.5874 82.6397 44.4414C81.621 43.3272 81.1117 41.6083 81.1117 39.3481V28.3656H84.9316V38.9661C84.9316 40.4941 85.2182 41.5764 85.823 42.1812C86.396 42.8179 87.2236 43.1362 88.2741 43.1362C89.07 43.1362 89.7385 43.0089 90.2796 42.7543C90.8208 42.4996 91.2665 42.1813 91.5848 41.7674C91.935 41.3536 92.1578 40.8442 92.317 40.2713C92.4761 39.6983 92.5398 39.0616 92.5398 38.3931V28.3656H96.3598V45.6511H96.328ZM102.822 40.1121C102.949 41.2262 103.363 41.9903 104.095 42.4678C104.827 42.9134 105.719 43.1362 106.737 43.1362C107.088 43.1362 107.501 43.1044 107.947 43.0408C108.393 42.9771 108.838 42.8816 109.22 42.7224C109.634 42.5633 109.953 42.3404 110.207 42.0221C110.462 41.7037 110.589 41.3218 110.557 40.8443C110.526 40.3668 110.366 39.9529 110.016 39.6346C109.666 39.3163 109.252 39.0934 108.743 38.8706C108.234 38.6796 107.629 38.5204 106.96 38.3931C106.292 38.2658 105.623 38.1066 104.923 37.9474C104.223 37.7883 103.522 37.5973 102.854 37.3744C102.185 37.1516 101.612 36.8651 101.071 36.4513C100.562 36.0693 100.116 35.5918 99.8296 34.9869C99.5113 34.3821 99.3521 33.6818 99.3521 32.7904C99.3521 31.8354 99.575 31.0714 100.052 30.4348C100.498 29.7981 101.103 29.2888 101.803 28.9068C102.504 28.5248 103.299 28.2383 104.159 28.0791C105.018 27.9199 105.846 27.8563 106.61 27.8563C107.501 27.8563 108.361 27.9518 109.157 28.1428C109.953 28.3338 110.717 28.6203 111.353 29.0659C112.022 29.4798 112.563 30.0528 112.977 30.7213C113.422 31.3898 113.677 32.2174 113.804 33.1724H109.825C109.634 32.2493 109.22 31.6444 108.584 31.3261C107.915 31.0078 107.183 30.8486 106.324 30.8486C106.069 30.8486 105.719 30.8804 105.369 30.9123C104.987 30.9759 104.668 31.0396 104.318 31.1669C104 31.2943 103.713 31.4853 103.49 31.7081C103.268 31.9309 103.14 32.2493 103.14 32.6313C103.14 33.1088 103.299 33.4589 103.618 33.7454C103.936 34.0319 104.35 34.2548 104.891 34.4776C105.4 34.6686 106.005 34.8278 106.674 34.9551C107.342 35.0824 108.043 35.2416 108.743 35.4008C109.443 35.5599 110.112 35.7509 110.78 35.9738C111.449 36.1966 112.054 36.4831 112.563 36.8969C113.072 37.2789 113.518 37.7564 113.836 38.3294C114.155 38.9024 114.314 39.6346 114.314 40.4623C114.314 41.4809 114.091 42.3404 113.613 43.0726C113.136 43.7729 112.531 44.3778 111.799 44.8234C111.067 45.2691 110.207 45.5874 109.316 45.8102C108.393 46.0012 107.501 46.1286 106.61 46.1286C105.528 46.1286 104.509 46.0012 103.586 45.7466C102.663 45.4919 101.835 45.1099 101.167 44.6324C100.498 44.1231 99.957 43.5183 99.575 42.7543C99.193 42.0221 98.9701 41.1308 98.9383 40.0803H102.79V40.1121H102.822ZM115.396 28.3656H118.293V23.145H122.113V28.3338H125.551V31.1669H122.113V40.3986C122.113 40.8124 122.145 41.1308 122.177 41.4491C122.208 41.7356 122.304 41.9902 122.399 42.1812C122.527 42.3722 122.718 42.5314 122.941 42.6269C123.195 42.7224 123.514 42.7861 123.959 42.7861C124.214 42.7861 124.5 42.7861 124.755 42.7543C125.01 42.7224 125.296 42.6906 125.551 42.6269V45.5874C125.137 45.6511 124.723 45.6829 124.309 45.7147C123.896 45.7784 123.514 45.7784 123.068 45.7784C122.049 45.7784 121.253 45.6829 120.649 45.4919C120.044 45.3009 119.566 45.0144 119.216 44.6643C118.866 44.2823 118.643 43.8366 118.516 43.2954C118.388 42.7542 118.325 42.0857 118.293 41.3854V31.1988H115.396V28.3019V28.3656ZM128.225 28.3656H131.822V30.7213H131.886C132.427 29.7026 133.159 29.0023 134.114 28.5566C135.069 28.1109 136.088 27.8881 137.234 27.8881C138.603 27.8881 139.78 28.1109 140.799 28.6203C141.818 29.0978 142.645 29.7344 143.314 30.5939C143.982 31.4216 144.492 32.4084 144.81 33.5226C145.128 34.6368 145.319 35.8464 145.319 37.0879C145.319 38.2658 145.16 39.3799 144.874 40.4623C144.555 41.5446 144.11 42.5314 143.505 43.3591C142.9 44.1867 142.136 44.8552 141.181 45.3646C140.226 45.8739 139.144 46.1286 137.87 46.1286C137.329 46.1286 136.756 46.0649 136.215 45.9694C135.674 45.8739 135.133 45.7148 134.623 45.4919C134.114 45.2691 133.637 44.9826 133.223 44.6324C132.777 44.2822 132.427 43.8684 132.14 43.4228H132.077V52.0496H128.257V28.3656H128.225ZM141.563 37.0243C141.563 36.2603 141.468 35.4963 141.245 34.7641C141.054 34.0319 140.735 33.3953 140.322 32.8223C139.908 32.2493 139.398 31.8036 138.825 31.4534C138.221 31.1033 137.52 30.9441 136.756 30.9441C135.165 30.9441 133.955 31.4853 133.127 32.5994C132.331 33.7136 131.918 35.2098 131.918 37.0561C131.918 37.9474 132.013 38.7433 132.236 39.4754C132.459 40.2076 132.745 40.8443 133.191 41.3854C133.605 41.9266 134.114 42.3404 134.719 42.6587C135.324 42.9771 135.992 43.1362 136.788 43.1362C137.679 43.1362 138.38 42.9453 138.985 42.5951C139.589 42.2449 140.067 41.7674 140.481 41.2262C140.863 40.6533 141.149 40.0166 141.308 39.2844C141.468 38.5204 141.563 37.7883 141.563 37.0243ZM148.28 21.7761L152.1 21.7761V25.3733L148.28 25.3733V21.7761ZM148.28 28.3656H152.1V45.6511H148.28V28.3656ZM155.506 21.7761H159.326V45.6511H155.506V21.7761ZM170.977 46.1286C169.608 46.1286 168.367 45.9057 167.284 45.4282C166.202 44.9507 165.311 44.3459 164.547 43.5501C163.815 42.7543 163.242 41.7674 162.86 40.6533C162.478 39.5391 162.255 38.2976 162.255 36.9924C162.255 35.6873 162.446 34.4776 162.86 33.3634C163.242 32.2493 163.815 31.2943 164.547 30.4666C165.279 29.6708 166.202 29.0341 167.284 28.5884C168.367 28.1428 169.608 27.8881 170.977 27.8881C172.346 27.8881 173.587 28.1109 174.67 28.5884C175.752 29.0341 176.643 29.6708 177.407 30.4666C178.139 31.2624 178.712 32.2493 179.094 33.3634C179.476 34.4776 179.699 35.6873 179.699 36.9924C179.699 38.3294 179.508 39.5391 179.094 40.6533C178.681 41.7674 178.139 42.7224 177.407 43.5501C176.675 44.3459 175.752 44.9826 174.67 45.4282C173.587 45.8739 172.378 46.1286 170.977 46.1286ZM170.977 43.1044C171.805 43.1044 172.569 42.9134 173.174 42.5633C173.81 42.2131 174.288 41.7356 174.702 41.1626C175.115 40.5896 175.402 39.9211 175.593 39.2208C175.784 38.4886 175.879 37.7564 175.879 36.9924C175.879 36.2603 175.784 35.5281 175.593 34.7959C175.402 34.0638 175.115 33.4271 174.702 32.8541C174.288 32.2811 173.778 31.8354 173.174 31.4853C172.537 31.1351 171.805 30.9441 170.977 30.9441C170.149 30.9441 169.385 31.1351 168.781 31.4853C168.144 31.8354 167.666 32.3129 167.253 32.8541C166.839 33.4271 166.552 34.0638 166.361 34.7959C166.17 35.5281 166.075 36.2603 166.075 36.9924C166.075 37.7564 166.17 38.4886 166.361 39.2208C166.552 39.9529 166.839 40.5896 167.253 41.1626C167.666 41.7356 168.176 42.2131 168.781 42.5633C169.417 42.9453 170.149 43.1044 170.977 43.1044ZM180.845 28.3656H183.742V23.145H187.562V28.3338H191V31.1669L187.562 31.1669V40.3986C187.562 40.8124 187.594 41.1308 187.626 41.4491C187.658 41.7356 187.753 41.9902 187.849 42.1812C187.976 42.3722 188.167 42.5314 188.39 42.6269C188.644 42.7224 188.963 42.7861 189.408 42.7861C189.663 42.7861 189.95 42.7861 190.204 42.7543C190.459 42.7224 190.745 42.6906 191 42.6269V45.5874C190.586 45.6511 190.172 45.6829 189.759 45.7147C189.345 45.7784 188.963 45.7784 188.517 45.7784C187.499 45.7784 186.703 45.6829 186.098 45.4919C185.493 45.3009 185.015 45.0144 184.665 44.6643C184.315 44.2823 184.092 43.8366 183.965 43.2954C183.838 42.7542 183.774 42.0857 183.742 41.3854V31.1988H180.845V28.3019V28.3656Z" fill="#01022E"/>
<path d="M45.7444 21.7765L28.268 21.7765L22.8881 5.15955L17.4765 21.7765L0 21.7447L14.134 32.0268L8.72232 48.6438L22.8563 38.3617L36.9903 48.6438L31.6104 32.0268L45.7444 21.7765Z" fill="#00B67A"/>
<path d="M32.8202 35.7829L31.6105 32.0266L22.8882 38.3614L32.8202 35.7829Z" fill="#005128"/>
<rect x="237.372" width="22.7907" height="22.7907" fill="#00B87C"/>
<path d="M256.495 9.69691L250.611 9.69691L248.8 4.10272L246.978 9.69691L241.094 9.68619L245.853 13.1477L244.031 18.7419L248.789 15.2804L253.547 18.7419L251.736 13.1477L256.495 9.69691Z" fill="#FDFEFE"/>
<path d="M252.144 14.4119L251.736 13.1473L248.8 15.2799L252.144 14.4119Z" fill="#4BBD97"/>
<rect x="263.581" width="22.7907" height="22.7907" fill="#00B87C"/>
<path d="M282.704 9.69691L276.82 9.69691L275.009 4.10272L273.187 9.69691L267.304 9.68619L272.062 13.1477L270.24 18.7419L274.999 15.2804L279.757 18.7419L277.946 13.1477L282.704 9.69691Z" fill="#FDFEFE"/>
<path d="M278.353 14.4119L277.946 13.1473L275.009 15.2799L278.353 14.4119Z" fill="#4BBD97"/>
<rect x="289.791" width="22.7907" height="22.7907" fill="#00B87C"/>
<path d="M308.913 9.69691L303.03 9.69691L301.219 4.10272L299.397 9.69691L293.513 9.68619L298.271 13.1477L296.45 18.7419L301.208 15.2804L305.966 18.7419L304.155 13.1477L308.913 9.69691Z" fill="#FDFEFE"/>
<path d="M304.562 14.4119L304.155 13.1473L301.219 15.2799L304.562 14.4119Z" fill="#4BBD97"/>
<rect x="316" width="22.7907" height="22.7907" fill="#00B87C"/>
<path d="M335.122 9.69691L329.239 9.69691L327.428 4.10272L325.606 9.69691L319.722 9.68619L324.48 13.1477L322.659 18.7419L327.417 15.2804L332.175 18.7419L330.364 13.1477L335.122 9.69691Z" fill="#FDFEFE"/>
<path d="M330.771 14.4119L330.364 13.1473L327.428 15.2799L330.771 14.4119Z" fill="#4BBD97"/>
<rect x="342.209" width="22.7907" height="22.7907" fill="#DDDDE5"/>
<rect x="342.209" width="11.3954" height="22.7907" fill="#00B87C"/>
<path d="M361.332 9.69691L355.448 9.69691L353.637 4.10272L351.815 9.69691L345.932 9.68619L350.69 13.1477L348.868 18.7419L353.627 15.2804L358.385 18.7419L356.574 13.1477L361.332 9.69691Z" fill="#FDFEFE"/>
<path d="M356.981 14.4119L356.574 13.1473L353.637 15.2799L356.981 14.4119Z" fill="#E7E7EE"/>
<path d="M238.52 54.2091V42.5727H246.088V44.3398H240.628V47.4989H245.696V49.2659H240.628V52.4421H246.133V54.2091H238.52ZM249.829 45.4818L251.591 48.7034L253.38 45.4818H255.556L252.926 49.8455L255.602 54.2091H253.437L251.591 51.0671L249.761 54.2091H247.579L250.238 49.8455L247.647 45.4818H249.829ZM260.626 54.3796C259.755 54.3796 259.007 54.1883 258.382 53.8057C257.761 53.4231 257.281 52.8947 256.944 52.2205C256.611 51.5424 256.444 50.7621 256.444 49.8796C256.444 48.9932 256.615 48.211 256.956 47.533C257.297 46.8512 257.778 46.3208 258.399 45.9421C259.024 45.5595 259.762 45.3682 260.615 45.3682C261.323 45.3682 261.95 45.4989 262.495 45.7602C263.045 46.0178 263.482 46.3833 263.808 46.8568C264.134 47.3265 264.319 47.8758 264.365 48.5046H262.399C262.319 48.0841 262.13 47.7337 261.831 47.4534C261.535 47.1693 261.139 47.0273 260.643 47.0273C260.223 47.0273 259.853 47.1409 259.535 47.3682C259.217 47.5917 258.969 47.9137 258.791 48.3341C258.617 48.7546 258.529 49.2583 258.529 49.8455C258.529 50.4402 258.617 50.9515 258.791 51.3796C258.965 51.8038 259.209 52.1315 259.524 52.3625C259.842 52.5898 260.215 52.7034 260.643 52.7034C260.946 52.7034 261.217 52.6466 261.456 52.533C261.698 52.4155 261.901 52.247 262.064 52.0273C262.226 51.8076 262.338 51.5405 262.399 51.2262H264.365C264.315 51.8436 264.134 52.3909 263.819 52.8682C263.505 53.3417 263.077 53.7129 262.535 53.9818C261.994 54.247 261.357 54.3796 260.626 54.3796ZM269.917 54.3796C269.042 54.3796 268.287 54.1977 267.65 53.8341C267.018 53.4667 266.531 52.9477 266.19 52.2773C265.849 51.603 265.679 50.8095 265.679 49.8966C265.679 48.9989 265.849 48.211 266.19 47.533C266.535 46.8512 267.016 46.3208 267.633 45.9421C268.251 45.5595 268.976 45.3682 269.809 45.3682C270.347 45.3682 270.855 45.4553 271.332 45.6296C271.813 45.8 272.237 46.0652 272.605 46.425C272.976 46.7849 273.268 47.2432 273.48 47.8C273.692 48.353 273.798 49.0121 273.798 49.7773V50.408H266.645V49.0216H271.826C271.823 48.6277 271.737 48.2773 271.571 47.9705C271.404 47.6599 271.171 47.4155 270.872 47.2375C270.576 47.0595 270.232 46.9705 269.838 46.9705C269.417 46.9705 269.048 47.0727 268.73 47.2773C268.412 47.478 268.163 47.7432 267.985 48.0727C267.811 48.3985 267.722 48.7565 267.718 49.1466V50.3568C267.718 50.8644 267.811 51.3 267.997 51.6637C268.182 52.0235 268.442 52.3 268.775 52.4932C269.109 52.6826 269.499 52.7773 269.946 52.7773C270.245 52.7773 270.516 52.7356 270.758 52.6523C271.001 52.5652 271.211 52.4383 271.389 52.2716C271.567 52.1049 271.701 51.8985 271.792 51.6523L273.713 51.8682C273.592 52.3758 273.36 52.819 273.02 53.1977C272.682 53.5727 272.251 53.8644 271.724 54.0727C271.198 54.2773 270.595 54.3796 269.917 54.3796ZM277.595 42.5727V54.2091H275.538V42.5727H277.595ZM283.574 54.3796C282.699 54.3796 281.943 54.1977 281.306 53.8341C280.674 53.4667 280.187 52.9477 279.846 52.2773C279.505 51.603 279.335 50.8095 279.335 49.8966C279.335 48.9989 279.505 48.211 279.846 47.533C280.191 46.8512 280.672 46.3208 281.289 45.9421C281.907 45.5595 282.632 45.3682 283.466 45.3682C284.003 45.3682 284.511 45.4553 284.988 45.6296C285.469 45.8 285.894 46.0652 286.261 46.425C286.632 46.7849 286.924 47.2432 287.136 47.8C287.348 48.353 287.454 49.0121 287.454 49.7773V50.408H280.301V49.0216H285.483C285.479 48.6277 285.394 48.2773 285.227 47.9705C285.06 47.6599 284.827 47.4155 284.528 47.2375C284.233 47.0595 283.888 46.9705 283.494 46.9705C283.074 46.9705 282.704 47.0727 282.386 47.2773C282.068 47.478 281.82 47.7432 281.642 48.0727C281.467 48.3985 281.378 48.7565 281.375 49.1466V50.3568C281.375 50.8644 281.467 51.3 281.653 51.6637C281.839 52.0235 282.098 52.3 282.431 52.4932C282.765 52.6826 283.155 52.7773 283.602 52.7773C283.901 52.7773 284.172 52.7356 284.414 52.6523C284.657 52.5652 284.867 52.4383 285.045 52.2716C285.223 52.1049 285.358 51.8985 285.449 51.6523L287.369 51.8682C287.248 52.3758 287.017 52.819 286.676 53.1977C286.339 53.5727 285.907 53.8644 285.38 54.0727C284.854 54.2773 284.252 54.3796 283.574 54.3796ZM291.251 49.0955V54.2091H289.194V45.4818H291.16V46.9648H291.262C291.463 46.4762 291.783 46.0879 292.223 45.8C292.666 45.5121 293.213 45.3682 293.865 45.3682C294.467 45.3682 294.992 45.497 295.439 45.7546C295.889 46.0121 296.238 46.3852 296.484 46.8739C296.734 47.3625 296.857 47.9553 296.853 48.6523V54.2091H294.797V48.9705C294.797 48.3871 294.645 47.9307 294.342 47.6012C294.043 47.2716 293.628 47.1068 293.098 47.1068C292.738 47.1068 292.418 47.1864 292.137 47.3455C291.861 47.5008 291.643 47.7262 291.484 48.0216C291.329 48.3171 291.251 48.675 291.251 49.0955ZM303.302 45.4818V47.0727H298.285V45.4818H303.302ZM299.524 43.3909H301.581V51.5841C301.581 51.8606 301.622 52.0727 301.706 52.2205C301.793 52.3644 301.906 52.4629 302.047 52.5159C302.187 52.569 302.342 52.5955 302.512 52.5955C302.641 52.5955 302.759 52.586 302.865 52.5671C302.975 52.5481 303.058 52.5311 303.115 52.5159L303.461 54.1239C303.351 54.1618 303.194 54.2034 302.99 54.2489C302.789 54.2943 302.543 54.3208 302.251 54.3284C301.736 54.3436 301.272 54.2659 300.859 54.0955C300.446 53.9212 300.119 53.6523 299.876 53.2887C299.637 52.925 299.52 52.4705 299.524 51.925V43.3909ZM308.758 52.05V50.3739L313.696 42.5727H315.093V44.9591H314.241L310.917 50.2262V50.3171H317.809V52.05H308.758ZM314.309 54.2091V51.5387L314.332 50.7887V42.5727H316.321V54.2091H314.309ZM320.586 54.3341C320.242 54.3341 319.946 54.2129 319.7 53.9705C319.454 53.728 319.333 53.4326 319.336 53.0841C319.333 52.7432 319.454 52.4515 319.7 52.2091C319.946 51.9667 320.242 51.8455 320.586 51.8455C320.92 51.8455 321.209 51.9667 321.456 52.2091C321.706 52.4515 321.833 52.7432 321.836 53.0841C321.833 53.3152 321.772 53.5254 321.654 53.7148C321.541 53.9042 321.389 54.0557 321.2 54.1693C321.014 54.2792 320.81 54.3341 320.586 54.3341ZM323.988 54.2091L328.937 44.4137V44.3341H323.193V42.5727H331.119V44.3739L326.176 54.2091H323.988ZM337.726 42.0273L333.976 55.9591H332.174L335.924 42.0273H337.726ZM343.061 54.3682C342.303 54.3682 341.625 54.2262 341.027 53.9421C340.428 53.6542 339.953 53.2602 339.601 52.7602C339.252 52.2602 339.066 51.6883 339.044 51.0443H341.089C341.127 51.5216 341.333 51.9118 341.708 52.2148C342.083 52.514 342.534 52.6637 343.061 52.6637C343.474 52.6637 343.841 52.569 344.163 52.3796C344.485 52.1902 344.739 51.9269 344.924 51.5898C345.11 51.2527 345.201 50.8682 345.197 50.4364C345.201 49.997 345.108 49.6068 344.919 49.2659C344.729 48.925 344.47 48.658 344.14 48.4648C343.811 48.2678 343.432 48.1693 343.004 48.1693C342.655 48.1655 342.313 48.2299 341.976 48.3625C341.638 48.4951 341.371 48.6693 341.174 48.8852L339.271 48.5727L339.879 42.5727H346.629V44.3341H341.623L341.288 47.4193H341.356C341.572 47.1655 341.877 46.9553 342.271 46.7887C342.665 46.6182 343.097 46.533 343.566 46.533C344.271 46.533 344.9 46.6996 345.453 47.033C346.006 47.3625 346.441 47.8171 346.76 48.3966C347.078 48.9762 347.237 49.639 347.237 50.3852C347.237 51.1542 347.059 51.8398 346.703 52.4421C346.351 53.0405 345.86 53.5121 345.231 53.8568C344.606 54.1977 343.883 54.3682 343.061 54.3682Z" fill="black"/>
</svg>
