<svg width="95" height="93" viewBox="0 0 95 93" fill="none" xmlns="http://www.w3.org/2000/svg">
<path d="M94.028 46.1925C94.028 71.3128 73.2832 91.6925 47.6739 91.6925C22.0645 91.6925 1.31982 71.3128 1.31982 46.1925C1.31982 21.0722 22.0645 0.692505 47.6739 0.692505C73.2832 0.692505 94.028 21.0722 94.028 46.1925Z" stroke="#101727" stroke-opacity="0.2"/>
<ellipse cx="47.6738" cy="46.1925" rx="36.6684" ry="36" fill="#00B87C"/>
<path d="M35.674 62.1925H58.074C58.9227 62.1925 59.7366 61.8554 60.3367 61.2552C60.9368 60.6551 61.274 59.8412 61.274 58.9925V38.9925L52.474 30.1925H38.874C38.0253 30.1925 37.2113 30.5296 36.6112 31.1298C36.0111 31.7299 35.674 32.5438 35.674 33.3925V39.7925M51.674 30.1925V39.7925H61.274M34.074 50.9925L37.274 54.1925L43.674 47.7925" stroke="white" stroke-width="2" stroke-linecap="round" stroke-linejoin="round"/>
</svg>
