<svg width="95" height="93" viewBox="0 0 95 93" fill="none" xmlns="http://www.w3.org/2000/svg">
<path d="M94.028 46.1925C94.028 71.3128 73.2832 91.6925 47.6739 91.6925C22.0645 91.6925 1.31982 71.3128 1.31982 46.1925C1.31982 21.0722 22.0645 0.692505 47.6739 0.692505C73.2832 0.692505 94.028 21.0722 94.028 46.1925Z" stroke="#101727" stroke-opacity="0.2"/>
<ellipse cx="47.6738" cy="46.1925" rx="36.6684" ry="36" fill="#101727" fill-opacity="0.05"/>
<path d="M61.6738 44.9125V46.2005C61.6721 49.2195 60.6945 52.1571 58.8869 54.5751C57.0793 56.9931 54.5384 58.762 51.6433 59.618C48.7482 60.474 45.654 60.3712 42.8221 59.3249C39.9902 58.2787 37.5723 56.345 35.9292 53.8124C34.286 51.2798 33.5055 48.2838 33.7042 45.2714C33.9028 42.2589 35.0699 39.3914 37.0314 37.0964C38.9929 34.8015 41.6437 33.2021 44.5885 32.5367C47.5333 31.8714 50.6142 32.1758 53.3718 33.4045M43.4738 44.8005L47.6738 49.0005L61.6738 35.0005" stroke="#101727" stroke-width="2" stroke-linecap="round" stroke-linejoin="round"/>
</svg>
