<svg width="465" height="483" viewBox="0 0 465 483" fill="none" xmlns="http://www.w3.org/2000/svg">
<path d="M158.344 368.418C162.578 366.919 166.915 365.731 171.322 364.863L171.855 366.818C171.915 367.049 172.055 367.25 172.251 367.385C172.447 367.521 172.685 367.581 172.922 367.555L190.368 365.523C195.168 354.578 203.981 337.994 204.108 337.74C203.981 333.601 204.108 330.122 204.108 326.16C194.127 329.868 175.664 336.902 166.014 341.397C165.796 341.538 165.627 341.743 165.531 341.985C165.436 342.226 165.418 342.491 165.481 342.743C165.481 342.743 165.658 343.378 165.887 344.292C161.163 344.292 147.018 343.607 143.615 346.832C143.086 347.569 142.826 348.466 142.879 349.371C142.675 352.876 144.428 380.1 147.221 388.1C148.669 392.29 151.716 391.833 153.799 387.821C156.209 381.778 157.756 375.426 158.395 368.952C158.395 368.621 158.319 368.647 158.344 368.418ZM155.424 345.689C158.522 345.435 159.487 345.486 166.141 345.283C167.335 349.803 169.798 359.098 171.068 363.847C166.587 364.541 162.164 365.568 157.837 366.92C156.488 359.915 155.681 352.817 155.424 345.689Z" fill="black"/>
<path d="M392.087 123.426C392.722 122.537 391.909 121.394 391.223 120.505C393.165 118.507 395.32 116.728 397.648 115.198C401.577 113.239 405.169 110.668 408.289 107.579C409.584 106.233 412.022 103.465 411.108 101.839C410.194 100.214 408.568 100.113 406.359 101.052C407.316 100.047 408.098 98.8882 408.67 97.6238C409.381 95.6429 407.705 94.043 404.073 95.516C405.394 93.4081 405.699 91.1987 403.464 90.1321C401.661 89.2686 399.02 91.3257 397.496 92.6716C394.504 95.2859 391.695 98.103 389.09 101.103C387.49 97.7508 384.95 93.8906 381.776 95.1096C378.602 96.3286 381.065 101.789 382.69 104.76L376.925 108.747C376.054 108.277 375.07 108.057 374.081 108.112C367.529 109.23 337.435 132.137 334.388 132.137C332.051 132.137 298.681 116.137 269.832 111.515C269.776 111.342 269.673 111.188 269.533 111.072C269.394 110.955 269.225 110.88 269.044 110.855C264.012 109.996 258.911 109.614 253.807 109.712C253.652 109.723 253.502 109.767 253.366 109.841C253.23 109.916 253.112 110.019 253.02 110.144H250.887C250.379 108.087 248.499 103.338 247.839 101.509C249.566 100.011 251.953 99.2491 253.198 96.8365C255.483 92.3669 255.382 84.5958 254.747 79.6182C257.616 77.4342 257.693 73.9296 257.032 70.3488C256.778 68.9012 255.991 65.6252 254.772 64.8125C254.086 64.3554 252.639 64.8125 251.394 65.2697C250.15 62.3745 250.15 63.6951 250.658 62.5269C250.894 61.9885 251.031 61.4123 251.064 60.8254C252.41 61.2317 255.204 58.5398 254.239 54.9844C253.733 53.7116 253.113 52.4876 252.385 51.3274C252.74 50.464 253.502 49.4227 251.115 46.2483C250.087 45.1393 248.752 44.3613 247.28 44.0135H246.112C245.27 42.7901 244.032 41.8934 242.607 41.4739C240.457 40.9254 238.176 41.2447 236.259 42.3627C235.751 42.7437 235.344 43.2516 234.836 43.6071C233.688 42.9098 232.37 42.5411 231.027 42.5411C229.684 42.5411 228.366 42.9098 227.218 43.6071C226.545 43.8709 225.934 44.2678 225.419 44.7741C224.904 45.2803 224.496 45.8854 224.221 46.553C222.977 46.1237 221.657 45.9584 220.345 46.0677C219.033 46.177 217.758 46.5585 216.602 47.1879C212.215 49.5668 208.934 53.5686 207.46 58.3366C207.419 59.0556 207.419 59.7763 207.46 60.4953H207.18C203.371 59.9366 198.521 68.9774 202.406 76.012C202.863 76.8501 203.447 77.6374 204.006 78.5516C205.631 81.0912 204.996 81.8531 208.628 84.9513C209.695 85.8656 209.872 85.7894 210.533 86.3481C211.193 86.9068 210.939 86.6275 211.32 88.0496C211.528 88.8874 211.899 89.6756 212.414 90.3688C212.928 91.0619 213.575 91.6461 214.317 92.0875C214.587 94.5715 215.646 96.9036 217.339 98.7412C217.875 99.3412 218.5 99.8551 219.193 100.265C219.379 100.37 219.588 100.431 219.802 100.443C220.564 105.166 221.504 111.312 221.91 113.928L219.65 115.147C216.693 116.337 213.817 117.72 211.041 119.286C210.823 119.437 210.669 119.663 210.609 119.921C207.917 121.343 205.377 122.689 203.93 123.553C183.766 135.514 126.498 214.368 125.914 217.974C125.85 218.181 125.85 218.402 125.914 218.609C126.735 219.919 127.735 221.107 128.885 222.139C128.531 222.786 128.105 223.39 127.616 223.942C122.537 227.269 114.918 232.221 110.829 236.64C110.542 236.896 110.327 237.222 110.205 237.586C110.083 237.95 110.057 238.34 110.132 238.717C110.206 239.094 110.378 239.445 110.629 239.735C110.88 240.026 111.203 240.245 111.566 240.373C112.327 240.627 112.454 240.551 117.407 237.834C116.046 239.027 114.933 240.477 114.131 242.1C113.8 243.497 115.07 244.309 116.67 244.055C117.57 243.819 118.428 243.442 119.21 242.938C118.752 243.645 118.508 244.47 118.508 245.313C118.508 246.155 118.752 246.98 119.21 247.687C121.749 250.887 128.403 240.805 131.908 238.316C133.33 240.119 135.26 244.335 138.333 243.217C140.999 242.227 138.079 236.361 138.333 234.659C139.366 233.667 140.469 232.75 141.634 231.916C143.593 233.369 145.833 234.398 148.212 234.938C152.402 234.938 196.133 190.801 199.46 187.271C198.267 198.496 192.248 246.671 193.518 256.042C194.102 260.283 204.285 260.893 208.577 261.121C207.282 291.596 206.419 337.766 206.19 338.248C199.46 352.749 197.632 356.711 195.371 361.104C191.257 368.977 173.937 398.03 171.982 404.633C171.703 405.674 171.677 406.08 172.769 408.01C169.497 411.451 166.459 415.108 163.678 418.956C162.281 421.495 168.274 445.164 172.515 453.545C173.48 455.424 175.055 458.319 177.163 458.243C183.512 458.014 183.486 435.209 183.309 428.835C183.307 428.638 183.235 428.449 183.105 428.301C184.256 426.584 185.511 424.938 186.864 423.375C187.671 423.93 188.52 424.423 189.403 424.848C190.267 425.229 191.232 424.568 191.943 423.984C200.4 417.33 246.011 360.495 255.788 333.677C260.232 321.436 266.149 304.523 267.825 292.536C268.85 284.957 268.944 277.281 268.105 269.68C268.105 269.572 268.148 269.469 268.224 269.392C268.3 269.316 268.403 269.273 268.511 269.273C268.619 269.273 268.722 269.316 268.798 269.392C268.875 269.469 268.917 269.572 268.917 269.68C270.189 277.325 270.437 285.105 269.654 292.815C267.775 309.449 254.645 344.115 247.636 356.863C253.68 355.746 265.972 353.308 271.914 351.53C291.723 345.511 310.008 327.557 311.608 307.392C312.125 297.893 312.125 288.372 311.608 278.873C311.436 265.759 309.732 252.71 306.529 239.992C311.912 237.072 316.839 233.643 318.439 230.494C321.868 223.764 312.801 185.036 310.82 174.166C321.664 175.36 340.127 177.519 348.736 170.789C358.59 162.865 379.871 140.568 392.087 123.426ZM181.937 427.438C177.366 424.67 170.966 418.092 170.001 412.937C171.042 411.616 172.134 410.397 173.15 409.026C176.592 414.278 180.883 418.921 185.848 422.765C184.453 424.244 183.147 425.804 181.937 427.438ZM383.833 105.471C383.964 105.387 384.059 105.256 384.096 105.105C384.134 104.954 384.113 104.794 384.036 104.658C383.147 103.008 380.481 97.1921 382.335 96.5318C383.401 96.1255 384.341 96.7857 385.128 97.6746C386.33 99.1997 387.266 100.917 387.896 102.754C387.943 102.903 388.03 103.037 388.147 103.141C388.265 103.244 388.408 103.314 388.562 103.343C388.716 103.372 388.874 103.358 389.021 103.304C389.168 103.249 389.297 103.155 389.395 103.033C391.934 100.214 397.877 93.789 401.229 92.0621C403.769 90.7416 404.378 93.1796 398.156 98.8682C396.727 99.9579 395.354 101.119 394.042 102.347C393.97 102.447 393.931 102.567 393.931 102.69C393.931 102.813 393.97 102.933 394.042 103.033C394.042 103.693 394.575 104.43 395.49 103.744C397.697 101.806 400.03 100.016 402.474 98.3857C403.721 97.4997 405.17 96.9409 406.689 96.7603C405.927 99.0968 398.842 105.446 398.232 106.157C398.039 106.33 397.922 106.572 397.905 106.831C397.889 107.09 397.975 107.346 398.144 107.542C398.314 107.738 398.554 107.86 398.813 107.881C399.072 107.902 399.328 107.821 399.528 107.655C402.347 105.827 407.273 101.56 408.975 102.195C410.676 102.83 405.623 107.554 404.353 108.671C397.064 114.994 398.944 110.931 390.512 119.515C386.842 115.495 382.628 112.007 377.992 109.153L383.833 105.471ZM273.489 226.939C273.057 223.434 272.524 219.65 271.863 215.714L272.955 214.266C278.035 207.74 279.558 197.353 279.076 189.201C281.793 201.111 283.952 212.819 285.602 224.45L273.489 226.939ZM235.725 139.984C229.046 134.905 218.304 126.143 212.056 120.15L222.215 115.071C231.543 123.784 239.527 133.831 245.909 144.885C255.666 162.81 262.905 181.996 267.419 201.899L231.205 150.675L235.928 140.873C235.991 140.722 236.005 140.555 235.969 140.396C235.932 140.237 235.847 140.093 235.725 139.984ZM252.893 111.185C253.045 111.464 254.797 115.198 257.464 121.724C257.464 122.004 256.981 128.353 256.753 130.587C253.512 129.303 250.455 127.595 247.661 125.508C248.22 123.299 250.734 113.268 250.912 111.007L252.893 111.185ZM243.877 138.46C244.055 138.003 244.233 137.393 244.436 136.682L246.137 137.571C247.103 138.206 246.722 136.276 247.585 141.863C247.585 142.803 247.839 143.844 247.89 144.987C246.722 142.879 245.274 140.619 243.903 138.46H243.877ZM242.455 136.327C237.657 129.522 232.196 123.21 226.151 117.483L245.274 125.788C244.538 127.54 243.471 132.898 242.481 136.327H242.455ZM261.984 151.209C259.445 144.276 257.489 136.53 256.524 134.498C256.582 133.865 256.582 133.227 256.524 132.594C256.892 132.73 257.276 132.816 257.667 132.848C257.912 132.85 258.15 132.765 258.337 132.606C258.523 132.447 258.646 132.226 258.683 131.984C258.886 131.146 259.216 126.905 259.267 125.965C266.655 144.617 272.822 163.73 277.73 183.182C263.381 152.656 265.591 161.494 262.01 151.209H261.984ZM282.987 199.689C277.196 171.932 267.013 137.317 255.432 111.668C259.685 111.67 263.931 112.01 268.13 112.683C270.289 131.984 268.486 131.324 269.933 132.086C271.381 132.848 280.092 136.352 281.387 136.886C281.26 138.841 283.088 194.762 283.012 199.689H282.987ZM253.756 66.4379C255.08 69.327 255.547 72.5352 255.102 75.6819C254.895 76.4828 254.47 77.2106 253.875 77.7843C253.279 78.358 252.536 78.7551 251.727 78.9315C250.919 79.1078 250.078 79.0565 249.298 78.7832C248.517 78.5099 247.827 78.0253 247.306 77.3834C246.094 74.8308 245.182 72.1463 244.588 69.3838C245.274 68.4949 252.588 66.7172 253.756 66.4379ZM218.812 91.8336C217.884 91.4112 216.935 91.0382 215.967 90.7162C215.318 90.4494 214.739 90.0375 214.274 89.512C213.808 88.9866 213.469 88.3616 213.283 87.685C213.097 87.0083 213.068 86.298 213.199 85.6084C213.329 84.9189 213.616 84.2685 214.037 83.707C215.637 82.361 217.085 82.4372 218.405 84.4434C219.243 85.9926 219.218 86.1195 219.599 86.2719C219.708 86.3201 219.827 86.3443 219.946 86.343C220.065 86.3417 220.183 86.315 220.291 86.2645C220.4 86.214 220.496 86.1409 220.573 86.0502C220.651 85.9595 220.708 85.8533 220.742 85.7386C221.118 84.149 221.179 82.5009 220.92 80.888C220.615 79.1357 220.564 71.3646 220.615 71.1107C221.357 71.5017 222.19 71.6859 223.027 71.644C227.624 71.4662 228.538 69.1044 230.367 67.1743C232.475 67.3775 232.906 68.3933 235.294 67.1743C236.411 66.5385 237.437 65.7524 238.341 64.8379C239.071 65.1368 239.776 65.4934 240.449 65.9046C241.971 66.6365 243.687 66.8613 245.347 66.5459C247.006 66.2305 248.52 65.3916 249.668 64.1523C249.947 64.6856 250.201 65.2189 250.429 65.7776C248.096 66.5017 245.899 67.6088 243.928 69.0536C243.496 69.5869 244.131 72.482 244.284 73.1677C242.156 73.4354 240.098 74.0986 238.214 75.1232C237.833 73.8026 236.995 71.3392 235.674 70.6535C235.277 70.532 234.853 70.532 234.455 70.6535C232.17 71.0091 223.967 73.4725 222.977 74.8185C222.113 75.7581 224.577 83.0213 225.338 84.2149C228.259 88.7353 236.817 87.4147 238.417 82.1324C238.813 80.3596 238.813 78.5213 238.417 76.7485C239.154 76.7485 241.363 75.9613 241.617 75.8851C243.369 79.8214 243.877 80.05 245.909 84.2911C245.63 84.5196 245.172 84.9006 244.792 85.1545C242.988 86.3481 242.607 86.1449 242.709 86.6529C242.739 86.7537 242.804 86.8402 242.893 86.8963C242.982 86.9524 243.088 86.9742 243.192 86.9576C244.257 86.8053 245.299 86.5151 246.29 86.0942C246.883 85.8729 247.372 85.4382 247.661 84.8752C248.372 83.2752 244.436 77.2564 242.887 75.4533C243.192 75.4533 243.903 74.9454 244.436 74.6661C245.147 77.5104 245.63 79.7452 248.372 80.8626C249.165 81.1619 250.01 81.2981 250.856 81.2632C251.703 81.2283 252.534 81.023 253.299 80.6595C253.705 85.1291 253.629 92.3923 251.496 96.354C250.404 98.4111 247.712 99.1983 245.985 100.9C245.477 101.382 245.807 102.068 245.985 102.805C248.804 110.652 248.855 110.626 248.702 111.642C247.955 115.858 246.911 120.017 245.579 124.086C244.944 123.807 237.808 120.023 223.84 114.588C223.408 111.718 221.097 96.4048 220.361 93.5859C220.412 92.5955 220.285 92.3669 218.812 91.7066V91.8336ZM236.589 81.4721C235.776 84.2403 231.941 85.4339 229.199 84.672C226.456 83.9101 226.278 82.5134 224.983 79.2119C224.376 77.9507 223.957 76.6074 223.738 75.2248C224.577 74.3105 233.744 72.4313 234.887 72.2535C236.49 74.9955 237.092 78.209 236.589 81.3451V81.4721ZM137.215 233.948C136.25 234.888 137.545 237.961 137.749 240.627C137.749 240.856 137.749 241.846 137.596 241.922C136.199 242.379 134.904 240.272 134.117 239.002C133.33 237.732 132.542 236.005 131.298 236.462C128.759 237.656 122.867 245.478 120.556 246.29C119.387 244.055 126.067 237.681 126.295 237.326C126.393 237.162 126.444 236.975 126.444 236.785C126.443 236.595 126.39 236.408 126.29 236.246C126.191 236.083 126.048 235.951 125.879 235.864C125.71 235.777 125.52 235.738 125.33 235.751C124.873 235.751 124.568 236.157 123.857 236.792C121.694 238.903 119.219 240.668 116.518 242.024C118.967 239.214 121.587 236.56 124.365 234.075C124.502 233.934 124.599 233.758 124.644 233.567C124.644 233.567 124.111 232.221 123.07 232.754C121.597 233.567 114.435 237.707 112.175 238.773C111.87 238.57 112.048 238.265 112.175 237.961C115.756 233.567 123.629 228.234 128.454 224.856C129.02 224.273 129.491 223.605 129.851 222.875C133.192 225.985 136.757 228.845 140.517 231.434C139.359 232.193 138.255 233.033 137.215 233.948ZM196.311 257.033C195.752 256.677 195.346 256.347 195.27 255.89C193.873 245.528 201.644 186.814 201.517 184.503C201.517 184.367 201.49 184.233 201.438 184.108C201.385 183.983 201.308 183.87 201.211 183.775C201.114 183.68 200.999 183.606 200.873 183.557C200.746 183.507 200.612 183.483 200.476 183.487C199.181 183.487 201.466 183.487 169.112 214.469C166.979 216.476 150.675 232.069 147.958 233.11C144.225 232.831 130.181 221.631 127.895 218.101C132.314 209.162 185.899 135.616 204.438 124.365C205.86 123.502 208.298 122.156 210.964 120.734C211.887 121.604 212.88 122.394 213.936 123.096C219.828 128.683 228.03 135.641 234.252 140.873L229.402 150.498C229.328 150.625 229.289 150.77 229.289 150.917C229.289 151.064 229.328 151.208 229.402 151.336C268.79 207.841 268.206 207.206 268.46 207.206C270.985 220.264 272.556 233.487 273.159 246.773C273.159 250.354 273.159 250.049 273.311 249.795C273.463 249.541 273.311 249.973 273.311 249.973C267.165 256.677 206.342 262.924 196.311 257.033ZM336.699 172.897C325.194 174.497 312.192 172.109 309.678 172.008C308.28 165.238 305.496 158.83 301.5 153.19C301.439 153.107 301.349 153.051 301.249 153.032C301.148 153.014 301.044 153.033 300.957 153.088C300.871 153.143 300.808 153.228 300.781 153.327C300.755 153.426 300.767 153.531 300.814 153.621C302.287 156.618 307.214 169.544 308.433 172.694C308.052 173.913 319.912 222.952 316.56 229.555C313.563 235.523 296.116 243.04 289.818 245.198C288.573 231.06 286.538 217.003 283.723 203.092C284.587 195.778 283.469 152.301 283.139 136.225C283.129 136.038 283.067 135.858 282.959 135.705C282.851 135.553 282.702 135.434 282.53 135.362L271.127 130.562C271.075 124.527 270.694 118.499 269.984 112.506C298.453 117.432 331.619 133.711 334.388 133.736C338.4 133.736 368.215 110.88 374.386 109.966C377.129 109.534 388.912 119.82 390.284 122.664C378.246 139.476 357.091 161.57 347.289 169.214C344.131 171.326 340.485 172.593 336.699 172.897Z" fill="black"/>
<path d="M233.973 76.393C233.942 76.2262 233.877 76.0673 233.784 75.9254C233.691 75.7835 233.571 75.6613 233.431 75.5657C233.29 75.4702 233.133 75.4033 232.966 75.3688C232.8 75.3342 232.629 75.3328 232.462 75.3644C232.295 75.3961 232.137 75.4603 231.995 75.5534C231.853 75.6465 231.73 75.7666 231.635 75.9069C231.539 76.0472 231.472 76.205 231.438 76.3712C231.403 76.5374 231.402 76.7087 231.434 76.8755C231.942 79.415 232.043 79.9991 233.161 79.9991C233.372 79.9999 233.58 79.9479 233.766 79.848C233.952 79.748 234.11 79.6032 234.226 79.4267C234.342 79.2502 234.412 79.0475 234.43 78.8371C234.448 78.6266 234.413 78.415 234.329 78.2215C234.253 77.8151 234.024 76.6215 233.973 76.393ZM241.744 93.2049C243.395 93.6874 244.97 92.9002 244.919 92.4938C244.868 92.0875 244.919 92.2907 242.684 91.4526C241.186 90.8939 239.535 88.913 238.951 89.2178C238.367 89.5225 239.255 91.1479 239.459 91.4526C240.002 92.2769 240.807 92.8942 241.744 93.2049ZM288.193 69.079C284.866 83.0212 282.428 94.8557 282.022 97.2175C281.752 98.245 281.7 99.3177 281.87 100.367C283.215 103.236 300.612 108.899 302.821 107.782C305.03 106.665 310.77 93.7382 317.449 80.4055C321.541 80.5362 325.635 80.2383 329.664 79.5166C333.907 78.7382 338.036 77.433 341.956 75.6311C350.54 71.6694 359.936 54.705 361.206 46.1721C362.158 36.9078 360.196 27.5773 355.593 19.4812C334.286 -17.4696 271.787 2.41524 276.867 43.4547C278.317 52.8453 282.225 61.6855 288.193 69.079ZM303.684 99.3253C303.684 99.7316 303.227 99.6808 301.145 99.3253C296.885 98.79 292.761 97.4727 288.98 95.4398C287.203 94.4747 286.72 94.2715 286.898 93.8398C287.076 93.4081 287.457 93.5605 290.199 94.3223C290.453 94.3223 298.326 96.8619 300.586 97.6492C303.507 98.9697 303.684 98.9697 303.684 99.3253ZM303.227 58.0065C305.939 58.1471 308.642 57.5874 311.075 56.3811C313.336 57.4766 315.782 58.1398 318.287 58.3366C314.02 66.2855 305.361 82.4879 302.567 91.1225L291.799 88.1512C294.339 81.9038 299.951 67.2759 303.177 58.0065H303.227ZM302.338 55.8986C300.443 55.6122 298.693 54.7119 297.358 53.3357C296.023 51.9595 295.177 50.1835 294.948 48.2799C294.237 43.2008 297.488 37.5121 302.389 38.8581C305.462 39.6962 305.843 42.1341 305.31 45.207C304.853 47.4418 303.202 53.0543 302.288 55.797L302.338 55.8986ZM309.246 49.8036C309.517 48.1419 310.141 46.5573 311.075 45.1562C311.519 44.3925 312.168 43.7687 312.95 43.3556C313.731 42.9426 314.612 42.757 315.493 42.8198C317.373 43.3785 318.185 46.9339 316.636 49.1688C315.147 51.1445 313.294 52.8169 311.176 54.0955C310.447 53.6678 309.867 53.0273 309.513 52.2601C309.159 51.4929 309.048 50.6357 309.195 49.8036H309.246ZM285.907 17.5257C297.285 3.83741 318.693 -1.59728 334.159 4.04057C342.561 6.92461 349.628 12.7642 354.044 20.4716C358.423 28.1755 360.295 37.0511 359.403 45.8673C358.234 53.7654 349.244 70.171 341.346 73.8026C334.125 77.0965 326.246 78.6948 318.312 78.4754C317.449 78.4754 316.535 78.4754 316.204 79.0849C314.706 82.1324 311.963 88.0242 309.271 93.5605C307.413 92.6629 305.485 91.9156 303.507 91.3256C306.453 82.8943 315.747 66.3363 320.166 58.3112C323.995 58.6392 327.844 57.9745 331.34 56.3811C332.285 55.8838 333.068 55.1274 333.598 54.2005C334.128 53.2737 334.383 52.2149 334.332 51.1484C334.282 50.082 333.928 49.0521 333.312 48.1796C332.697 47.3072 331.845 46.6284 330.858 46.2229C326.921 44.2928 323.391 48.9148 321.334 52.8003C320.776 53.8162 320.141 55.0098 319.43 56.3557C317.376 56.2208 315.35 55.802 313.411 55.1113C315.342 53.7541 317.055 52.1098 318.49 50.2354C319.294 49.0211 319.702 47.5873 319.656 46.1317C319.611 44.676 319.114 43.2704 318.236 42.1087C317.546 41.3075 316.588 40.7855 315.541 40.6405C314.493 40.4956 313.429 40.7377 312.548 41.3215C310.769 42.4143 309.344 43.9973 308.443 45.8803C307.542 47.7633 307.203 49.8663 307.468 51.9369C307.744 53.1057 308.374 54.1609 309.271 54.959C307.606 55.6489 305.817 55.9944 304.015 55.9748C305.03 52.9781 306.681 47.5688 307.113 45.3594C307.384 44.0998 307.444 42.8039 307.291 41.5246C307.094 40.4264 306.585 39.4083 305.823 38.5929C305.062 37.7774 304.081 37.1993 302.999 36.928C296.828 35.1757 292.282 42.0072 293.171 48.3815C293.422 50.6658 294.402 52.8084 295.966 54.4918C297.531 56.1751 299.596 57.3096 301.856 57.7271C298.605 66.8696 293.526 81.6245 290.987 87.9226L285.4 86.4751C288.98 68.4949 289.412 68.9266 288.904 68.6981C283.134 61.341 279.442 52.5712 278.213 43.3023C277.614 38.7064 277.99 34.0359 279.316 29.5947C280.641 25.1536 282.887 21.0414 285.907 17.5257ZM321.157 56.5081C322.934 53.2829 326.49 46.2229 329.944 47.9498C330.634 48.2281 331.236 48.6898 331.684 49.285C332.131 49.8803 332.408 50.5865 332.483 51.3274C332.432 55.797 325.474 56.5843 321.055 56.5081H321.157ZM418.371 67.7076C421.432 65.9078 425.046 65.2933 428.53 65.9807C432.356 66.0492 436.011 67.579 438.745 70.2565C441.479 72.934 443.085 76.5562 443.234 80.3801C440.933 79.0451 438.243 78.5429 435.615 78.9579C429.241 79.5166 420.911 82.9705 422.028 89.1162C422.943 94.1954 429.647 93.5097 434.726 92.1383C439.805 90.7669 443.843 88.2782 444.885 83.3768C451.056 87.8718 452.503 95.7445 452.757 103.439C452.757 103.547 452.8 103.651 452.876 103.727C452.952 103.803 453.056 103.846 453.164 103.846C453.271 103.846 453.375 103.803 453.451 103.727C453.527 103.651 453.57 103.547 453.57 103.439C453.748 94.8302 452.199 86.3989 445.164 81.4975C445.236 79.2926 444.861 77.0959 444.059 75.0405C443.258 72.9851 442.048 71.1136 440.502 69.5395C438.957 67.9654 437.108 66.7213 435.067 65.8826C433.027 65.0439 430.837 64.628 428.631 64.6601C425.106 64.1453 421.512 64.8822 418.473 66.7426C417.533 67.1997 417.965 67.8854 418.371 67.7076ZM441.532 85.9164C438.663 89.6749 430.536 91.6304 426.777 90.9955C425.381 90.7669 424.238 90.1828 423.933 88.7353C423.019 83.6561 431.78 80.888 437.012 80.7102C439.142 80.5469 441.267 81.0915 443.056 82.2594C442.864 83.5871 442.34 84.8449 441.532 85.9164ZM406.74 38.02C409.458 34.6678 407.629 28.8268 400.036 28.8014C397.09 28.8014 395.668 31.7981 395.871 34.6678C396.328 41.4992 404.023 41.2961 406.74 38.02ZM397.649 34.5408C397.649 32.8647 398.436 30.6807 400.188 30.7061C404.277 30.7061 406.156 32.6107 406.156 34.7186C406.055 39.5184 397.318 42.0072 397.649 34.5408ZM396.607 322.452C374.284 313.538 363.923 356.685 345.689 393.763C345.574 395.322 345.625 396.888 345.841 398.436C345.841 402.322 346.273 428.047 348.533 430.968C349.143 432.136 351.708 430.968 352.901 430.231C363.039 423.956 372.592 416.782 381.446 408.797C381.522 408.711 381.579 408.61 381.613 408.501C381.648 408.392 381.661 408.277 381.649 408.163C386.373 401.433 404.074 366.387 408.366 348.813C411.362 336.369 408.391 327.099 396.607 322.452ZM404.582 354.705C392.631 353.173 381.077 349.399 370.526 343.581C376.469 332.331 383.808 319.506 395.922 324.331C409.407 329.69 409.127 340.788 404.582 354.628V354.705ZM362.323 420.733C361.543 420.08 360.691 419.517 359.784 419.057C356.352 417.313 352.387 416.931 348.686 417.991C348.432 414.969 346.984 395.312 346.984 395.135C366.005 402.093 360.139 399.071 378.983 408.442C377.002 410.321 369.561 415.527 362.323 420.683V420.733ZM375.427 347.238C377.904 348.591 380.447 349.82 383.046 350.921C377.225 360.064 372.081 369.621 367.656 379.516C363.39 388.43 363.542 388.379 359.199 398.106C356.66 397.293 354.12 396.531 351.581 395.769C354.323 390.309 373.827 350.387 375.427 347.187V347.238ZM360.19 398.36C368.443 383.554 376.849 365.142 384.062 351.251C386.601 352.317 389.141 353.181 391.681 353.943C390.335 356.482 386.398 363.238 385.357 365.193C384.316 367.148 373.878 387.719 373.142 389.294C371.973 391.833 368.774 398.918 367.783 401.179C365.193 400.036 362.704 399.172 360.088 398.309L360.19 398.36ZM368.697 401.509C370.247 398.69 376.621 386.856 377.408 385.332C378.602 382.97 391.909 355.771 392.646 354.197C394.982 354.857 397.445 355.416 399.02 355.72C394.372 368.418 380.989 392.874 376.164 404.937C371.77 402.88 370.78 402.372 368.596 401.458L368.697 401.509ZM370.247 344.318L374.792 346.857C365.632 362.458 357.652 378.723 350.92 395.515L347.111 394.347C361.866 362.907 362.552 358.793 370.145 344.267L370.247 344.318ZM380.71 407.147L376.875 405.318C381.014 397.192 393.966 376.342 399.883 355.898C401.306 356.152 402.702 356.381 404.048 356.558C397.522 373.972 389.686 390.866 380.608 407.096L380.71 407.147ZM301.145 423.629C302.157 422.791 302.881 421.656 303.213 420.384C303.546 419.113 303.471 417.77 302.999 416.543C302.783 414.774 301.972 413.13 300.698 411.883C299.424 410.637 297.764 409.861 295.99 409.683C294.216 409.506 292.435 409.938 290.939 410.908C289.444 411.877 288.323 413.328 287.761 415.019C284.511 412.912 280.981 410.677 277.603 408.543C280.143 405.166 287.609 406.664 288.371 409.432C288.388 409.54 288.447 409.637 288.535 409.701C288.623 409.765 288.733 409.792 288.841 409.775C288.948 409.758 289.045 409.699 289.109 409.611C289.174 409.523 289.2 409.413 289.183 409.305C288.803 404.886 279.609 402.296 275.902 407.502C272.625 405.496 268.562 403.058 265.159 401.204C268.08 398.665 274.606 400.087 275.317 402.728C275.351 402.818 275.415 402.894 275.499 402.941C275.583 402.988 275.681 403.004 275.776 402.986C275.87 402.967 275.955 402.916 276.016 402.841C276.076 402.766 276.107 402.672 276.105 402.576C275.775 398.461 267.267 395.693 263.407 400.214C261.789 399.307 260.089 398.559 258.328 397.979C258.006 397.845 257.653 397.808 257.31 397.871C256.968 397.934 256.651 398.095 256.398 398.334C249.972 406.334 228.31 427.108 218.304 429.52C218.052 429.558 217.815 429.662 217.617 429.82C217.418 429.979 217.264 430.187 217.172 430.424C217.079 430.661 217.05 430.918 217.089 431.17C217.127 431.421 217.231 431.658 217.39 431.857C219.587 434.087 222.103 435.978 224.856 437.469C222.317 440.009 220.336 442.294 218.863 443.945C218.101 444.758 217.695 460.3 218.355 463.728C218.453 464.064 218.67 464.353 218.964 464.541C222.164 466.725 263.381 484.553 267.597 482.166C270.416 480.566 304.065 445.545 304.599 444.478C305.411 442.802 305.132 431.628 305.081 427.159C304.878 425.813 302.364 424.365 301.145 423.629ZM219.879 457.176V451.513C230.418 456.592 254.544 466.954 263.686 469.849C266.023 470.611 266.226 470.509 267.445 469.849C274.429 465.379 299.088 437.596 303.608 433.355V438.714C289.895 452.453 266.607 476.528 266.175 475.156C263.661 475.004 222.063 458.192 219.879 457.176ZM300.51 415.07C301.423 416.608 301.914 418.361 301.932 420.149C301.923 420.718 301.784 421.278 301.524 421.784C301.264 422.291 300.891 422.731 300.434 423.07C298.301 421.648 294.263 419.007 289.488 415.908C292.104 410.753 297.92 410.677 300.408 415.07H300.51ZM219.244 431.323C230.062 428.124 250.607 408.315 257.515 399.731C259.178 400.194 260.78 400.85 262.289 401.687C259.75 406.41 262.467 411.591 263.432 410.854C263.966 410.448 263 410.296 262.848 407.807C262.783 405.989 263.195 404.186 264.042 402.576C267.546 404.404 271.66 406.791 275.14 408.797C273.006 413.546 275.571 418.245 276.46 417.559C277.349 416.873 276.054 417.026 275.902 414.537C275.84 412.905 276.152 411.28 276.816 409.788C280.397 411.896 284.054 414.08 287.406 416.137C286.889 417.402 286.684 418.773 286.808 420.134C286.932 421.496 287.381 422.807 288.117 423.959C288.15 424.002 288.192 424.038 288.239 424.066C288.287 424.093 288.339 424.111 288.393 424.118C288.447 424.125 288.502 424.121 288.555 424.107C288.608 424.093 288.658 424.068 288.701 424.035C288.744 424.001 288.781 423.96 288.808 423.913C288.835 423.865 288.853 423.813 288.86 423.759C288.867 423.704 288.863 423.649 288.849 423.596C288.835 423.544 288.81 423.494 288.777 423.451C288.321 422.442 288.095 421.344 288.117 420.237C288.139 419.129 288.408 418.041 288.904 417.051C294.821 420.657 299.596 423.679 301.069 424.67C300.789 424.924 274.302 448.491 265.286 455.5C259.369 453.951 228.31 438.536 219.244 431.323ZM220.209 445.469C231.713 450.548 257.845 462.332 263.864 463.474C264.905 463.678 265.311 463.754 267.292 462.179C275.749 455.399 303.253 426.625 303.507 426.93C303.519 427.006 303.519 427.083 303.507 427.159V432.238C297.843 436.783 266.353 469.849 265.845 468.274C263.305 468.274 222.037 451.437 219.929 450.497C219.879 449.431 220.107 446.586 220.209 445.469ZM266.454 480.464C263.915 481.912 225.237 466.192 220.056 462.992C219.862 461.374 219.768 459.745 219.777 458.116C230.9 463.601 263.254 477.264 266.226 477.137C270.568 476.909 301.272 442.345 303.456 439.933C303.481 441.23 303.353 442.525 303.075 443.793C302.643 444.631 268.13 479.525 266.454 480.464ZM56.0508 337.309C56.2286 340.026 56.3556 342.388 56.3556 344.597C56.3556 344.934 56.4894 345.257 56.7275 345.495C56.9656 345.733 57.2886 345.867 57.6254 345.867C57.9621 345.867 58.2851 345.733 58.5232 345.495C58.7614 345.257 58.8951 344.934 58.8951 344.597C58.8951 342.235 58.7682 339.899 58.5904 337.131C58.5668 336.794 58.4104 336.48 58.1556 336.259C57.9008 336.037 57.5685 335.926 57.2317 335.95C56.895 335.973 56.5813 336.13 56.3599 336.385C56.1384 336.639 56.0272 336.972 56.0508 337.309ZM443.005 286.39C442.839 286.4 442.677 286.442 442.528 286.516C442.379 286.589 442.246 286.691 442.137 286.817C442.028 286.942 441.946 287.088 441.894 287.246C441.843 287.404 441.823 287.571 441.837 287.736C441.989 290.072 442.142 292.587 442.142 295.025C442.142 295.361 442.276 295.684 442.514 295.923C442.752 296.161 443.075 296.294 443.412 296.294C443.748 296.294 444.071 296.161 444.309 295.923C444.548 295.684 444.681 295.361 444.681 295.025C444.681 292.485 444.529 289.946 444.351 287.558C444.342 287.392 444.299 287.23 444.226 287.081C444.152 286.932 444.05 286.799 443.925 286.69C443.799 286.582 443.653 286.499 443.495 286.447C443.337 286.396 443.171 286.376 443.005 286.39ZM49.4733 330.985C49.8101 330.985 50.1331 330.851 50.3712 330.613C50.6093 330.375 50.7431 330.052 50.7431 329.715C50.7431 329.378 50.6093 329.055 50.3712 328.817C50.1331 328.579 49.8101 328.445 49.4733 328.445C46.4005 328.445 43.8355 328.674 41.2959 328.623C40.9568 328.623 40.6311 328.756 40.3889 328.993C40.1468 329.231 40.0074 329.554 40.0007 329.893C40.0007 330.23 40.1345 330.553 40.3726 330.791C40.6108 331.029 40.9338 331.163 41.2705 331.163C43.8863 331.214 46.756 331.112 49.4733 330.985ZM435.133 278.873C432.085 278.873 429.52 279.051 426.955 279.076C426.618 279.076 426.295 279.21 426.057 279.448C425.819 279.686 425.685 280.009 425.685 280.346C425.685 280.683 425.819 281.006 426.057 281.244C426.295 281.482 426.618 281.616 426.955 281.616C429.698 281.616 432.542 281.616 435.285 281.413C435.622 281.392 435.937 281.239 436.161 280.987C436.384 280.734 436.499 280.403 436.479 280.067C436.458 279.73 436.305 279.415 436.053 279.191C435.8 278.967 435.469 278.853 435.133 278.873ZM55.3651 315.29C55.5175 317.627 55.6699 320.141 55.6699 322.579C55.6764 322.914 55.8123 323.233 56.049 323.47C56.2857 323.706 56.6049 323.842 56.9397 323.849C57.2764 323.849 57.5994 323.715 57.8375 323.477C58.0757 323.239 58.2095 322.916 58.2095 322.579C58.2095 320.039 58.0571 317.5 57.9047 315.113C57.8811 314.776 57.7247 314.462 57.4699 314.241C57.2151 314.019 56.8828 313.908 56.546 313.932C56.2093 313.955 55.8957 314.112 55.6742 314.367C55.4527 314.621 55.3416 314.954 55.3651 315.29ZM443.996 273.007C443.996 270.467 443.843 267.927 443.666 265.54C443.642 265.203 443.486 264.89 443.231 264.668C442.976 264.447 442.644 264.336 442.307 264.359C441.97 264.383 441.657 264.539 441.435 264.794C441.214 265.049 441.102 265.381 441.126 265.718C441.278 268.054 441.431 270.569 441.431 273.007C441.431 273.343 441.565 273.666 441.803 273.904C442.041 274.143 442.364 274.276 442.701 274.276C443.04 274.276 443.365 274.143 443.608 273.906C443.85 273.669 443.989 273.346 443.996 273.007ZM74.1072 330.655C74.274 330.648 74.4378 330.609 74.5894 330.539C74.741 330.469 74.8773 330.37 74.9905 330.247C75.1037 330.125 75.1916 329.981 75.2492 329.824C75.3068 329.668 75.333 329.501 75.3262 329.334C75.3005 329.002 75.1502 328.692 74.9052 328.465C74.6603 328.239 74.3389 328.114 74.0056 328.115C70.9327 328.242 68.3677 328.344 65.8028 328.293C65.466 328.293 65.143 328.427 64.9049 328.665C64.6668 328.903 64.533 329.226 64.533 329.563C64.533 329.9 64.6668 330.223 64.9049 330.461C65.143 330.699 65.466 330.833 65.8028 330.833C68.5201 330.883 71.3644 330.782 74.1072 330.655ZM459.766 278.543C457.227 278.67 454.408 278.746 451.589 278.746C451.421 278.739 451.254 278.766 451.097 278.826C450.94 278.885 450.797 278.976 450.676 279.092C450.555 279.208 450.459 279.348 450.393 279.502C450.328 279.657 450.294 279.823 450.294 279.99C450.294 280.33 450.427 280.655 450.664 280.897C450.902 281.14 451.225 281.279 451.564 281.286C454.459 281.286 456.795 281.286 459.868 281.082C460.035 281.076 460.199 281.036 460.35 280.967C460.502 280.897 460.638 280.798 460.751 280.675C460.865 280.552 460.953 280.408 461.01 280.252C461.068 280.095 461.094 279.929 461.087 279.762C461.056 279.432 460.904 279.125 460.66 278.9C460.416 278.675 460.098 278.548 459.766 278.543ZM15.7478 255.407C16.078 255.661 87.6939 245.046 90.7668 243.167C90.9369 243.042 91.0728 242.877 91.1616 242.686C91.2505 242.495 91.2894 242.285 91.2747 242.075C91.2747 238.799 86.9828 208.044 84.9258 200.375C84.6718 199.435 84.4178 198.496 83.8337 198.165C79.9482 195.829 11.4813 208.73 7.39264 211.371C7.28182 211.437 7.18609 211.525 7.11169 211.63C7.03729 211.735 6.98591 211.854 6.96091 211.981C6.09745 215.054 13.5384 253.884 15.7478 255.407ZM8.51005 212.59C13.386 210.381 75.5293 199.003 82.6401 199.892C84.367 204.337 88.9891 236.894 89.2938 241.668C85.7638 242.709 16.7129 254.569 16.4589 254.62C16.2049 254.671 16.1796 254.976 15.6462 253.376C13.4114 246.671 8.38307 218.33 8.51005 212.59Z" fill="black"/>
<path d="M96.3536 245.427C96.4918 245.17 96.5535 244.879 96.5314 244.589C96.5314 240.551 90.7412 195.728 88.6841 192.147C88.5229 191.883 88.2946 191.666 88.0225 191.519C87.7504 191.372 87.4442 191.299 87.135 191.309C78.6274 190.267 6.85912 204.286 2.13552 207.562C1.47523 208.019 1.57681 209.162 1.653 210.381C2.05933 217.06 9.27172 260.994 11.8113 260.741C12.0906 260.741 11.9891 260.537 11.3288 261.883C7.36704 270.035 -0.150093 296.142 0.0022816 301.399C0.0022816 303.608 0.510194 306.478 2.69423 306.326C18.3634 304.396 95.1854 292.206 117.28 287.66C118.143 287.482 118.702 286.695 118.676 285.4C118.416 283.242 117.762 281.15 116.746 279.229C113.648 273.413 100.798 250.379 96.3536 245.427ZM11.9637 259.953C9.9828 257.414 2.69423 213.657 3.25293 208.806C8.83999 205.911 79.6432 192.223 87.0588 193.34C89.0904 198.927 94.3474 239.281 94.6775 244.132C85.6874 247.23 23.4425 257.287 11.9637 259.953ZM13.0811 260.715C15.2143 260.182 87.8714 248.017 94.5251 246.265C98.1567 249.643 114.562 278.822 115.629 281.311C101.052 283.851 14.5794 298.301 1.85617 300.231C2.03394 292.536 9.932 265.642 13.0811 260.715Z" fill="black"/>
<path d="M22.6298 287.05C24.8392 286.72 71.7197 281.082 88.6586 276.486C88.763 276.459 88.8524 276.392 88.9072 276.299C88.962 276.206 88.9776 276.095 88.9507 275.991C88.9237 275.886 88.8564 275.797 88.7635 275.742C88.6707 275.687 88.5598 275.672 88.4555 275.699C85.1286 276.384 44.5463 281.794 22.579 286.263C22.5183 286.252 22.4559 286.255 22.3966 286.272C22.3372 286.289 22.2825 286.319 22.2365 286.36C22.1905 286.401 22.1544 286.452 22.131 286.509C22.1077 286.566 22.0976 286.628 22.1015 286.689C22.1055 286.751 22.1234 286.811 22.154 286.864C22.1845 286.918 22.2268 286.964 22.2777 286.999C22.3286 287.033 22.3867 287.056 22.4477 287.065C22.5087 287.074 22.571 287.069 22.6298 287.05ZM56.8886 110.347C55.9399 112.49 55.1422 114.696 54.5014 116.95C54.4636 117.312 54.5633 117.674 54.7807 117.966C57.3457 121.826 83.6303 151.463 90.4871 155.628C91.4268 156.212 92.5442 156.618 93.2298 155.78C98.2109 149.582 104.711 144.779 112.099 141.838C118.112 139.71 124.416 138.52 130.79 138.308C135.869 137.851 136.758 137.343 138.714 134.016C141.02 129.638 144.081 125.7 147.754 122.385C152.439 118.289 157.638 114.823 163.22 112.074C163.472 111.932 163.668 111.709 163.779 111.442C163.889 111.176 163.907 110.879 163.83 110.601C162.971 108.417 161.836 106.351 160.452 104.455C161.367 104.151 162.382 103.871 162.382 102.957C162.382 100.417 140.237 68.368 134.092 62.3238C133.457 61.6889 132.542 60.8509 131.704 60.9017C119.006 61.6127 106.639 73.5995 99.4772 84.0626C91.2744 83.7578 85.9667 83.0213 76.621 86.9577C70.0234 89.7582 64.0752 93.8908 59.1488 99.0968C58.3869 99.8841 53.2062 105.37 53.13 105.801C53.0538 106.233 53.2062 106.233 56.8886 110.347ZM158.471 109.636C147.881 111.439 141.126 120.251 136.149 129.826C133.939 134.092 134.142 134.295 131.806 134.244C127.72 134.013 123.622 134.166 119.565 134.702C116.59 135.146 113.664 135.878 110.829 136.886C104.379 139.171 96.9884 146.485 93.0521 151.92C92.9685 152.032 92.8622 152.125 92.7401 152.192C92.6181 152.26 92.4831 152.301 92.3441 152.313C92.205 152.325 92.0649 152.308 91.9331 152.262C91.8013 152.216 91.6806 152.143 91.5791 152.047C83.3255 143.539 68.723 128.607 61.3836 120.023C61.0281 119.642 61.6376 119.083 61.9931 119.49C66.7421 124.569 79.0082 136.733 92.1632 149.964C96.6075 144.301 103.464 137.444 110.245 135.057C113.943 133.738 117.79 132.885 121.698 132.518C125.359 132.24 129.035 132.24 132.695 132.518C134.193 130.791 141.609 111.185 158.421 109.001C158.47 109.037 158.51 109.084 158.539 109.138C158.568 109.192 158.584 109.251 158.586 109.312C158.589 109.373 158.577 109.434 158.553 109.49C158.529 109.546 158.492 109.596 158.446 109.636H158.471ZM131.679 62.9587C136.758 66.5141 157.43 97.116 160.122 102.474C155.451 103.954 150.942 105.903 146.662 108.29C142.61 110.321 139.062 113.231 136.277 116.807C133.491 120.383 131.539 124.536 130.562 128.962C121.444 114.131 108.721 97.8016 100.264 85.7895C100.772 85.4593 115.045 63.9491 131.679 62.9587ZM77.1798 88.3544C86.4492 84.6213 91.5791 85.4847 99.2486 85.8148C106.867 98.8175 120.556 117.153 129.571 129.165C121.25 127.196 112.494 128.401 105.013 132.543C100.518 135.083 95.0329 141.178 91.6553 144.961C86.7793 141.051 58.6409 111.084 54.1204 106.004C61.0789 98.1318 67.504 92.2146 77.1798 88.2528V88.3544ZM30.7056 152.936C30.0779 152.495 29.3359 152.246 28.5696 152.219C27.8032 152.192 27.0455 152.388 26.3883 152.783C25.9098 152.997 25.4779 153.302 25.1174 153.683C24.757 154.063 24.475 154.511 24.2875 155C24.1 155.489 24.0107 156.011 24.0248 156.535C24.0388 157.058 24.1559 157.574 24.3694 158.053C24.5828 158.532 24.8884 158.963 25.2688 159.324C25.6491 159.684 26.0967 159.966 26.586 160.154C27.0754 160.341 27.5968 160.431 28.1207 160.417C28.6445 160.402 29.1604 160.285 29.639 160.072C30.4035 159.905 31.0992 159.509 31.6337 158.938C32.1683 158.366 32.5165 157.645 32.6322 156.871C32.7478 156.098 32.6255 155.307 32.2815 154.604C31.9374 153.901 31.3878 153.319 30.7056 152.936ZM29.0295 158.015C27.2518 158.574 26.1852 158.015 25.7534 157.151C24.9408 155.348 25.9566 152.58 28.5978 153.393C30.4516 154.079 31.95 157.202 29.0295 158.142V158.015ZM159.843 36.7249C160.579 38.2233 164.008 37.6646 165.506 37.1821C166.293 36.9281 166.801 36.6488 166.877 35.8869C167.106 33.9822 167.36 17.475 166.496 15.8751C166.407 15.7073 166.27 15.5696 166.103 15.4792C165.936 15.3889 165.746 15.3499 165.557 15.3671C162.847 15.3596 160.151 15.7533 157.557 16.5353C156.516 17.1702 158.929 35.0488 159.843 36.7249ZM158.09 17.1448C160.436 16.8092 162.809 16.6987 165.176 16.8147C165.328 18.694 164.922 34.9726 164.897 35.2266C163.824 35.6111 162.678 35.7499 161.544 35.6329C161.367 35.0488 161.062 33.4743 160.681 31.4934C159.562 26.7602 158.697 21.9705 158.09 17.1448ZM28.2422 131.502C28.4859 131.627 28.7557 131.692 29.0295 131.692C29.3032 131.692 29.5731 131.627 29.8168 131.502C30.7979 130.897 31.576 130.012 32.0516 128.962C32.1162 128.794 32.1361 128.612 32.1094 128.434C32.0827 128.256 32.0103 128.088 31.8992 127.946C30.6802 126.499 17.3729 111.084 15.7475 112.049C13.752 113.341 11.8586 114.784 10.0843 116.366C10.0128 116.43 9.95548 116.508 9.91611 116.596C9.87674 116.683 9.85617 116.778 9.85572 116.874C9.80493 118.194 24.5852 130.029 28.2422 131.502ZM16.0523 112.709C17.9062 114.055 24.1535 121.775 29.9437 128.607C29.6946 128.999 29.3862 129.35 29.0295 129.648C22.9418 125.752 17.1294 121.441 11.6334 116.747C13.0112 115.3 14.4877 113.951 16.0523 112.709ZM55.9489 56.686C56.5076 46.8324 62.2471 42.2612 68.2405 41.093C66.539 47.3403 66.8183 55.467 72.9895 56.5082C75.9354 56.9907 77.3829 55.467 79.5162 53.6893C88.6332 46.0706 81.2685 38.4518 70.9832 38.9852C74.8179 28.4713 83.6811 19.913 95.4393 19.6336C95.547 19.6336 95.6504 19.5908 95.7266 19.5146C95.8028 19.4384 95.8456 19.3351 95.8456 19.2273C95.8456 19.1195 95.8028 19.0162 95.7266 18.94C95.6504 18.8638 95.547 18.821 95.4393 18.821C82.7414 18.567 72.7609 27.7095 68.8246 39.1375C62.0439 40.3057 55.314 45.3849 55.1363 56.5336C55.1263 56.587 55.1269 56.6418 55.1381 56.6949C55.1492 56.748 55.1708 56.7984 55.2014 56.8432C55.2321 56.888 55.2713 56.9264 55.3167 56.956C55.3622 56.9857 55.4131 57.0061 55.4664 57.0161C55.5198 57.0261 55.5746 57.0255 55.6277 57.0143C55.6808 57.0032 55.7312 56.9816 55.7761 56.951C55.8209 56.9203 55.8592 56.8811 55.8889 56.8357C55.9185 56.7902 55.9389 56.7393 55.9489 56.686ZM70.3991 40.7883C74.1831 40.5343 79.8209 41.7025 81.37 45.1309C82.2589 47.0864 81.37 49.499 78.221 52.1401C77.366 52.9966 76.3907 53.7238 75.3259 54.2988C71.5165 55.9241 67.3008 51.2259 70.3991 40.7883ZM77.6623 399.96C75.2087 399.303 72.6485 399.143 70.1322 399.49C67.616 399.837 65.1945 400.684 63.0104 401.98C60.8263 403.277 58.9236 404.998 57.4143 407.041C55.905 409.084 54.8197 411.408 54.222 413.877C53.0939 419.006 54.0494 424.373 56.8784 428.797C59.7074 433.222 64.1781 436.341 69.3071 437.469C74.4361 438.597 79.8031 437.642 84.2276 434.813C88.6521 431.984 91.7715 427.513 92.8997 422.384C93.3816 419.91 93.3691 417.366 92.8629 414.897C92.3568 412.428 91.3669 410.084 89.9505 407.999C88.534 405.915 86.7189 404.131 84.6099 402.751C82.5009 401.371 80.1397 400.423 77.6623 399.96ZM85.5095 420.657C84.4906 424.721 82.0512 428.287 78.6324 430.709C75.2136 433.131 71.041 434.25 66.8691 433.863C63.0394 432.367 59.8601 429.568 57.8906 425.958C55.921 422.349 55.2875 418.161 56.1013 414.131C57.0516 409.968 59.4683 406.286 62.9097 403.759C66.351 401.232 70.5871 400.027 74.8433 400.366C78.7109 401.964 81.8907 404.875 83.8232 408.587C85.7557 412.298 86.3169 416.573 85.408 420.657H85.5095Z" fill="black"/>
<path d="M111.489 407.198C109.278 406.435 106.909 406.251 104.607 406.664C103.653 404.477 102.479 402.392 101.102 400.442C102.753 398.944 107.274 394.779 106.182 392.824C102.295 388.175 97.6811 384.187 92.5187 381.015C90.3631 379.807 87.9894 379.039 85.5349 378.754C83.9096 378.983 80.0494 385.306 79.186 386.729C78.6273 386.729 76.6464 386.094 76.494 386.018C76.494 384.189 75.9607 377.586 74.31 376.824C72.4641 376.145 70.5472 375.676 68.596 375.428C66.7929 375.148 50.565 378.12 49.3714 380.304C48.5842 381.776 50.4126 387.338 50.9459 388.887C49.5763 389.641 48.261 390.49 47.0096 391.427C44.47 393.23 45.1557 393.154 44.6986 392.951C44.1461 392.687 43.5542 392.515 42.9463 392.443C40.9176 391.253 38.5391 390.804 36.2164 391.173C33.88 391.935 28.3692 404.48 27.4803 407.706C27.1894 408.519 27.1108 409.393 27.2518 410.245C27.8612 411.921 31.9246 413.267 33.6261 413.801C33.1562 417.068 33.1562 420.386 33.6261 423.654C31.3913 424.264 26.7438 425.635 26.9978 427.921C27.2517 430.206 33.1943 445.291 35.6577 446.485C37.0072 447.239 38.4994 447.704 40.0388 447.848C41.5782 447.992 43.1308 447.814 44.597 447.323C45.4228 446.911 46.2203 446.444 46.9842 445.926C48 446.688 49.0667 447.374 50.1587 448.034C49.3714 449.989 47.6191 454.357 48.1778 456.338C48.4572 457.38 49.2952 457.71 50.4634 458.141C53.6887 459.31 71.0593 463.475 73.7005 463.017C74.6909 462.865 75.2242 461.824 75.529 460.833C76.0933 458.579 76.4251 456.273 76.5194 453.951C77.8237 453.822 79.1205 453.627 80.405 453.367C81.1894 454.747 82.1929 455.991 83.3763 457.049C84.6715 457.964 85.7635 457.507 87.2364 456.567C87.9475 457.481 89.0141 458.751 90.1569 458.878C93.0266 459.208 104.886 448.034 106.105 445.748C107.121 443.844 103.413 440.441 101.763 438.942C103.548 436.255 104.95 433.332 105.928 430.257C107.759 430.533 109.613 430.635 111.464 430.562C112.302 430.562 113.267 430.257 113.623 429.47C115.172 425.94 114.715 412.556 113.623 409.153C113.47 408.163 112.327 407.502 111.489 407.198ZM112.099 409.534C112.962 412.835 113.242 425.305 111.972 428.53C109.776 428.746 107.561 428.644 105.394 428.225C105.163 428.186 104.925 428.234 104.728 428.361C104.531 428.488 104.388 428.684 104.328 428.911C103.316 432.344 101.746 435.588 99.6803 438.51C99.5332 438.704 99.4668 438.947 99.4952 439.189C99.5237 439.43 99.6446 439.652 99.8327 439.806C101.615 441.218 103.128 442.938 104.302 444.885C103.033 446.967 93.1028 456.059 90.3601 456.821C89.9538 456.821 88.8363 455.297 88.557 454.891C87.6189 453.481 86.7707 452.014 86.0174 450.497C85.9075 450.276 85.7189 450.104 85.4887 450.015C85.2585 449.926 85.0033 449.926 84.773 450.015C77.4083 452.783 74.6147 451.158 74.6147 452.986C74.618 455.724 74.1719 458.443 73.2942 461.037C67.3261 460.388 61.4488 459.076 55.7711 457.126C56.0453 454.414 56.8022 451.774 58.006 449.329C58.7678 447.628 55.7203 448.11 50.0317 442.32C49.8486 442.15 49.6083 442.056 49.3587 442.056C49.1092 442.056 48.8688 442.15 48.6857 442.32C46.1462 444.402 42.8447 446.434 42.1844 446.104C40.8893 445.469 34.9213 431.933 34.5657 429.19C36.372 427.932 38.4225 427.066 40.5845 426.651C40.8151 426.586 41.0142 426.439 41.1449 426.238C41.2757 426.037 41.3292 425.796 41.2956 425.559C40.6732 421.962 40.6732 418.286 41.2956 414.689C41.3344 414.468 41.2878 414.24 41.1653 414.051C41.0428 413.863 40.8534 413.728 40.6353 413.674C38.7208 413.172 36.8776 412.429 35.1498 411.464C34.5911 411.058 34.6419 411.083 34.6927 410.651C36.3364 404.723 38.9726 399.116 42.4892 394.068C43.8605 393.687 47.5683 396.404 48.8381 397.369C48.9708 397.498 49.1484 397.57 49.3333 397.57C49.5182 397.57 49.6959 397.498 49.8285 397.369C50.9954 396.159 52.2518 395.039 53.5871 394.017C57.4473 391.097 58.4885 391.478 58.1583 390.462C56.9909 387.914 56.3351 385.161 56.2283 382.361C56.6219 382.033 57.0685 381.776 57.5488 381.599C59.9197 380.661 62.3557 379.897 64.8374 379.313C67.8455 378.475 70.9373 377.972 74.056 377.815C74.5894 378.043 75.0719 380.354 75.1988 381.065C76.1385 386.145 75.5036 387.186 76.2401 387.262C83.4778 387.973 84.9508 389.979 85.4587 389.09C86.867 386.628 88.5083 384.306 90.3601 382.157C90.8934 381.624 90.868 381.37 92.4679 382.284C97.2477 385.408 101.529 389.235 105.166 393.636C105.547 394.297 102.245 397.801 99.8327 399.858C98.9946 400.595 100.188 400.925 102.372 405.09C104.556 409.255 104.048 410.423 105.217 410.169C107.469 409.63 109.786 409.416 112.099 409.534ZM464.566 197.327C459.242 195.153 453.66 193.676 447.957 192.934C443.792 192.274 438.891 191.613 434.751 191.08C438.738 185.442 450.547 171.17 452.528 167.691C453.087 166.751 452.02 165.43 451.233 164.643C446.814 159.92 438.281 158.142 431.729 157.126C427.971 156.517 412.276 154.586 409.61 155.856C406.41 157.38 382.741 192.934 382.03 198.343C382.03 199.258 382.335 199.613 383.223 199.943C386.957 201.315 403.794 203.448 407.552 204.337C402.473 213.225 379.897 243.268 377.687 247.509C377.154 248.576 377.484 249.211 378.119 249.414C380.404 250.321 382.756 251.051 385.154 251.598C386.068 251.877 388.074 250.633 390.995 248.855C404.099 240.983 460.325 203.854 464.642 199.054C464.761 198.942 464.855 198.805 464.916 198.653C464.978 198.501 465.006 198.337 464.999 198.173C464.992 198.01 464.949 197.849 464.874 197.703C464.8 197.557 464.695 197.429 464.566 197.327ZM409.991 227.802C388.404 242.049 381.116 246.214 380.862 246.392C384.341 241.084 405.953 211.473 409.66 204.387C409.725 204.251 409.758 204.101 409.757 203.95C409.757 203.798 409.722 203.649 409.657 203.513C409.591 203.377 409.496 203.257 409.378 203.162C409.26 203.067 409.122 203 408.975 202.965C406.435 202.051 387.947 200.07 383.579 198.521C384.138 193.797 407.197 158.091 409.991 156.669C412.784 155.247 439.881 158.472 444.96 162.104C442.294 167.31 427.564 185.544 425.177 189.785C424.695 190.648 424.542 191.486 425.482 191.715C426.422 191.944 450.293 194.737 455.5 196.439C449.151 201.746 417.101 223.028 409.991 227.701V227.802ZM247.077 72.5329C247.077 72.7615 247.229 73.0408 247.61 74.5138C247.71 74.8333 247.93 75.1017 248.224 75.2627C248.517 75.4237 248.862 75.4647 249.185 75.3772C249.508 75.2829 249.781 75.0641 249.943 74.7688C250.105 74.4735 250.143 74.126 250.048 73.8027C249.794 72.8123 249.566 71.9742 249.413 71.5679C249.265 71.289 249.019 71.0753 248.722 70.9683C248.425 70.8613 248.099 70.8688 247.807 70.9894C247.515 71.1099 247.279 71.3348 247.144 71.6201C247.009 71.9055 246.985 72.2309 247.077 72.5329Z" fill="black"/>
</svg>
