<svg width="408" height="367" viewBox="0 0 408 367" fill="none" xmlns="http://www.w3.org/2000/svg">
<path fill-rule="evenodd" clip-rule="evenodd" d="M387.874 225.464C387.874 223.139 240.406 210.109 240.355 210.109C239.297 210.109 238.766 210.756 238.766 211.944C238.766 212.211 238.793 212.346 238.793 212.821C238.793 214.8 237.64 223.972 234.397 255.451C233.748 254.397 233.201 253.64 232.784 252.806C226.572 240.356 213.965 239.89 211.581 236.689C206.71 230.152 192.945 220.016 192.945 216.482C192.945 216.419 194.062 192.9 194.065 192.835C198.705 194.823 202.614 198.289 207.242 198.289C217.634 198.289 222.544 185.103 236.462 185.103C253.462 185.103 272.271 200.95 291.425 200.95C313.417 200.95 322.636 190.611 333.584 183.556C335.837 182.596 338.125 181.599 340.364 179.876C344.278 178.195 348.662 177.127 354 177.127C360.344 177.127 369.799 178.688 376.048 178.688C378.237 178.688 383.916 178.335 389.784 176.076C390.327 178.637 392.237 185.574 401.446 208.046C406.688 220.837 407.627 227.385 407.627 232.487C407.627 248.089 398.369 260.027 384.177 268.69C386.209 246.359 387.874 225.49 387.874 225.464Z" fill="#5FC690"/>
<path fill-rule="evenodd" clip-rule="evenodd" d="M208.361 236.775C208.126 236.775 207.978 236.784 207.864 236.784C207.813 236.784 174.788 232.986 171.149 223.366C171.517 223.33 171.744 223.288 171.968 223.288C172.317 223.288 188.059 223.472 189.077 223.472C192.298 223.472 192.243 223.652 192.839 221.327C193.048 221.528 193.206 221.657 193.338 221.811C199.128 228.559 205.128 232.77 208.361 236.775Z" fill="#5FC690"/>
<path fill-rule="evenodd" clip-rule="evenodd" d="M384.8 226.815C384.8 227.04 384.806 227.207 384.806 227.353C384.806 227.38 383.091 248.444 381.127 270.464C366.284 278.659 346.82 283.611 327.034 285.708C329.073 282.666 330.548 278.127 330.548 273.271C330.548 260.308 320.797 250.763 310.911 250.763C308.87 250.763 290.825 251.375 290.825 276.418C290.825 279.925 291.269 283.22 292.003 286.295C272.766 284.924 242.107 281.191 235.152 275.591C237.322 254.863 239.492 234.137 241.664 213.389C244.03 213.552 375.244 225.832 384.8 226.815Z" fill="#5FC690"/>
<path fill-rule="evenodd" clip-rule="evenodd" d="M99.7844 303.915C100.063 303.528 100.295 303.204 100.603 302.775C101.042 303.238 101.393 303.607 101.763 303.997C101.301 304.355 101.055 304.539 100.81 304.539C100.552 304.539 100.295 304.334 99.7844 303.915Z" fill="#5FC690"/>
<path fill-rule="evenodd" clip-rule="evenodd" d="M77.6089 303.187C77.6089 298.524 80.5912 296.375 84.9002 296.375C91.0168 296.375 97.0577 300.54 98.0992 300.997C97.6405 301.793 96.9712 302.681 96.9712 303.94C96.9712 305.847 98.63 307.669 100.842 307.669C102.808 307.669 104.575 306.172 104.575 304.052C104.575 302.155 103.31 301.208 102.383 300.334C105.555 295.622 112.579 290.086 118.189 290.086C126.155 290.086 126.035 300.083 126.035 301.163C126.035 315.091 112.67 331.551 107.057 331.551C95.0294 331.551 77.6089 314.966 77.6089 303.187Z" fill="#5FC690"/>
<path fill-rule="evenodd" clip-rule="evenodd" d="M269.29 62.3449C232.944 62.3449 225.271 42.5379 198.321 42.5379C169.526 42.5379 168.463 54.0509 167.458 58.9636C165.46 57.6578 152.103 47.1591 131.107 47.1591C39.104 47.1591 58.122 186.944 58.122 215.692C58.122 218.504 59.0889 218.372 61.9627 218.372C62.7142 218.372 63.4769 218.371 64.2681 218.371C63.9925 221.396 63.7289 224.287 63.4533 227.314C55.1682 228.399 47.9579 231.268 41.6727 235.4C19.5494 214.7 21.0126 197.329 20.2407 192.527V188.85C28.3512 125.769 52.9906 120.977 57.9872 70.5356C59.5879 54.378 61.5684 48.3425 72.2041 40.7942C73.28 41.2221 74.8872 41.7287 77.2845 41.7287C82.8188 41.7287 82.7253 40.0427 82.7253 39.5665C82.7253 38.6605 82.3617 38.46 79.7903 36.5776C93.6199 31.2084 168.702 14.1961 195.268 14.1961C257.7 14.1961 294.759 37.2526 320.834 57.4543C302.476 58.78 278.721 62.3449 269.29 62.3449Z" fill="#5FC690"/>
<mask id="mask0_1_237" style="mask-type:luminance" maskUnits="userSpaceOnUse" x="-1" y="41" width="407" height="326">
<path d="M405.141 41.4671H-0.000213623V366.233H405.141V41.4671Z" fill="white"/>
</mask>
<g mask="url(#mask0_1_237)">
<path fill-rule="evenodd" clip-rule="evenodd" d="M32.5941 363.116C63.437 363.116 100.763 336.285 103.998 333.809C85.6806 328.948 74.5617 312.332 74.5617 302.522C74.5617 292.243 84.4965 292.643 84.959 292.643C86.5623 292.643 90.538 292.512 99.5976 297.94C100.357 297.026 108.459 286.353 117.689 286.353C126.12 286.353 128.535 294.501 128.535 300.028C128.535 315.813 117.765 326.844 112.267 331.889C114.538 332.27 121.045 333.099 123.971 333.099C147.342 333.099 154.348 313.235 188.505 313.235C202.477 313.235 210.294 317.093 215.433 319.202C215.482 319.127 215.531 319.052 215.58 318.977C214.935 318.285 209.707 311.718 196.821 311.718C190.382 311.718 183.843 313.455 176.834 313.455C147.061 313.455 147.465 293.575 125.293 276.584C122.661 274.568 115.822 276.188 96.6218 264.813C92.4946 262.368 84.5827 264.991 72.0865 252.113C72.064 252.09 72.0126 252.1 71.7498 252.064C73.0612 259.742 73.0789 259.391 73.0789 259.934C73.0789 261.462 71.9709 261.587 71.6844 261.587C69.085 261.587 68.9972 248.264 67.0556 244.05C63.8598 237.114 63.8026 232.25 63.4107 229.727C38.5933 233.141 27.0295 250.231 16.4251 277.442C3.67188 310.165 2.78165 334.6 2.78165 337.796C2.78165 344.315 6.4801 363.116 32.5941 363.116ZM101.479 303.348C101.11 302.958 100.761 302.588 100.323 302.124C100.017 302.554 99.7849 302.878 99.5077 303.266C100.016 303.686 100.273 303.891 100.53 303.891C100.774 303.891 101.019 303.707 101.479 303.348ZM125.668 300.51C125.668 299.428 125.788 289.414 117.849 289.414C112.259 289.414 105.258 294.959 102.097 299.679C103.021 300.555 104.281 301.504 104.281 303.404C104.281 305.526 102.521 307.026 100.562 307.026C98.3573 307.026 96.7043 305.201 96.7043 303.291C96.7043 302.03 97.3712 301.141 97.8279 300.343C96.7904 299.886 90.7703 295.714 84.6748 295.714C80.3805 295.714 77.4085 297.867 77.4085 302.537C77.4085 314.335 94.7686 330.945 106.755 330.945C112.349 330.945 125.668 314.46 125.668 300.51ZM223.997 324.695C224.07 324.48 224.129 324.373 224.129 324.324C224.129 324.001 223.22 324.052 222.824 318.651C221.811 304.835 210.673 303.585 210.673 289.654C210.673 280.53 216.803 269.287 216.803 259.527C216.803 250.892 212.301 240.224 209.672 239.746C196.359 237.325 201.642 238.182 197.234 237.533C191.563 270.821 154.795 277.219 139.046 277.219C134.379 277.219 133.205 276.949 130.019 276.765C129.983 276.839 129.948 276.914 129.913 276.989C153.384 301.125 153.253 310.723 177.028 310.723C185.604 310.723 189.372 309.077 196.554 309.077C213.984 309.077 217.581 318.296 223.997 324.695ZM226.519 323.196C227.728 312.153 232.684 264.302 232.684 263.866C232.684 263.024 232.801 263.023 230.685 255.876C227.785 246.078 215.257 241.609 215.036 241.609C214.952 241.609 214.844 241.623 214.687 241.623C216.178 244.943 219.193 250.969 219.193 259.464C219.193 270.864 213.072 280.751 213.072 290.151C213.072 302.594 224.005 301.842 225.428 320.745C225.493 321.599 225.778 322.345 226.519 323.196ZM329.456 361.763C368.097 361.763 373.552 356.901 373.552 354.7C373.552 354.658 373.551 354.64 373.551 354.572C373.551 354.516 374.033 340.527 374.033 337.564C374.033 333.425 370.365 330.024 367.604 330.024C364.091 330.024 344.435 345.966 298.207 345.966C258.535 345.966 235.17 334.336 228.575 331.173C227.537 340.161 227.031 345.711 227.031 346.5C227.031 352.912 276.798 361.763 329.456 361.763ZM316.395 280.384C317.351 277.462 318.278 274.547 318.278 271.412C318.278 268.438 317.039 266.012 316.272 266.012C315.466 266.012 314.612 269.799 314.612 272.536C314.612 275.243 315.267 277.846 316.395 280.384ZM311.77 272.52C311.77 271.585 311.925 262.836 316.319 262.836C319.319 262.836 321.166 267.761 321.166 271.591C321.166 272.883 321.19 274.948 318.355 284.164C318.557 284.673 319.634 285.899 320.737 285.899C323.001 285.899 326.632 279.375 326.632 272.527C326.632 262.752 319.832 253.108 309.334 253.108C299.044 253.108 292.739 263.728 292.739 275.609C292.739 288.317 300.161 301.891 307.068 308.562C313.315 287.575 314.9 286.552 314.9 285.018C314.9 283.659 311.77 279.296 311.77 272.52ZM374.519 319.222C376.192 317.421 383.549 226.639 383.549 226.584C383.549 226.438 383.543 226.27 383.543 226.044C374.02 225.06 243.257 212.762 240.9 212.597C236.895 251.038 232.899 289.403 228.893 327.852C248.374 338.248 274.77 342.856 297.87 342.856C332.861 342.856 353.325 333.073 353.859 332.829C353.452 332.837 353.046 332.841 352.642 332.841C336.096 332.841 321.806 326.26 308.959 314.915C308.951 314.966 308.572 316.896 308.572 319.999C308.572 324.636 309.612 326.093 309.612 327.29C309.612 327.592 309.476 328.888 308.237 328.888C307.674 328.888 307.157 328.517 306.948 327.796C306.371 325.8 305.702 323.454 305.702 319.725C305.702 316.259 306.267 313.841 306.267 313.122C306.267 310.943 289.891 297.22 289.891 275.726C289.891 250.643 307.874 250.03 309.908 250.03C319.76 250.03 329.477 259.59 329.477 272.574C329.477 281.222 324.83 288.864 320.643 288.864C319.361 288.864 318.574 288.263 317.302 287.485C315.552 290.879 309.61 309.429 309.61 310.676C309.61 313.133 329.596 329.592 350.993 329.592C362.997 329.592 368.443 325.764 374.519 319.222ZM192.74 221.033C192.607 220.879 192.451 220.75 192.241 220.548C191.649 222.876 191.703 222.696 188.493 222.696C187.479 222.696 171.791 222.512 171.442 222.512C171.22 222.512 170.993 222.555 170.626 222.59C174.254 232.226 207.165 236.029 207.216 236.029C207.33 236.029 207.477 236.021 207.711 236.021C204.489 232.009 198.51 227.791 192.74 221.033ZM196.317 151.161C196.317 125.31 179.319 99.8529 161.539 91.0106C158.264 106.389 154.408 109.32 147.307 109.32C146.251 109.32 146.028 109.283 145.305 109.283C126.477 109.283 124.503 129.315 108.767 143.364C109.587 143.611 109.988 144.085 109.988 144.9C109.988 146.39 108.745 146.483 108.662 146.499C108.693 147.134 108.743 147.681 108.743 148.224C108.743 149.712 107.773 149.685 107.702 149.685C106.454 149.685 106.6 147.841 106.183 146.538C98.6522 221.128 105.993 217.316 95.7728 222.922C92.9833 224.453 90.1713 225.967 86.9258 226.698C90.8977 252.867 115.111 267.441 138.621 267.441C164.47 267.441 181.823 251.779 185.952 234.964C185.902 234.949 167.374 231.138 167.374 220.41C167.374 220.354 171.062 166.639 171.068 166.582C171.281 164.101 172.842 163.963 174.049 163.963C174.219 163.963 174.39 163.967 174.561 163.967C196.497 163.967 196.317 164.705 196.317 151.161ZM200.981 192.832C202.821 165.99 201.755 166.12 204.029 166.12C204.757 166.12 205.269 166.271 220.289 166.912C221.377 166.958 221.827 167.392 221.827 168.552C221.827 169.228 221.657 172.465 220.962 186.563C222.623 185.847 227.473 181.553 235.563 181.553C236.607 181.553 237.665 181.625 238.74 181.772C239.026 180.911 239.76 163.133 239.76 157.959C239.76 157.281 239.747 156.819 239.719 156.64C226.189 156.485 212.634 156.33 199.011 156.174C198.298 161.115 198.365 163.541 195.662 164.879C194.088 165.659 194.918 165.248 193.599 188.892C195.987 190.338 198.279 191.847 200.981 192.832ZM246.057 183.182C246.057 182.841 246.061 182.545 246.061 182.266C246.061 181.423 245.888 176.323 245.888 175.107C245.888 173.596 246.427 173.243 247.867 173.243C247.918 173.243 256.244 173.704 262.137 173.871C263.062 173.897 263.756 174.318 264.431 174.853C264.84 175.176 264.931 175.638 264.931 176.134C264.931 176.535 264.052 188.425 264.052 189.145C264.052 189.407 264.062 189.693 264.062 190.04C268.693 192.191 273.461 194.078 278.505 195.557C279.581 176.97 277.335 175.618 281.419 175.618C296.549 175.618 296.236 175.497 296.236 177.469C296.236 177.733 295.569 195.543 295.569 196.169C295.569 196.452 295.574 196.757 295.574 197.12C298.495 196.828 301.278 196.35 304.121 195.536C304.972 168.732 305.82 141.989 306.674 115.08C283.572 114.86 260.532 114.642 237.362 114.422C237.022 120.284 236.69 125.995 236.353 131.801C236.722 131.844 237.026 131.911 237.329 131.911C238.992 131.911 242.994 131.861 243.051 131.861C244.322 131.861 244.413 132.089 244.951 133.439C245.47 134.744 246.255 135.923 246.923 137.157C247.014 137.147 247.106 137.137 247.198 137.127C248.116 129.846 246.375 126.73 249.627 126.73C250.29 126.73 264.266 127.033 264.784 127.071C265.814 127.146 266.211 127.55 266.211 128.637C266.211 128.692 265.441 162.648 264.644 164.224C264.257 164.99 263.767 165.304 263.036 165.304C262.986 165.304 250.036 164.73 248.691 164.636C247.072 164.522 246.433 163.81 246.433 162.138C246.433 161.465 246.638 158.09 246.728 156.441H242.374C242.058 165.029 241.746 173.546 241.43 182.148C242.995 182.498 244.474 182.829 246.057 183.182ZM248.603 183.905C251.926 185.008 251.557 184.954 251.865 184.954C252.212 184.954 252.498 184.776 252.785 184.436C252.997 184.184 253.286 184.01 253.643 183.717C251.898 181.657 250.285 179.751 248.673 177.847C248.588 177.881 248.502 177.916 248.417 177.95C248.478 179.886 248.538 181.821 248.603 183.905ZM255.502 181.786C257.235 180.105 258.927 178.466 260.619 176.826C260.593 176.726 260.566 176.626 260.54 176.527C257.343 176.334 254.14 176.26 250.894 176.078C251.272 177.011 253.808 180.139 255.502 181.786ZM255.54 186.354C255.578 186.28 255.616 186.207 255.654 186.133C255.468 186.014 255.282 185.895 255.096 185.775C255.055 185.854 255.014 185.933 254.973 186.012C255.162 186.125 255.351 186.239 255.54 186.354ZM261.326 188.871C261.687 187.89 262.124 182.653 262.124 179.737C262.124 179.459 262.119 179.202 262.111 178.972C260.381 180.65 258.802 182.182 257.129 183.805C258.553 185.526 259.922 187.177 261.326 188.871ZM281.35 195.828C282.889 193.342 284.428 190.856 286.031 188.266C284.528 186.02 283.03 183.781 281.533 181.543C281.445 181.566 281.357 181.589 281.27 181.612C281.135 186.322 281.14 191.036 281.065 195.747C281.16 195.774 281.255 195.801 281.35 195.828ZM290.018 197.436C290.703 197.436 291.4 197.419 292.113 197.39C290.577 195.029 289.122 192.888 287.575 190.587C286.257 192.718 285.037 194.689 283.749 196.772C285.855 197.269 287.883 197.436 290.018 197.436ZM291.937 178.719C291.399 178.52 288.663 178.4 286.255 178.4C284.623 178.4 283.141 178.455 282.594 178.578C284.225 181.014 285.816 183.391 287.495 185.9C289.031 183.417 290.477 181.079 291.937 178.719ZM293.087 193.842C293.401 189.69 293.395 185.519 293.638 181.363C293.546 181.325 293.454 181.287 293.361 181.249C291.924 183.568 290.487 185.886 289.042 188.215C290.353 190.173 291.598 192.035 292.844 193.897C292.924 193.879 293.006 193.861 293.087 193.842ZM306.781 194.739C308.617 194.256 307.393 194.531 313.437 192.122C314.956 191.516 316.028 156.384 316.028 156.328C316.028 155.354 315.891 154.313 315.891 153.98C315.891 153.498 316.059 152.579 317.388 152.579C317.439 152.579 326.686 152.803 331.585 152.952C332.888 152.992 333.959 154.297 333.959 155.741C333.959 156.135 333.242 177.11 333.242 177.866C333.242 178.164 333.248 178.5 333.248 178.938C336.865 176.947 340.478 175.54 344.306 174.548C344.306 174.261 344.305 174.002 344.305 173.753C344.305 151.309 344.271 151.61 345.822 151.61C361.256 151.61 361.568 151.953 361.568 153.759C361.568 154.063 360.742 172.531 360.742 173.189C360.742 173.447 360.748 173.723 360.748 174.053C363.301 174.316 365.801 174.574 368.282 174.829C368.527 173.783 369.007 149.05 369.007 140.369C369.007 138.731 368.99 137.664 368.95 137.437C348.833 138.033 328.692 138.63 308.578 139.226C308.273 140.386 306.76 186.808 306.76 193.875C306.76 194.346 306.767 194.642 306.781 194.739ZM256.253 149.225C255.876 150.018 255.535 150.736 255.165 151.512C256.407 153.717 256.868 154.307 256.868 155.259C256.868 157.303 253.25 155.807 252.765 156.815C251.97 158.465 251.253 160.16 250.423 162.039C254.339 162.212 257.98 162.373 261.634 162.534C261.525 161.544 257.155 150.722 256.253 149.225ZM257.91 146C257.91 146.565 262.33 157.073 262.597 157.554C262.67 157.544 262.743 157.533 262.816 157.523C263.07 149.723 263.322 141.923 263.576 134.123L263.36 134.068C263.24 134.281 257.91 145.276 257.91 146ZM250.11 133.901C250.038 133.932 249.965 133.963 249.892 133.994C249.742 135.693 249.619 140.976 249.619 141.057C249.619 141.997 249.538 141.714 253.421 148.439C253.457 148.5 253.544 148.525 253.725 148.646C254.264 147.484 254.917 146.2 254.917 145.875C254.917 145.336 250.163 134.013 250.11 133.901ZM256.476 142.774C258.546 138.328 260.495 134.141 262.59 129.643H251.09C252.859 133.956 254.613 138.234 256.476 142.774ZM249.168 157.19C249.168 157.465 249.213 157.852 249.283 158.4C249.603 157.683 249.831 157.173 250.131 156.504C249.403 156.529 249.168 156.567 249.168 157.19ZM253.551 153.794C249.833 147.278 246.238 140.978 242.577 134.559C227.553 134.668 212.462 134.778 197.292 134.887C199.147 146.639 198.618 141.787 199.319 153.496C217.269 153.595 235.275 153.694 253.551 153.794ZM371 173.995C371 174.273 371.003 174.557 371.003 174.852C371.268 174.961 371.115 175.153 374.557 175.153C375.083 175.153 402.589 175.525 402.589 150.727C402.589 140.145 399.218 131.23 399.218 120.887C399.218 116.729 399.733 105.191 399.733 103.537C399.733 89.9374 393.447 80.3669 377.294 71.0895C373.51 75.8739 369.073 78.5913 363.972 78.5913C361.896 78.5913 347.634 77.7849 346.489 59.7796C341.896 59.2231 338.601 58.6486 331.562 58.6486C310.894 58.6486 281.27 64.0607 267.489 64.0607C233.344 64.0607 222.258 44.1454 198.496 44.1454C175.879 44.1454 169.159 51.0079 169.159 59.2068C169.159 60.687 195.678 77.9023 195.678 118.278C195.678 126.628 194.96 125.827 194.96 127.346C194.96 127.799 194.99 127.788 196.432 132.187C208.818 132.156 221.256 132.056 233.809 131.898C235.184 114.864 233.816 111.692 237.388 111.692C313.2 111.692 308.645 112.543 308.645 113.344C308.645 113.477 308.605 113.552 308.605 113.817C308.605 114.666 309.107 115.376 309.107 116.205C309.107 116.26 308.59 129.698 308.59 133.695C308.59 134.585 308.602 135.498 308.602 136.469C308.832 136.483 309.136 136.525 309.446 136.525C311.007 136.525 370.084 134.648 370.281 134.648C371.172 134.648 371.697 135.292 371.697 136.262C371.697 136.318 371 168.888 371 173.995ZM363.598 44.2412C363.532 44.2406 363.465 44.24 363.398 44.24C355.888 44.24 349.125 50.8823 349.125 60.0225C349.125 68.9057 355.542 75.8289 363.64 75.8289C371.879 75.8289 378.061 68.3154 378.061 60.082C378.061 51.3109 371.662 44.2441 363.598 44.2412ZM93.0181 105.153C84.7492 105.153 84.6796 116.024 84.6796 131.312C84.6796 143.562 85.543 149.125 86.0585 153.58C86.118 153.563 86.1779 153.547 86.2374 153.53C86.2743 153.273 86.2727 153 86.3562 152.762C86.5596 152.178 87.0082 151.836 87.4632 151.836C87.7523 151.836 88.0429 151.974 88.2758 152.276C89.6398 154.044 90.537 153.341 93.0615 155.855C93.2831 156.075 93.3698 156.353 93.3698 156.646C93.3698 157.319 92.9983 157.769 92.766 158.179C94.4592 158.323 98.1919 157.489 98.6458 157.39C98.8953 157.335 103.918 157.696 103.918 135.879C103.918 110.091 102.45 105.153 93.0181 105.153ZM66.7173 217.674C66.1751 220.464 65.9095 223.267 65.8656 226.289C79.1959 225.001 91.5883 223.969 98.1608 217.674H66.7173ZM75.7373 229.438C75.7373 228.591 75.696 228.62 75.696 228.362C72.9997 228.252 68.6332 229.158 65.8453 229.511C67.2269 253.324 87.4081 260.31 90.6044 260.31C90.6649 260.31 90.7264 260.309 90.7885 260.307C90.5182 260.054 75.7351 248.248 75.7351 229.883C75.7351 229.632 75.7373 229.551 75.7373 229.438ZM63.301 226.545C63.5761 223.513 63.8384 220.617 64.1136 217.587C63.3245 217.587 62.5644 217.589 61.8155 217.589C58.9521 217.589 57.988 217.72 57.988 214.905C57.988 186.111 39.0354 46.1061 130.723 46.1061C151.646 46.1061 164.957 56.6219 166.949 57.9298C167.95 53.0094 169.009 41.4782 197.705 41.4782C224.562 41.4782 232.209 61.3164 268.431 61.3164C279.976 61.3164 313.066 55.9277 331.26 55.9277C338.364 55.9277 342.302 56.5373 346.749 57.1118C349.45 42.3202 361.947 41.4671 363.472 41.4671C372.767 41.4671 380.515 49.6597 380.515 59.9921C380.515 62.8438 379.912 65.8211 378.58 68.7609C390.367 75.9305 402.161 84.9603 402.161 102.57C402.161 109.283 401.669 112.609 401.669 118.397C401.669 133.069 405.141 139.194 405.141 150.506C405.141 175.825 380.037 177.843 374.822 177.843C368.595 177.843 359.172 176.28 352.849 176.28C327.695 176.28 323.758 200.139 290.49 200.139C271.401 200.139 252.656 184.267 235.715 184.267C221.845 184.267 216.953 197.474 206.596 197.474C201.984 197.474 198.088 194.002 193.464 192.011C193.461 192.076 192.348 215.633 192.348 215.696C192.348 219.235 206.066 229.387 210.919 235.935C213.296 239.14 225.859 239.608 232.051 252.076C232.465 252.911 233.011 253.669 233.658 254.726C236.89 223.197 238.039 214.011 238.039 212.029C238.039 211.553 238.012 211.417 238.012 211.15C238.012 209.96 238.541 209.313 239.595 209.313C239.646 209.313 386.608 222.363 386.608 224.692C386.608 224.747 379.114 319.09 376.532 321.391C374.83 322.907 371.241 326.241 370.078 327.355C376.091 330.082 376.955 336.009 376.955 337.611C376.955 338.83 376.562 349.366 376.454 355.332C376.29 364.462 344.069 364.925 327.058 364.925C224.755 364.925 227.518 344.426 203.775 341.71C202.37 341.548 201.948 341.051 201.948 339.564C201.948 339.508 202.583 323.746 202.762 322.192C202.871 321.236 203.386 320.702 204.14 320.702C205.531 320.702 205.524 322.351 205.524 322.452C205.524 322.507 204.872 337.403 204.872 337.84C204.872 338.092 204.901 338.349 204.916 338.638C215.96 340.323 217.644 342.413 224.149 346.099C224.73 340.51 225.29 335.126 225.849 329.739C220.747 326.288 210.555 316.332 188.374 316.332C155.323 316.332 148.377 336.204 123.8 336.204C116.773 336.204 109.983 334.221 109.158 334.221C108.22 334.221 67.3013 366.233 32.3837 366.233C10.9408 366.233 -0.000366211 352.97 -0.000366211 337.612C-0.000366211 326.336 6.2756 234.054 63.301 226.545Z" fill="black"/>
</g>
<path fill-rule="evenodd" clip-rule="evenodd" d="M59.085 38.4134C67.5049 38.4134 69.956 35.884 70.5663 35.884C71.7365 35.884 71.1615 37.7998 78.0702 38.1221C78.0927 38.0292 78.1158 37.9358 78.1388 37.8424C76.9488 36.6349 75.7588 35.4274 74.4109 34.06C76.5789 32.9599 81.7344 28.0792 81.7344 21.3791C81.7344 11.3111 70.6445 2.74141 57.4475 2.74141C44.1044 2.74141 34.8719 10.6513 34.8719 19.7687C34.8719 30.3622 46.8869 38.4134 59.085 38.4134ZM57.2318 6.10352e-05C71.5529 6.10352e-05 84.1947 9.44444 84.1947 21.3931C84.1947 28.2976 80.2072 32.2009 78.2068 34.4879C82.0289 37.3525 82.5069 37.4518 82.5069 38.5022C82.5069 38.9786 82.6 40.6678 77.0847 40.6678C72.9548 40.6678 71.169 39.1497 70.4239 39.1497C69.7853 39.1497 65.4792 41.1116 59.1637 41.1116C47.3414 41.1116 32.4164 33.3313 32.4164 19.7606C32.4164 8.01041 44.4866 6.10352e-05 57.2318 6.10352e-05Z" fill="black"/>
<path fill-rule="evenodd" clip-rule="evenodd" d="M212.926 115.606C213.953 115.725 213.984 116.131 216.881 119.206C217.012 119.345 217.211 119.407 217.558 119.609C217.136 118.303 216.775 117.183 216.383 115.97C216.874 115.818 217.207 115.667 217.551 115.617C222.574 114.881 227.86 109.537 227.86 102.084C227.86 91.9919 219.787 88.1581 215.066 88.1581C206.725 88.1581 202.396 95.9717 202.396 102.052C202.396 110.541 208.82 115.132 212.926 115.606ZM215.132 85.415C222.616 85.415 230.338 91.9195 230.338 101.97C230.338 103.655 230.417 113.121 219.591 117.943C220.8 120.36 221.124 120.839 221.124 121.426C221.124 122.669 219.346 122.947 218.778 122.947C215.956 122.947 213.789 118.674 211.991 118.241C204.775 116.505 199.928 109.799 199.928 102.043C199.928 92.1683 207.444 85.415 215.132 85.415Z" fill="black"/>
<path fill-rule="evenodd" clip-rule="evenodd" d="M368.23 119.632C367.823 120.86 367.451 121.982 367.029 123.256C369.592 122.057 369.883 119.604 371.464 119.376C375.691 118.766 382.203 114.453 382.203 105.686C382.203 98.5947 377.191 91.8222 369.352 91.8222C362.156 91.8222 356.745 98.3501 356.745 105.667C356.745 117.559 367.358 119.395 368.23 119.632ZM354.262 105.682C354.262 94.6611 363.037 89.1153 369.491 89.1153C376.017 89.1153 384.67 94.7481 384.67 105.637C384.67 110.964 381.94 119.681 372.601 121.919C370.902 122.327 368.488 126.618 365.885 126.618C365.688 126.618 363.472 126.398 363.472 125.144C363.472 124.57 363.773 124.101 365.018 121.641C364.717 121.502 354.262 117.875 354.262 105.682Z" fill="black"/>
<path fill-rule="evenodd" clip-rule="evenodd" d="M304.738 100.999C304.745 101.087 304.748 101.173 304.748 101.259C304.748 102.51 304.038 103.468 303.689 104.741C306.199 103.367 306.502 101.096 308.556 100.74C314.06 99.7849 318.908 94.2555 318.908 87.1624C318.908 80.1657 313.865 73.2805 306.153 73.2805C298.684 73.2805 293.437 79.9981 293.437 87.1828C293.437 98.0531 302.358 100.42 304.738 100.999ZM290.99 87.048C290.99 77.7805 297.868 70.5905 306.164 70.5905C315.34 70.5905 321.404 78.9127 321.404 87.0608C321.404 87.3831 321.674 99.8876 309.569 103.311C307.421 103.919 305.154 108.076 302.613 108.076C302.012 108.076 300.176 107.686 300.176 106.597C300.176 106.044 300.443 105.622 301.643 103.219C301.189 102.529 290.99 99.7393 290.99 87.048Z" fill="black"/>
<path fill-rule="evenodd" clip-rule="evenodd" d="M173.933 122.883C172.105 122.883 172.22 118.258 166.242 115.868C166.207 115.853 164.867 115.54 164.867 114.304C164.867 113.079 165.867 112.761 166.445 112.761H166.45C171.871 114.238 175.306 119.872 175.306 121.386C175.306 122.407 174.5 122.883 173.933 122.883Z" fill="black"/>
<path fill-rule="evenodd" clip-rule="evenodd" d="M161.638 135.469C160.155 135.469 159.621 134.568 159.544 133.185C159.911 131.383 160.014 129.338 161.584 129.338C163.214 129.338 163.457 131.599 163.457 132.267C163.457 132.326 163.414 135.469 161.638 135.469Z" fill="black"/>
<path fill-rule="evenodd" clip-rule="evenodd" d="M147.816 133.961C146.554 133.961 146.377 132.539 146.343 132.199C146.316 131.94 146.317 131.678 146.305 131.417C146.265 131.403 146.224 131.388 146.183 131.374C146.71 129.462 146.778 128.134 148.169 128.134C148.757 128.134 149.839 128.342 149.839 130.905C149.839 131.155 149.836 133.961 147.816 133.961Z" fill="black"/>
<path fill-rule="evenodd" clip-rule="evenodd" d="M167.736 136.524C169.273 136.626 169.251 138.007 169.251 138.064C169.251 138.883 168.847 139.319 166.15 140.845C165.844 141.018 165.553 141.1 165.285 141.1C164.457 141.1 163.934 140.269 163.934 139.586C163.934 138.549 164.808 138.051 166.972 136.804C167.247 136.646 167.568 136.583 167.736 136.524Z" fill="black"/>
<path fill-rule="evenodd" clip-rule="evenodd" d="M142.163 161.383C142.856 161.383 144.465 160.945 145.389 160.54C146.392 160.099 147.106 159.281 147.47 157.92C140.089 155.528 140.7 152.211 139.275 152.211C138.688 152.211 138.345 154.192 138.345 155.47C138.345 158.007 139.667 161.383 142.163 161.383ZM135.916 154.903C135.916 154.822 135.859 149.459 139.267 149.459C142.818 149.459 142.526 153.505 146.775 154.84C148.554 155.4 150.008 155.909 150.008 157.632C150.008 157.791 149.813 161.148 146.875 162.711C146.012 163.17 143.913 164.063 142.253 164.063C138.265 164.063 135.919 159.819 135.919 155.47C135.919 155.386 135.919 155.302 135.921 155.217C135.917 155.113 135.916 155.008 135.916 154.903Z" fill="black"/>
<path fill-rule="evenodd" clip-rule="evenodd" d="M141.057 139.125C141.035 139.125 141.013 139.124 140.99 139.124C139.427 138.413 140.042 138.638 137.911 137.423C137.293 137.071 136.975 136.625 136.975 136.111C136.975 135.702 137.339 134.573 138.343 134.573C138.746 134.573 139.011 134.631 141.737 136.563C142.085 136.81 142.406 137.309 142.406 137.82C142.406 138.515 141.864 139.125 141.057 139.125Z" fill="black"/>
<path fill-rule="evenodd" clip-rule="evenodd" d="M281.59 157.847C281.663 157.705 286.595 146.382 286.595 145.646C286.595 145.183 286.865 145.962 282.11 134.528C282.047 134.377 281.945 134.246 281.659 134.129C281.556 142.017 281.454 149.905 281.351 157.794C281.431 157.811 281.51 157.829 281.59 157.847ZM293.509 162.057C291.695 157.675 289.956 153.474 288.083 148.948C286.161 153.544 284.365 157.836 282.473 162.358C286.282 162.254 289.795 162.158 293.509 162.057ZM294.941 133.3C294.853 133.285 294.766 133.27 294.679 133.256C294.541 133.547 289.619 144.854 289.619 145.71C289.619 146.441 293.73 156.271 294.162 156.787C294.478 154.061 294.303 153.939 294.941 133.3ZM282.693 129.404C284.487 133.743 286.209 137.908 287.94 142.095C288.552 141.461 292.932 131.215 293.376 129.404H282.693ZM279.039 145.202C279.279 126.145 278.622 126.622 281.085 126.622C281.241 126.622 281.398 126.626 281.554 126.626C299.67 126.626 293.668 126.401 295.604 126.401C296.823 126.401 297.516 128.004 297.516 129.939C297.516 130.442 297.472 130.163 296.631 163.274C296.59 164.917 297.348 165.07 281.229 165.07C280.692 165.07 280.185 164.978 279.827 164.476C279.249 163.668 278.807 162.855 278.807 161.736C278.807 161.367 278.813 163.179 279.045 145.202H279.039Z" fill="black"/>
<path fill-rule="evenodd" clip-rule="evenodd" d="M366.02 60.602C365.918 62.0226 365.37 62.6584 364.201 62.6584C364.118 62.6584 356.703 61.9881 355.921 61.6436C355.447 61.4346 355.18 61.027 355.18 60.4706C355.18 59.0576 356.598 59.1726 356.667 59.1726C356.99 59.1726 357.023 59.1808 363.54 59.8709C364.385 53.1498 363.533 50.0295 365.428 50.0295C366.732 50.0295 366.631 51.5949 366.631 51.672C366.631 52.1216 366.028 60.4969 366.02 60.602Z" fill="black"/>
<path fill-rule="evenodd" clip-rule="evenodd" d="M69.449 17.3777C69.3371 18.1523 69.2523 18.7364 69.1465 19.4702C68.3504 18.9617 68.0024 18.426 67.9464 17.4866C68.4477 17.4502 68.8755 17.4191 69.449 17.3777ZM69.4773 24.1511C69.3118 24.7335 68.6525 25.2197 67.5957 25.3618C67.7621 24.3155 67.903 23.432 68.0478 22.5223C69.1332 22.8681 69.6978 23.3751 69.4773 24.1511ZM65.6106 22.1854C65.5634 22.1807 65.5161 22.176 65.4689 22.1713C65.2013 24.6171 64.3518 27.1324 67.293 27.9683C69.8734 28.7017 71.7686 26.2175 72.1743 24.7899C72.7518 22.7581 71.3082 22.5665 71.8101 20.1014C72.3028 17.6834 72.6302 15.4298 70.2593 14.756C68.5812 14.279 65.9153 14.6667 65.3002 16.8311C64.7038 18.9298 66.3525 19.8502 65.9099 21.4075C65.8353 21.6698 65.7048 21.9256 65.6106 22.1854Z" fill="black"/>
<path fill-rule="evenodd" clip-rule="evenodd" d="M46.0014 16.0597C46.1601 16.1048 46.085 16.0673 46.2804 16.3288C45.225 19.1926 43.4497 18.9695 43.3508 18.9413C42.7853 18.7806 42.9817 17.988 43.0283 17.8241C43.3626 16.6479 44.8204 15.724 46.0014 16.0597ZM42.6462 21.5175C43.8027 21.8462 44.8793 21.4241 45.6762 21.2171C45.5622 22.1786 45.2546 23.8131 46.4693 24.1584C46.7058 24.2256 47.698 24.3651 48.0364 23.1745C48.114 22.9014 48.7395 18.7341 49.0152 16.4923C49.2132 14.8882 47.372 13.8734 46.4558 13.613C43.2331 12.6971 41.0202 15.7158 40.4505 17.7201C39.9064 19.6347 41.288 21.1315 42.6462 21.5175Z" fill="black"/>
<path fill-rule="evenodd" clip-rule="evenodd" d="M51.1384 18.7931C50.7479 23.1481 50.3374 24.555 51.7189 24.9477C51.9868 25.0238 53.0524 25.1727 53.4152 23.8963C53.5103 23.5614 53.4799 23.7387 53.8146 19.0655C54.6946 19.0336 55.5448 19.0099 55.7792 18.1852C56.1343 16.9355 55.0549 16.646 54.5464 16.5015C54.3705 16.4515 54.1899 16.4051 54.014 16.3551L54.0077 16.3533C54.3337 13.8267 54.7506 12.4566 53.4952 12.0999C52.9688 11.9503 52.24 12.0528 51.9471 13.0831C51.7964 13.6134 51.5764 15.0609 51.4424 15.8138C50.7664 16.0255 50.0368 16.1352 49.8382 16.8341C49.5112 17.9846 50.6269 18.3005 51.1384 18.7931Z" fill="black"/>
<path fill-rule="evenodd" clip-rule="evenodd" d="M61.4341 26.3031C61.889 26.4324 62.6173 26.2718 62.8614 25.4129C63.0135 24.8778 62.9587 23.7285 63.2309 21.8086C63.8436 17.4946 64.5656 15.9487 63.2901 15.5863C62.4969 15.3608 61.975 16.1679 61.8059 16.763C60.8124 22.4075 59.7178 25.8153 61.4341 26.3031Z" fill="black"/>
<path fill-rule="evenodd" clip-rule="evenodd" d="M214.906 109.832C212.694 109.832 208.737 105.381 208.737 101.177C208.737 98.2119 210.335 96.9629 212.006 96.9629C213.148 96.9629 214.198 97.6017 215.506 98.136C216.17 97.8481 217.031 97.3419 218.131 97.3419C219.878 97.3419 221.092 98.6778 221.092 100.723C221.092 104.443 217.1 109.832 214.906 109.832Z" fill="black"/>
<path fill-rule="evenodd" clip-rule="evenodd" d="M363.595 104.177C363.595 103.671 363.651 101.061 366.417 101.061C368.186 101.061 368.019 101.72 369.13 101.72C369.588 101.72 370.028 101.54 370.475 101.174C370.724 100.969 371.742 100.664 372.501 100.664C374.492 100.664 375.894 102.258 375.894 104.775C375.894 108.835 372.044 113.52 369.678 113.52C367.972 113.52 363.595 109.066 363.595 104.177Z" fill="black"/>
<path fill-rule="evenodd" clip-rule="evenodd" d="M306.41 94.9832C304.237 94.9832 300.237 89.685 300.237 85.7502C300.237 83.7848 301.41 82.4681 303.031 82.4681C304.094 82.4681 304.506 82.9691 305.696 82.9691C307.2 82.9691 307.799 82.1038 309.25 82.1038C311.165 82.1038 312.569 83.8193 312.587 86.7661C312.174 91.7076 307.933 94.9832 306.41 94.9832Z" fill="black"/>
</svg>
