<svg width="327" height="234" viewBox="0 0 327 234" fill="none" xmlns="http://www.w3.org/2000/svg">
<path d="M134.545 54.1854C131.756 53.824 107.007 53.824 102.566 54.1854C102.49 54.202 102.423 54.2466 102.378 54.3104C102.334 54.3742 102.315 54.4525 102.325 54.5296C102.341 54.5872 102.372 54.6398 102.414 54.682C102.456 54.7243 102.509 54.7548 102.566 54.7706C106.559 55.1148 131.705 55.2697 134.459 54.9083C134.854 54.8738 134.975 54.237 134.545 54.1854ZM250.806 97.2477C250.462 97.2477 246.039 98.8139 247.209 99.4508L248.448 100.483C248.173 101.103 250.875 103.926 249.016 110.569C248.242 110.036 248.224 110.569 248.328 110.741C251.202 113.702 271.735 130.138 276.313 133.116C276.726 133.718 279.342 132.427 279.755 132.29C288.849 128.413 297.725 124.046 306.346 119.209C309.496 117.488 309.462 111.309 305.641 108.882C301.622 106.21 297.437 103.795 293.111 101.654L298.447 97.4715C298.825 97.1789 298.619 96.0946 297.173 97.2649C294.06 92.2345 292.8 86.2753 293.61 80.4152C293.817 80.2947 296.123 78.9178 295.108 78.4703C289.944 76.319 272.836 70.0369 267.57 69.7099C265.849 69.5894 252.08 80.6045 250.789 82.8248C248.035 87.4202 248.878 92.6696 250.892 97.2994L250.806 97.2477ZM249.429 110.827C251.15 108.951 250.617 103.805 249.791 101.533C252.148 103.427 271.098 117.712 277.122 121.533C280.375 128.417 276.743 131.756 276.864 132.272C266.778 125.268 258.568 117.264 249.429 110.827ZM305.52 110.053C308.395 111.533 307.741 117.695 305.675 118.417C296.312 123.426 287.053 127.935 277.38 132.186C278.65 130.472 279.344 128.399 279.359 126.266L292.612 120.827C292.853 120.707 292.612 120.38 292.423 120.431C287.973 121.919 283.616 123.672 279.377 125.681C279.343 124.008 278.823 122.381 277.879 120.999C281.924 119.398 302.594 108.676 305.52 110.053ZM276.829 92.5663C281.893 88.3733 287.191 84.4716 292.698 80.8799C292.296 82.9727 292.221 85.115 292.474 87.2308C291.631 87.5062 281.201 95.148 280.667 95.561C280.444 95.7331 280.667 96.0946 280.943 95.9569L292.595 88.0398C292.956 90.4665 294.419 95.9913 296.674 97.4887C294.385 99.3475 283.06 108.315 280.306 108.315C278.241 106.323 276.813 103.764 276.2 100.962C275.587 98.1591 275.818 95.2378 276.864 92.5663H276.829ZM274.575 77.7131C275.779 78.7457 270.788 81.6544 270.599 81.7061C270.031 81.8782 269.652 81.293 270.874 80.1226C271.494 79.5891 273.766 77.0762 274.575 77.7303V77.7131ZM265.195 80.5873C266.055 78.8662 269.635 76.0092 271.15 74.9765C271.224 74.9245 271.308 74.8877 271.397 74.8682C271.486 74.8487 271.578 74.8469 271.667 74.8629C271.757 74.8789 271.842 74.9124 271.919 74.9614C271.995 75.0104 272.061 75.074 272.113 75.1486C272.165 75.2232 272.202 75.3073 272.222 75.3961C272.241 75.4849 272.243 75.5767 272.227 75.6662C272.211 75.7556 272.178 75.8411 272.129 75.9177C272.08 75.9943 272.016 76.0604 271.941 76.1124C270.599 77.1451 266.95 80.5701 265.935 81.2758C265.858 81.318 265.772 81.3401 265.685 81.3401C265.598 81.3401 265.512 81.318 265.436 81.2758C265.375 81.2481 265.321 81.2086 265.276 81.1596C265.231 81.1107 265.196 81.0533 265.174 80.9908C265.152 80.9283 265.142 80.8619 265.145 80.7956C265.149 80.7293 265.166 80.6643 265.195 80.6045V80.5873ZM252.562 83.5648C259.945 85.5684 267.199 88.0227 274.282 90.914C274.73 91.1378 274.575 91.8951 274.041 91.7918C266.662 89.7358 259.415 87.2356 252.338 84.3049C252.259 84.2609 252.198 84.1912 252.164 84.1076C252.13 84.024 252.126 83.9313 252.152 83.845C252.178 83.7587 252.233 83.6838 252.308 83.6329C252.382 83.582 252.472 83.5579 252.562 83.5648ZM251.288 98.0739C259.498 102.704 274.781 108.59 280.547 109.45C281.7 109.623 291.063 103.048 292.595 101.929C293.593 102.91 301.906 107.609 304.023 108.917C300.959 109.072 278.723 119.433 277.122 120.448C267.57 113.306 257.656 106.06 247.863 99.2614L251.305 98.0739H251.288ZM134.545 54.1854H134.562H134.545ZM162.496 21.3809C162.391 21.3379 162.273 21.3379 162.169 21.3809C161.153 22.0005 155.284 29.9865 154.096 31.4839C152.961 29.9349 151.807 28.4031 150.654 26.9057C150.43 26.6303 149.966 26.9057 150.138 27.2671C151.291 29.1087 152.53 30.8815 153.787 32.6542C153.993 32.9296 154.389 32.7919 154.561 32.5682C155.645 31.1913 162.547 22.8611 162.84 21.9145C162.852 21.8568 162.853 21.7972 162.843 21.7392C162.833 21.6811 162.811 21.6256 162.779 21.5761C162.747 21.5265 162.705 21.4837 162.657 21.4502C162.608 21.4167 162.553 21.3932 162.496 21.3809ZM129.674 57.5244C119.347 57.7309 107.902 57.5244 103.461 57.903C103.37 57.903 103.282 57.9393 103.218 58.0038C103.153 58.0684 103.117 58.1559 103.117 58.2472C103.117 58.3385 103.153 58.4261 103.218 58.4906C103.282 58.5552 103.37 58.5915 103.461 58.5915C108.797 58.5915 125.405 59.1422 129.674 58.23C130.035 58.144 129.966 57.6276 129.674 57.5244ZM130.052 40.2271C130.397 40.2271 130.5 39.642 130.052 39.5903C126.61 39.074 105.957 40.0894 100.948 40.8639C100.857 40.8639 100.77 40.9002 100.705 40.9648C100.64 41.0293 100.604 41.1169 100.604 41.2082C100.604 41.2995 100.64 41.387 100.705 41.4516C100.77 41.5161 100.857 41.5524 100.948 41.5524C107.695 41.5524 123.03 40.5025 129.966 40.2616L130.052 40.2271ZM123.202 43.6694C123.495 43.6694 123.65 43.0842 123.202 42.9809C121.481 42.5506 104.27 42.9809 101.671 43.2735C101.63 43.2798 101.591 43.2941 101.556 43.3158C101.52 43.3375 101.49 43.366 101.466 43.3997C101.442 43.4334 101.425 43.4716 101.416 43.512C101.407 43.5524 101.406 43.5942 101.413 43.6349C101.422 43.7019 101.452 43.7643 101.498 43.8136C101.545 43.863 101.605 43.8967 101.671 43.9103C104.993 44.0996 121.172 44.2201 123.202 43.6694ZM159.897 53.1355C160.843 51.7586 150.465 52.2577 150.017 52.7224C149.57 53.1871 150.017 60.2609 150.017 60.915C150.017 61.9304 159.638 61.9132 160.017 61.6206C160.446 58.8201 160.446 55.9705 160.017 53.1699L159.897 53.1355ZM159.157 60.8461C158.244 60.8461 151.48 60.9666 150.93 60.5363C150.93 58.1095 150.775 55.7 150.689 53.2904H159.294C158.984 55.7972 158.938 58.3297 159.157 60.8461Z" fill="black"/>
<path d="M281.236 100.965C283.645 99.5368 286.107 98.1427 288.43 96.5937C288.757 96.37 288.43 95.7848 288.051 95.9913L280.978 100.569C280.938 100.608 280.913 100.66 280.907 100.715C280.901 100.771 280.914 100.827 280.944 100.873C280.975 100.92 281.02 100.955 281.074 100.971C281.127 100.988 281.184 100.986 281.236 100.965ZM263.887 119.863C263.68 119.726 263.405 120.053 263.612 120.225C265.333 121.722 273.801 127.643 275.659 128.951C275.9 129.123 276.107 128.727 275.883 128.555C272.269 125.801 267.725 122.17 263.887 119.863ZM152.393 47.146C153.288 47.146 160.293 47.955 160.224 46.8018C160.155 45.6487 160.052 39.0224 159.604 38.8158C159.484 37.6627 150.758 38.506 149.949 38.6609C149.45 38.6609 149.656 45.3733 149.691 46.1822C149.742 47.3526 151.619 47.1116 152.393 47.146ZM159.157 39.2117V46.4576C156.258 46.1593 153.339 46.1017 150.431 46.2855C150.545 43.9271 150.499 41.5638 150.293 39.2117C151.722 39.2117 158.245 39.4354 159.157 39.2117ZM275.281 125.646C275.324 125.683 275.379 125.703 275.436 125.703C275.492 125.703 275.547 125.683 275.591 125.646C275.624 125.608 275.643 125.559 275.643 125.508C275.643 125.458 275.624 125.409 275.591 125.371C267.708 119.777 259.877 113.048 252.132 107.798C251.908 107.626 251.564 107.953 251.787 108.177C256.125 112.308 269.67 121.946 275.35 125.732L275.281 125.646ZM297.328 115.767H297.363H297.328ZM160.19 27.4909C160.166 27.414 160.113 27.3495 160.042 27.3109C159.972 27.2724 159.889 27.2628 159.811 27.2844C159.759 27.2966 159.711 27.322 159.672 27.3582C159.633 27.3944 159.604 27.4401 159.587 27.4909V33.5148H150.052C149.885 30.7411 149.575 27.9779 149.123 25.2362C151.815 25.3613 154.513 25.2922 157.195 25.0297C157.255 25.0102 157.307 24.9705 157.342 24.9172C157.376 24.8638 157.391 24.8002 157.384 24.7371C157.374 24.7005 157.357 24.6663 157.333 24.6367C157.31 24.607 157.28 24.5827 157.247 24.565C156.61 24.3585 148.641 23.67 148.882 25.0469C148.09 25.0469 149.243 33.6525 149.243 33.6525C149.656 34.7024 151.395 34.3409 152.307 34.3409C153.219 34.3409 159.553 34.4958 160.069 34.3409C160.895 34.0139 160.431 28.5063 160.241 27.4565L160.19 27.4909Z" fill="black"/>
<path d="M326.501 183.631C304.574 184.973 282.641 186.12 260.703 187.073C260.416 183.934 259.84 180.829 258.982 177.796C280.782 177.222 302.583 176.551 324.384 175.782C324.495 175.769 324.599 175.72 324.68 175.642C324.76 175.564 324.814 175.463 324.831 175.352C324.846 175.218 324.807 175.083 324.724 174.977C324.64 174.87 324.518 174.801 324.384 174.784C302.491 175.599 280.605 176.27 258.723 176.798C253.56 158.795 242.665 141.67 229.964 128.107C229.568 123.529 229.55 121.223 227.588 116.628C223.802 107.936 219.62 106.129 219.723 108.194C219.722 108.738 219.809 109.279 219.981 109.795C219.293 108.934 214.233 103.668 213.2 106.507C212.438 106.028 211.579 105.727 210.685 105.626C209.791 105.524 208.886 105.626 208.037 105.922C204.818 100.759 199.431 100.759 195.989 99.0377C189.414 95.5955 192.443 84.6148 197.28 80.5185C197.28 80.5185 218.053 80.1227 218.071 79.8645C218.449 74.9938 222.597 0.865254 222.597 0.865254C171.411 -0.150204 116.335 0.865252 65.5281 1.89792C65.1838 1.89792 64.8913 2.12167 64.9257 2.43147C67.9893 28.5064 75.5105 81.8782 75.5105 81.8782C76.7498 82.3773 189.259 80.6218 195.989 80.5185C193.111 83.6576 191.535 87.7744 191.583 92.0328C191.927 102.876 200.55 98.2632 207.606 106.198C203.028 108.16 202.443 113.96 204.164 118.108C204.477 118.903 204.9 119.65 205.42 120.328C205.493 121.945 205.953 123.521 206.763 124.923C208.966 129.106 212.89 130.551 213.097 131.171C213.097 140.913 215.145 152.788 217.09 162.289C210.532 158.847 191.084 150.637 171.084 150.052C172.22 140.19 180.74 138.95 179.569 132.359C183.132 132.221 186.695 132.083 190.257 131.911C191.152 131.911 190.171 129.157 190.068 128.693C188.622 122.324 187.171 115.968 185.714 109.623C185.49 108.762 184.492 102.979 183.648 102.979L172.547 103.186C170.103 100.862 164.372 100.002 162.031 102.704C158.589 96.0774 147.952 97.0412 147.608 103.478C144.699 101.499 140.379 101.103 137.746 103.788C137.471 103.908 85.407 104.614 77.6619 104.924H77.5243C77.4406 104.977 77.3811 105.061 77.3586 105.158C77.336 105.254 77.3523 105.356 77.4038 105.44C77.5415 106.335 73.0494 127.574 72.5158 132.686C72.5158 133.408 80.3125 133.305 81.1214 133.305C70.003 146.334 60.0033 161.032 57.0258 178.226C38.2656 177.934 19.5054 177.469 0.74525 177.538C0.653957 177.538 0.566402 177.574 0.501848 177.639C0.437293 177.703 0.401027 177.791 0.401027 177.882C0.401027 177.973 0.437293 178.061 0.501848 178.125C0.566402 178.19 0.653957 178.226 0.74525 178.226C19.4194 179.035 38.1451 179.121 56.8364 179.259C56.2796 182.672 56.0491 186.129 56.148 189.586C37.5599 189.207 18.9719 188.622 0.401027 188.312C-0.0120405 188.312 -0.0808852 188.966 0.401027 188.966C18.9891 189.913 37.6116 190.257 56.234 190.532C56.716 199.878 60.3991 211.341 69.5555 215.54C73.3247 222.941 81.3107 229.602 90.2089 227.691C89.9507 229.034 89.7098 230.411 89.4516 231.787C89.3483 232.407 90.2777 232.665 90.381 232.046C92.911 218.414 95.5444 204.714 99.9676 191.565C100.105 191.152 99.4857 190.997 99.3308 191.393C95.028 202.821 92.6012 214.834 90.3638 226.796C81.2591 228.122 73.996 222.321 70.2267 214.473C68.1989 210.326 67.0258 205.813 66.7775 201.204C66.5291 196.594 67.2105 191.982 68.781 187.641C73.4796 175.593 85.9921 166.987 98.2809 161.101C110.776 155.18 124.195 151.448 137.953 150.069C138.934 159.26 149.501 162.375 157.556 161.893C165.611 161.411 170.378 158.95 171.067 150.826C171.17 150.826 200.137 151.463 225.144 168.175C232.494 173.08 239.172 179.379 243.078 187.383C246.899 195.11 248.242 204.594 244.8 212.649C239.877 224.387 230.893 226.091 224.938 227.14C222.832 214.538 218.767 202.342 212.89 190.997C212.735 190.704 212.253 190.894 212.408 191.204C218.537 204.42 222.717 218.455 224.817 232.872C224.817 233.319 225.712 233.44 225.712 232.872C225.643 231.296 225.435 229.73 225.093 228.19C231.583 227.632 237.593 224.54 241.822 219.585C255.591 216.143 261.598 201.255 260.754 188.14C282.739 187.245 304.7 186.098 326.639 184.698C327.241 184.474 327.017 183.631 326.501 183.631ZM75.5794 71.0008C72.1372 49.1082 69.4006 27.3188 66.2854 5.409C117.919 4.51402 170.895 4.89267 221.823 4.03211L217.847 68.5912C196.35 69.2452 78.3504 69.9165 75.5794 71.0008ZM179.363 131.395C179.048 130.477 178.444 129.686 177.642 129.14C178.534 127.721 179.016 126.083 179.036 124.407H179.965L181.256 131.291L179.363 131.395ZM177.917 118.779C178.212 118.542 178.482 118.277 178.726 117.987C179.139 119.829 179.483 121.67 179.827 123.512H179.001C179.086 121.864 178.71 120.226 177.917 118.779ZM189.689 130.947L181.772 131.291C181.566 128.968 181.118 126.679 180.705 124.407C183.179 124.489 185.656 124.426 188.123 124.218C188.64 126.438 189.173 128.71 189.689 130.947ZM187.968 123.426H180.568L179.328 116.972L186.471 116.765L187.968 123.426ZM186.247 116.025L179.518 116.232C179.647 115.415 179.589 114.581 179.347 113.79C179.106 113 178.687 112.275 178.124 111.671C178.02 111.154 177.917 110.621 177.779 110.087L184.87 109.932L186.247 116.025ZM183.614 103.736C183.993 105.458 184.337 107.299 184.681 109.089L177.607 109.21C177.246 107.4 176.78 105.613 176.213 103.857L183.614 103.736ZM177.108 111.034C176.27 110.653 175.324 110.586 174.44 110.845C174.519 110.631 174.583 110.413 174.63 110.191H176.902L177.108 111.034ZM175.387 103.874C175.71 105.681 176.135 107.468 176.661 109.227H174.75C174.947 107.32 174.419 105.409 173.27 103.874H175.387ZM133.719 104.614H137.04C136.339 105.699 136.092 107.015 136.352 108.28L133.426 109.123C133.564 107.643 133.719 105.991 133.719 104.614ZM132.789 104.614V109.416C132.498 109.589 132.216 109.779 131.946 109.984L123.805 110.122C123.88 108.336 123.829 106.547 123.65 104.769L132.789 104.614ZM129.175 117.092H123.753V111.068L130.81 110.948C130.064 111.765 129.525 112.75 129.241 113.82C128.956 114.89 128.934 116.012 129.175 117.092ZM123.788 125.061H128.487C128.553 126.563 129.109 128.001 130.07 129.157C129.502 129.55 129.045 130.083 128.744 130.704C128.442 131.325 128.306 132.014 128.349 132.703H123.702C123.753 130.121 123.788 127.591 123.788 125.061ZM128.951 122.978C128.8 123.338 128.691 123.713 128.624 124.097H123.874V117.884H129.433C129.807 118.911 130.478 119.804 131.361 120.448C130.285 121.005 129.417 121.892 128.882 122.978H128.951ZM123.185 132.686H101.861C102.085 129.725 101.861 127.866 103.771 125.319L122.996 125.095C122.979 127.625 123.031 130.156 123.117 132.686H123.185ZM104.477 124.373C106.268 122.562 107.622 120.366 108.436 117.953H112.738V124.269L104.477 124.373ZM113.84 104.958L122.858 104.803C122.762 106.586 122.762 108.373 122.858 110.156L113.788 110.311C113.788 108.538 113.805 106.748 113.84 104.958ZM113.719 111.258L122.824 111.103V117.127H113.599C113.599 115.165 113.599 113.22 113.719 111.258ZM113.599 117.936H122.91V124.149L113.22 124.269C113.358 122.152 113.461 120.104 113.599 117.936ZM104.993 105.113L113.237 104.976L113.048 110.328L104.649 110.466C104.853 108.69 104.917 106.9 104.838 105.113H104.993ZM104.58 111.395L113.031 111.258L112.876 117.109H108.659C108.866 116.163 109.244 114.614 108.126 114.098C107.007 113.581 105.94 116.163 103.875 117.092C104.064 115.199 104.236 113.306 104.425 111.413L104.58 111.395ZM97.2138 105.251L104.322 105.131C104.076 106.906 103.921 108.692 103.857 110.483H103.272C104.012 108.676 100.019 107.506 96.577 110.483C96.6287 109.605 97.1106 105.836 97.0589 105.251H97.2138ZM103.634 111.499C103.513 113.375 103.41 115.233 103.289 117.109H100.604C100.088 115.595 100.604 112.032 101.981 111.499H103.599H103.634ZM96.1812 105.303L95.9058 110.638H92.6873C91.4137 107.988 92.2226 105.974 90.9662 105.337L96.1812 105.303ZM95.4927 111.602C95.0959 112.099 94.7607 112.642 94.4945 113.22L93.2208 111.654L95.4927 111.602ZM84.4948 105.526L90.0196 105.423C88.2984 106.249 88.0403 109.175 88.0403 110.776H85.4414C84.5636 110.018 84.185 110.776 83.5309 110.776L84.4604 105.423L84.4948 105.526ZM88.3157 114.27C87.3606 113.632 86.5844 112.761 86.061 111.74H88.0059C88.0264 112.588 88.1069 113.433 88.2468 114.27H88.3157ZM82.6188 116.851L83.4449 111.791C83.2724 113.538 83.4899 115.302 84.0817 116.955L82.6188 116.851ZM84.3399 117.695C85.0455 120.053 86.061 122.204 86.5429 124.579L81.3796 124.682L82.4122 117.677L84.3399 117.695ZM78.0922 105.544H83.7375C83.4105 107.265 83.1007 109.123 82.7909 110.931C80.9149 110.931 79.0216 111.034 77.1456 111.12C77.5509 109.281 77.8441 107.418 78.0234 105.544H78.0922ZM77.0251 111.826H82.6188C82.3606 113.547 82.0852 115.268 81.8098 116.869H76.0441C76.3367 115.147 76.6465 113.478 76.9563 111.826H77.0251ZM75.9753 117.471C77.8685 117.574 79.7617 117.626 81.6549 117.66C81.3279 119.984 80.9493 122.342 80.6395 124.682C78.6258 124.682 76.6121 124.82 74.5984 124.906C75.0631 122.428 75.5105 119.949 75.9753 117.471ZM79.8478 132.393H73.2043C73.6345 130.087 74.082 127.798 74.5467 125.509L80.519 125.663C80.1559 127.892 79.9089 130.138 79.7789 132.393H79.8478ZM80.3297 132.393L81.3451 125.509H86.6978C86.7494 125.966 86.7494 126.428 86.6978 126.885L81.8615 132.41L80.3297 132.393ZM68.6089 185.283C66.5958 189.87 65.5895 194.835 65.6577 199.843C65.726 204.852 66.8673 209.788 69.0047 214.318C52.3443 203.062 55.8898 178.175 62.9808 162.272C68.781 149.243 77.9718 138.176 87.3863 127.557C88.7631 125.99 84.3055 115.509 84.1506 112.944C84.0473 111.034 84.839 110.638 85.5447 111.998C86.2503 113.357 87.2658 114.906 88.6599 115.233C89.2106 116.851 89.6409 116.335 89.5721 116.077C88.9869 113.237 87.9714 109.192 89.8647 106.576C91.2416 104.752 91.1899 108.108 91.3276 108.762C91.6546 110.328 93.0487 113.357 94.3051 113.925C93.8749 115.147 94.5977 114.717 94.6494 114.562C97.0934 108.142 104.563 109.055 102.153 110.638C101.518 111.017 100.978 111.537 100.575 112.158C100.173 112.779 99.9176 113.483 99.8299 114.218C98.9522 120.294 103.737 119.381 107.214 115.147C108.659 113.426 108.728 117.127 106.439 120.861C104.494 124.028 101.861 125.164 101.551 129.312C100.69 139.45 98.6079 151.549 97.2138 160.464C85.7856 165.989 74.0992 173.459 68.54 185.3L68.6089 185.283ZM98.1088 160C99.7893 151.248 100.99 142.411 101.706 133.529H128.4C129.399 139.295 136.559 140.069 137.712 149.019C123.975 150.362 110.576 154.077 98.1088 160ZM170.774 146.11C170.346 147.464 170.069 148.861 169.948 150.275C169.26 157.573 166.162 160 158.055 160.602C149.45 161.308 140.121 158.588 138.813 149.312C137.66 141.05 135.01 141.773 130.758 135.99C129.485 134.269 128.349 131.068 130.758 129.725C131.942 131.026 133.425 132.018 135.078 132.617C138.796 140.964 140.052 150.585 150.861 151.652C171.755 153.597 167.074 142.221 173.7 132.29C174.988 131.694 176.155 130.866 177.142 129.846C177.894 130.474 178.413 131.336 178.615 132.294C178.818 133.252 178.694 134.251 178.261 135.13C176.575 139.209 172.513 140.758 170.774 146.11ZM213.424 107.506C214.009 108.814 214.611 110.105 215.145 111.413C214.301 110.328 210.171 105.819 208.794 108.229C208.088 109.485 209.568 111.361 210.171 112.48C207.861 112.889 205.796 114.17 204.405 116.06C202.202 108.056 209.981 104.063 213.424 107.506ZM205.644 119.226C205.317 118.418 204.973 117.591 204.629 116.782C206.139 115.014 208.169 113.767 210.429 113.22C211.397 115.219 212.025 117.365 212.288 119.571C212.752 123.977 209.379 120.827 207.744 119.312C207.107 118.658 206.04 118.383 205.558 119.226H205.644ZM242.906 218.036C248.603 210.05 248.844 199.74 245.54 190.722C240.858 177.968 229.723 169.036 218.002 162.788C215.748 152.38 214.287 141.817 213.63 131.188C213.63 129.57 208.157 128.469 206.453 122.118C206.143 120.965 205.506 117.936 207.589 120.104C209.672 122.273 213.217 124.269 213.062 119.519C212.856 113.891 209.035 110.139 209.379 108.865C209.809 107.265 212.993 110.277 213.51 110.793C214.855 112.273 216.075 113.862 217.158 115.543C217.348 115.819 217.812 115.543 217.64 115.285C217.239 114.597 216.826 113.908 216.401 113.22C216.677 112.635 213.579 107.161 214.129 106.645C214.68 106.129 217.158 107.919 217.709 108.366C220.583 110.862 220.721 112.531 221.702 113.822C221.747 113.838 221.795 113.838 221.84 113.822C221.901 113.827 221.962 113.809 222.01 113.77C222.058 113.732 222.089 113.676 222.098 113.616C221.995 112.514 221.358 111.894 221.048 111.137C220.738 110.38 220.102 108.676 220.532 108.074C220.738 107.901 221.926 108.779 222.064 108.917C223.199 110.005 224.147 111.272 224.869 112.669C230.136 121.67 228.552 127.471 229.447 128.348C242.51 143.064 256.469 164.612 259.291 184.061C261.202 197.554 256.951 213.285 242.82 218.036H242.906Z" fill="black"/>
<path d="M118.074 30.6061C118.469 30.4856 118.315 29.9177 117.953 29.866C111.688 29.9865 105.027 29.866 98.8487 30.0381C98.3668 30.0381 98.4356 30.7782 98.8487 30.8471C102.016 31.3634 115.32 31.4495 118.074 30.6061ZM282.389 122.651C284.729 121.636 296.158 117.023 297.517 116.249C297.543 116.226 297.563 116.198 297.577 116.167C297.591 116.136 297.599 116.102 297.599 116.068C297.599 116.034 297.591 116 297.577 115.969C297.563 115.938 297.543 115.91 297.517 115.887C297.489 115.846 297.45 115.812 297.405 115.791C297.359 115.77 297.309 115.762 297.259 115.767C294.368 116.369 285.005 120.827 282.096 122.273C281.941 122.393 282.148 122.755 282.389 122.651ZM166.953 82.2396L130.466 82.7904C132.032 100.483 167.418 100.759 166.953 82.2396ZM166.953 44.3751C166.953 44.4498 166.982 44.5217 167.033 44.5761C167.084 44.6305 167.154 44.6632 167.229 44.6676C173.063 44.8053 185.404 45.1668 190.068 44.53C190.447 44.53 190.326 43.8931 190.068 43.8931C183.476 43.8931 173.958 43.8931 167.315 44.0825C167.271 44.0719 167.225 44.0715 167.182 44.0814C167.138 44.0912 167.097 44.1111 167.062 44.1394C167.027 44.1677 166.999 44.2037 166.98 44.2446C166.961 44.2854 166.952 44.3301 166.953 44.3751ZM117.041 18.5583C117.523 18.5583 117.316 17.8699 116.92 17.801C105.062 18.1452 92.1535 18.4034 80.5876 18.6616C80.5489 18.6678 80.5119 18.6817 80.4787 18.7025C80.4455 18.7233 80.4168 18.7506 80.3943 18.7827C80.3718 18.8148 80.356 18.8511 80.3478 18.8894C80.3397 18.9277 80.3393 18.9673 80.3467 19.0058C80.3567 19.0661 80.3852 19.1218 80.4285 19.165C80.4717 19.2082 80.5273 19.2368 80.5876 19.2468C89.0039 19.8491 106.112 18.9369 117.041 18.5583ZM123.667 14.6169C124.063 14.6169 124.184 13.9285 123.667 13.8769C119.812 13.4122 81.7924 14.0318 79.1419 14.6169C78.8837 14.6169 78.9009 15.1333 79.1419 15.1333C88.9006 15.1161 112.291 14.4448 123.667 14.6169ZM48.8503 137.556V137.539V137.556ZM49.5731 137.849C50.8991 135.396 51.9165 132.789 52.6023 130.087C52.9227 129.158 52.996 128.162 52.815 127.196C52.6339 126.231 52.2047 125.329 51.5696 124.579C52.1943 123.007 52.5155 121.331 52.5162 119.639C52.172 116.834 49.1945 117.006 47.5938 119.158C41.1396 127.763 34.0142 141.532 34.2208 152.117C34.1003 152.616 34.3584 153.184 34.8059 152.771C42.4471 145.2 48.0993 135.859 51.2598 125.577C53.4112 128.779 50.0895 134.303 48.8503 137.539C48.6953 137.969 49.3494 138.228 49.5731 137.849ZM34.8748 151.411C35.001 149.501 35.2656 147.603 35.6665 145.732L38.317 147.642C37.1983 148.881 36.0451 150.172 34.8748 151.411ZM50.864 123.873C49.6985 122.895 48.2988 122.237 46.8021 121.963C47.3772 120.912 48.0701 119.931 48.8675 119.037C49.642 118.314 51.1221 118.022 51.5696 119.244C51.7215 120.81 51.4789 122.39 50.864 123.839V123.873ZM94.6664 36.1997C93.9091 36.5095 89.503 43.0842 88.6941 44.2374C87.6927 42.9067 86.5372 41.6992 85.2519 40.6402C85.1801 40.6069 85.0987 40.6008 85.0227 40.623C84.9468 40.6451 84.8814 40.6941 84.8388 40.7607C84.8137 40.8273 84.8137 40.9007 84.8388 40.9672C85.8202 42.5742 86.9745 44.069 88.281 45.4249C88.3278 45.4766 88.3849 45.5179 88.4487 45.5462C88.5124 45.5745 88.5813 45.5891 88.6511 45.5891C88.7208 45.5891 88.7897 45.5745 88.8535 45.5462C88.9172 45.5179 88.9743 45.4766 89.0211 45.4249V45.3389L94.6664 37.6283C95.4581 36.5096 95.2343 35.9072 94.6664 36.1997ZM197.933 27.1639C198.295 27.1639 198.364 26.4754 197.933 26.4238C187.195 25.8898 176.433 26.045 165.714 26.8885C165.353 26.8885 165.387 27.5253 165.714 27.5081C173.838 27.4393 189.07 27.6974 197.933 27.1639Z" fill="black"/>
<path d="M94.6668 46.6297C95.3552 46.3543 93.9783 41.2254 93.789 40.4165C93.7833 40.3803 93.7706 40.3456 93.7516 40.3144C93.7325 40.2831 93.7075 40.2559 93.6779 40.2344C93.6483 40.2128 93.6148 40.1972 93.5792 40.1886C93.5437 40.18 93.5067 40.1785 93.4706 40.1841C93.4344 40.1898 93.3997 40.2025 93.3685 40.2215C93.3372 40.2406 93.31 40.2656 93.2885 40.2952C93.2669 40.3248 93.2513 40.3583 93.2427 40.3939C93.2341 40.4294 93.2326 40.4664 93.2382 40.5025C93.4448 42.3441 93.6513 44.2029 93.9955 46.0101C91.1213 46.2338 88.5224 46.2166 85.7169 46.3371C85.2006 44.0997 84.7531 41.1738 83.9958 38.9535C86.1606 39.1355 88.3369 39.1355 90.5017 38.9535C91.9302 38.9535 91.8269 38.0585 90.6049 38.0758C89.882 38.0758 83.7205 37.9553 83.7205 38.6954C82.9115 38.6954 84.6154 45.9068 84.7187 46.3887C84.7365 46.4745 84.7811 46.5525 84.846 46.6112C84.911 46.67 84.993 46.7066 85.0801 46.7158C85.2867 47.6107 94.3397 47.4731 94.6668 46.6297ZM198.898 40.5886C198.882 40.5217 198.845 40.4618 198.792 40.4181C198.739 40.3745 198.674 40.3497 198.605 40.3476C188.175 40.0723 177.022 40.5714 166.455 40.5542C166.145 40.5542 166.128 41.0705 166.455 41.1049C175.714 41.7245 190.034 42.1032 198.674 40.9672C198.752 40.9432 198.817 40.8912 198.859 40.8211C198.9 40.7511 198.914 40.6682 198.898 40.5886ZM85.3211 34.186C87.7354 34.2533 90.1514 34.144 92.5498 33.859C94.0472 34.2377 91.7581 24.8404 91.4827 24.4101C91.4464 24.329 91.385 24.2618 91.3074 24.2184C91.2299 24.1749 91.1405 24.1577 91.0524 24.1691C89.5034 24.1691 82.3091 24.1691 81.2937 24.3929C80.0545 23.3946 81.8616 31.8797 82.1198 32.8952C82.6189 34.5991 83.7205 34.186 85.3211 34.186ZM81.5002 24.9781C84.6759 25.3659 87.8841 25.4121 91.0696 25.1157L92.1711 33.0673L83.1525 33.532C83.2213 32.9468 81.7067 26.114 81.5002 24.9781ZM190.739 30.7782C190.831 30.7782 190.918 30.742 190.983 30.6774C191.047 30.6128 191.084 30.5253 191.084 30.434C191.084 30.3427 191.047 30.2551 190.983 30.1906C190.918 30.126 190.831 30.0898 190.739 30.0898C188.605 29.6595 170.258 30.3135 166.455 30.6405C166.162 30.6405 166.162 31.1397 166.455 31.1569C168.52 31.2429 188.691 31.2946 190.739 30.7782ZM46.2173 85.372C46.5443 85.372 48.9711 83.9951 49.5391 86.2326C50.3308 89.2962 53.4288 87.4546 53.9279 85.1139C54.5647 82.2224 51.8109 79.9505 48.558 79.9505C41.9489 79.9505 43.4635 85.6818 46.2173 85.372ZM48.558 80.6217C52.2756 80.7422 54.5647 84.2533 52.3101 86.3187C50.3824 88.0398 50.589 85.5614 49.6595 84.5975C47.8007 82.8764 46.3206 84.959 45.2707 84.0812C43.1193 82.3601 47.2328 80.5185 48.558 80.6217ZM88.8666 52.5848C86.1644 52.5848 86.0612 52.1373 86.4054 54.7706C86.5087 55.5107 87.0422 60.7429 87.9372 60.7945C88.1265 61.6206 95.8543 61.328 96.8354 61.0354C98.1606 61.0354 96.8354 56.9564 96.8354 56.4917C95.6994 50.5022 97.1107 52.361 88.8666 52.5848ZM88.3675 60.3986C87.9372 58.23 87.6102 55.3558 86.9906 53.2904C89.8086 53.5658 92.6509 53.4616 95.4413 52.9806C95.6164 55.377 95.9906 57.7546 96.56 60.0888C93.875 60.2093 91.0868 60.347 88.3675 60.3986ZM201.6 13.6015C198.433 13.3089 152.823 13.6015 147.04 14.049C146.966 14.0617 146.899 14.1029 146.854 14.1638C146.809 14.2248 146.789 14.3009 146.799 14.376C146.812 14.4353 146.841 14.4897 146.884 14.5326C146.927 14.5754 146.981 14.6047 147.04 14.6169C151.946 14.8751 198.089 14.7546 201.6 14.3588C201.7 14.3588 201.796 14.3189 201.867 14.2479C201.938 14.1769 201.978 14.0805 201.978 13.9801C201.978 13.8797 201.938 13.7834 201.867 13.7124C201.796 13.6414 201.7 13.6015 201.6 13.6015ZM123.926 26.2517C124.322 26.1656 124.184 25.6321 123.84 25.5632L97.6959 26.2173C97.6579 26.2213 97.6212 26.2332 97.5881 26.2523C97.5549 26.2713 97.5261 26.297 97.5035 26.3277C97.4808 26.3585 97.4648 26.3936 97.4564 26.4309C97.4481 26.4682 97.4476 26.5068 97.455 26.5443C97.4649 26.6046 97.4935 26.6602 97.5367 26.7034C97.58 26.7467 97.6356 26.7753 97.6959 26.7852C104.253 27.2671 118.229 27.4048 123.926 26.2517ZM227.589 74.6323C227.709 75.9403 229.017 88.9864 229.499 89.933C232.941 96.6454 245.609 96.8175 245.884 86.8866C246.366 82.7559 248.035 70.8974 247.381 67.9543C247.571 66.9905 248.569 62.791 248.758 60.5708C248.758 60.2093 249.447 50.3817 248.07 51.8791C246.232 54.3258 244.603 56.9223 243.199 59.6413C242.958 60.6912 242.717 61.7239 242.459 62.7566C241.698 62.4694 240.907 62.2674 240.101 62.1542C240.101 61.4485 239.585 58.0063 239.344 56.6294C238.156 54.3231 236.934 52.2578 235.902 49.8654C234.439 46.2683 234.404 46.1994 233.991 50.158C233.301 54.1906 233.301 58.3109 233.991 62.3435C226.194 63.9614 227.003 68.5567 227.571 74.6323H227.589ZM246.418 55.7C246.628 55.9036 246.88 56.0597 247.156 56.1577C247.432 56.2557 247.726 56.2933 248.018 56.268V60.6052C247.293 60.6755 246.561 60.599 245.866 60.3802C245.171 60.1614 244.528 59.8047 243.974 59.3315C244.817 58.144 245.695 56.922 246.418 55.7ZM243.939 60.2265C245.079 61.0371 246.447 61.4649 247.846 61.4485C247.278 64.6498 246.71 67.8339 246.263 71.0523C245.678 73.1521 242.82 73.9094 240.962 74.1676C242.098 69.6238 242.958 64.7359 243.939 60.1749V60.2265ZM240.497 72.9284C240.413 73.3605 240.356 73.7973 240.325 74.2364L236.125 74.3397L234.404 58.1268C235.183 58.3617 236.006 58.403 236.804 58.247C237.602 58.091 238.35 57.7425 238.982 57.2318C238.982 57.2318 240.101 72.6702 240.497 72.8767V72.9284ZM234.611 52.6192C234.874 52.688 235.149 52.7022 235.419 52.6608C235.688 52.6193 235.946 52.5232 236.177 52.3782L238.535 56.6122C237.917 57.0727 237.2 57.3839 236.442 57.5213C235.684 57.6586 234.904 57.6184 234.163 57.4039C234.134 55.7802 234.284 54.1582 234.611 52.5676V52.6192ZM246.538 72.4464C246.228 76.7837 245.678 85.94 244.559 90.0363C242.58 95.3545 233.957 95.4406 230.153 90.0363C229.43 84.064 228.707 77.9884 228.002 72.1022C231.22 76.7665 243.733 76.1985 246.538 72.3948V72.4464Z" fill="black"/>
<path d="M15.1681 91.4134C17.7877 92.7814 20.5533 93.8495 23.4123 94.5974C17.9219 102.153 33.6357 112.927 48.0071 107.179C54.5989 104.545 61.1908 96.1808 54.7366 90.3807C61.6211 84.8215 64.0479 76.8011 63.7553 68.0062C63.3078 54.4438 57.3183 44.4613 43.601 41.2428C36.843 39.6613 29.7612 40.2084 23.3262 42.809L20.6585 38.1964C21.5019 37.7489 22.3796 37.3187 23.2402 36.94C25.5121 36.1655 24.8236 34.496 23.4811 34.9951C-2.88636 44.6162 -8.97911 79.2967 15.1681 91.4134ZM23.6188 93.3926C23.1369 91.6715 24.4278 89.9504 23.8254 88.0744C22.4485 83.6167 16.6827 86.1984 15.2198 83.1864C13.6191 79.8991 17.8875 79.3311 18.7481 76.9732C18.9003 76.5604 18.939 76.1144 18.8603 75.6815C18.7816 75.2486 18.5883 74.8448 18.3006 74.512C15.8222 71.414 10.0909 74.6841 11.7259 67.4554C12.9651 61.9995 18.2317 59.4178 22.0526 61.8274C25.8735 64.2369 28.1626 65.8548 32.9989 63.0321C41.0537 58.2991 40.0555 68.1955 37.5943 71.1902C36.2863 72.8081 33.9111 72.722 32.0867 73.4105C26.1317 75.6479 26.1661 79.6581 30.8819 80.6392C32.7063 81.0178 35.047 80.8457 36.4756 82.2226C40.3481 85.9918 32.3449 94.0467 29.8149 95.3719C28.4552 95.0965 24.3073 94.2876 23.6188 93.3926ZM45.4598 42.7574C55.5972 45.907 60.9499 53.239 62.3956 63.7206C63.0828 68.2441 62.9135 72.8565 61.8965 77.3174C61.4834 77.8854 55.666 79.486 53.79 77.0765C53.0657 76.1026 52.5821 74.9712 52.3787 73.7747C52.1753 72.5781 52.2579 71.3505 52.6196 70.192C53.7384 67.3005 57.542 64.7533 56.3717 61.7929C54.7538 57.6967 50.0208 63.2903 48.0243 62.1372C45.0295 60.416 50.6404 57.1115 44.2378 55.9239C41.8799 55.4936 39.9522 56.4575 38.2139 53.8586C34.2381 47.9035 44.582 42.7402 45.4598 42.7057V42.7574ZM25.8219 50.3819C25.8961 50.4993 26.0086 50.5873 26.1404 50.6312C26.2721 50.6751 26.4149 50.6722 26.5447 50.6229C26.6938 50.5616 26.8132 50.4447 26.8774 50.2968C26.9417 50.149 26.9458 49.982 26.889 49.8312L23.7565 43.7212C30.1403 41.1614 37.1686 40.6796 43.842 42.3443C35.2364 45.1842 34.2209 54.8913 40.3997 56.5607C41.7078 56.9222 47.5596 56.4058 46.5441 58.9015C46.338 59.3063 46.2224 59.7512 46.2054 60.2052C46.1884 60.6591 46.2703 61.1114 46.4455 61.5306C46.6207 61.9497 46.885 62.3258 47.22 62.6326C47.555 62.9395 47.9528 63.1698 48.3857 63.3075C50.7953 63.7378 53.3769 60.1062 55.1497 61.5864C58.2477 64.1681 50.1584 68.1611 51.5353 73.9096C52.568 78.3157 54.3924 79.7098 58.8673 79.073C59.8475 78.9886 60.7983 78.6952 61.6555 78.2124C57.9551 91.1724 44.1173 97.1447 31.4671 95.5785C34.0144 93.2377 37.9729 88.5907 38.3516 85.2518C38.9368 79.3311 32.1384 80.5187 29.6427 79.2106C26.2005 77.4895 31.1229 74.4948 34.2725 73.8063C35.3046 73.6364 36.3036 73.3054 37.2329 72.8253C42.3962 69.6584 40.9677 56.9222 33.4808 61.6208C27.0783 65.631 25.099 62.2232 22.1215 60.6914C17.354 58.2647 10.8137 62.0855 10.4867 69.297C10.2974 74.2022 14.342 73.1523 16.6999 74.4604C17.1225 74.6189 17.4754 74.9219 17.6959 75.3157C17.9164 75.7095 17.9904 76.1686 17.9047 76.6118C17.354 78.3329 14.8583 78.6771 14.1699 80.7596C13.8977 81.5719 13.9076 82.4523 14.1981 83.2582C14.4886 84.0641 15.0427 84.7484 15.7705 85.2001C18.0252 86.5082 22.0182 85.3722 22.9648 88.4874C23.4295 90.002 22.5173 91.551 22.6206 93.0828C18.2294 91.5046 14.3627 88.7379 11.4514 85.0913C8.54018 81.4446 6.69872 77.0612 6.13229 72.4294C4.58328 60.7258 11.7259 49.3493 22.2247 44.3752C23.309 46.3717 24.6687 48.4371 25.8219 50.3819ZM10.3318 45.7866C12.9155 43.1074 15.8929 40.8381 19.1611 39.057C20.1204 40.5288 20.9995 42.0513 21.7944 43.6179C16.3927 46.1274 11.8972 50.2429 8.92157 55.4025C5.94594 60.5621 4.63526 66.5144 5.16846 72.4466C5.52725 75.8468 6.593 79.1344 8.29729 82.0984C10.0016 85.0624 12.3068 87.6373 15.0649 89.6578C-1.38899 80.5187 -2.07744 58.9703 10.3318 45.7866ZM194.027 57.9204C192.546 57.5934 170.413 57.4902 167.28 57.9204C167.203 57.9204 167.128 57.9513 167.074 58.0061C167.019 58.061 166.988 58.1354 166.988 58.213C166.988 58.2906 167.019 58.365 167.074 58.4199C167.128 58.4748 167.203 58.5056 167.28 58.5056C168.468 58.6777 191.6 59.0736 194.027 58.5056C194.107 58.4878 194.179 58.4431 194.23 58.3789C194.282 58.3148 194.31 58.235 194.31 58.1528C194.31 58.0705 194.282 57.9908 194.23 57.9266C194.179 57.8625 194.107 57.8178 194.027 57.7999V57.9204ZM201.376 18.3347C184.767 18.5241 163.305 17.9561 148.331 18.3347C147.918 18.3347 147.952 18.9199 148.331 18.9543C154.613 19.6428 196.316 19.5912 201.376 18.9543C201.425 18.9502 201.473 18.936 201.516 18.9126C201.56 18.8893 201.598 18.8572 201.629 18.8185C201.659 18.7798 201.682 18.7353 201.694 18.6876C201.707 18.6399 201.71 18.5901 201.703 18.5413C201.675 18.4781 201.629 18.4246 201.571 18.3877C201.513 18.3509 201.445 18.3324 201.376 18.3347ZM199.534 54.1856C189.466 53.9619 176.884 54.5815 166.162 54.3061C165.852 54.3061 165.783 54.7536 166.162 54.788C172.754 55.442 193.39 56.096 199.603 54.8913C199.93 54.8052 199.964 54.1856 199.534 54.1856Z" fill="black"/>
</svg>
