<svg width="293" height="223" viewBox="0 0 293 223" fill="none" xmlns="http://www.w3.org/2000/svg">
<path fill-rule="evenodd" clip-rule="evenodd" d="M77.9322 77.6669C78.2119 77.798 78.5149 77.8723 78.8235 77.8854C79.1322 77.8986 79.4404 77.8505 79.7303 77.7437C79.7869 77.7297 79.8372 77.6971 79.8731 77.6511C79.9091 77.6052 79.9286 77.5485 79.9286 77.4902C79.9286 77.4318 79.9091 77.3752 79.8731 77.3292C79.8372 77.2832 79.7869 77.2506 79.7303 77.2366C78.5358 76.7228 77.5198 75.8673 76.8103 74.7777C76.7919 74.7215 76.755 74.6732 76.7056 74.6407C76.6562 74.6082 76.5972 74.5935 76.5384 74.5988C76.4795 74.6042 76.4242 74.6293 76.3814 74.6702C76.3387 74.7111 76.3111 74.7652 76.3031 74.8238C76.2288 75.4103 76.3476 76.0051 76.6415 76.5182C76.9355 77.0312 77.3886 77.4344 77.9322 77.6669ZM193.578 40.1531C179.747 41.9512 170.649 43.2267 170.649 43.2267C170.403 43.2267 170.495 43.4726 170.495 43.7185V112.015C170.495 112.138 170.879 112.245 171.017 112.261C182.405 113.552 199.187 114.843 216.384 115.995C228.064 116.764 284.543 119.807 284.543 119.807C284.702 119.807 284.856 119.746 284.973 119.638C285.035 119.584 285.085 119.518 285.12 119.444C285.154 119.37 285.172 119.289 285.173 119.207C285.265 113.444 286.371 31.2856 286.371 31.2856C286.371 31.1993 286.353 31.114 286.318 31.0348C286.284 30.9557 286.234 30.8841 286.172 30.8246C286.108 30.7637 286.034 30.7161 285.952 30.6845C285.87 30.6528 285.783 30.6377 285.695 30.6401C267.545 31.7774 246.844 33.806 228.049 35.9268C215.201 37.4175 203.229 38.8929 193.578 40.1531ZM285.096 32.0079L283.959 118.608C280.977 118.485 228.126 115.872 216.431 115.181C199.356 114.166 182.621 113.014 171.263 111.83V44.2103C173.784 43.8568 227.419 37.2177 239.698 35.9422C254.928 34.3439 270.773 32.8993 285.096 32.0079Z" fill="black"/>
<path fill-rule="evenodd" clip-rule="evenodd" d="M195.499 76.1607C195.466 83.9287 198.511 91.3937 203.967 96.9232C206.668 99.6707 209.888 101.853 213.441 103.343C216.994 104.832 220.808 105.6 224.66 105.6C228.513 105.6 232.327 104.832 235.88 103.343C239.433 101.853 242.653 99.6707 245.354 96.9232C249.467 92.7615 252.243 87.4654 253.324 81.7149C254.406 75.9643 253.744 70.0217 251.424 64.6499C253.513 64.6572 255.56 64.0673 257.325 62.9499C259.089 61.8325 260.498 60.234 261.384 58.3428C262.271 56.4516 262.598 54.3464 262.328 52.2753C262.058 50.2042 261.201 48.2535 259.859 46.6529C258.518 45.0523 256.746 43.8685 254.754 43.241C252.762 42.6136 250.632 42.5685 248.615 43.1112C246.598 43.654 244.778 44.7618 243.37 46.3043C241.962 47.8468 241.024 49.7596 240.666 51.8174C236.27 48.9496 231.181 47.32 225.936 47.1002C220.692 46.8804 215.485 48.0785 210.864 50.5685C206.242 53.0584 202.378 56.748 199.677 61.2491C196.976 65.7501 195.538 70.896 195.515 76.1453L195.499 76.1607ZM248.55 51.3717L250.379 55.5212L254.129 46.0543L256.219 47.3606L251.885 59.0712L248.812 59.3632L246.23 53.7231L248.55 51.3717ZM224.653 47.6219C230.343 47.6377 235.888 49.4147 240.528 52.7088V53.7231C240.528 56.4255 241.528 59.0322 243.336 61.0411C245.143 63.0501 247.63 64.3191 250.318 64.6038C252.608 69.8242 253.278 75.6119 252.243 81.2178C251.207 86.8236 248.513 91.9896 244.508 96.0472C241.92 98.6683 238.836 100.749 235.437 102.17C232.038 103.59 228.391 104.322 224.706 104.322C221.022 104.322 217.375 103.59 213.976 102.17C210.577 100.749 207.493 98.6683 204.905 96.0472C199.668 90.7396 196.721 83.5909 196.695 76.1351C196.669 68.6793 199.567 61.5104 204.766 56.1666C207.342 53.4864 210.429 51.3495 213.845 49.8819C217.26 48.4143 220.935 47.6459 224.653 47.6219Z" fill="black"/>
<path fill-rule="evenodd" clip-rule="evenodd" d="M208.209 64.9572L213.357 65.0955C213.449 65.8178 216.431 85.5814 216.431 85.5814C216.452 85.7294 216.526 85.8649 216.639 85.9634C216.752 86.062 216.896 86.1172 217.045 86.1193L234.903 85.7351C234.96 85.721 235.01 85.6884 235.046 85.6424C235.082 85.5965 235.102 85.5398 235.102 85.4815C235.102 85.4231 235.082 85.3665 235.046 85.3205C235.01 85.2745 234.96 85.2419 234.903 85.2279C234.903 85.2279 225.974 84.9359 224.145 84.9052H217.537C217.445 84.2751 217.26 83.1224 217.03 81.6625C218.567 81.6625 233.382 81.2936 233.382 81.2936C233.53 81.2911 233.672 81.2353 233.782 81.1365C233.892 81.0377 233.963 80.9025 233.981 80.7558L235.518 69.875C235.527 69.7869 235.519 69.6978 235.492 69.6132C235.466 69.5285 235.422 69.4503 235.364 69.3833C235.305 69.3154 235.232 69.2611 235.149 69.224C235.067 69.1868 234.978 69.1678 234.888 69.1681C234.888 69.1681 216.446 69.583 215.047 69.6445C214.11 64.4347 214.171 64.2964 213.68 64.2964L208.147 64.4962C208.078 64.4962 208.011 64.5237 207.962 64.5727C207.913 64.6217 207.886 64.6881 207.886 64.7574C207.886 64.8267 207.913 64.8932 207.962 64.9422C208.011 64.9912 208.078 65.0187 208.147 65.0187L208.209 64.9572ZM228.08 79.6953V80.2793C227.588 80.2793 223.331 80.5867 221.809 80.7096C221.813 79.1284 221.679 77.5498 221.41 75.9916L228.249 75.8379C228.085 77.1168 228.029 78.4071 228.08 79.6953ZM229.832 71.2428V70.3668H234.242L233.628 74.8236H232.337C231.599 74.8236 230.677 74.7468 229.663 74.7314C229.793 73.5733 229.85 72.4081 229.832 71.2428ZM229.54 75.8533C230.615 75.7764 231.584 75.6842 232.352 75.6074L233.535 75.4844L232.905 80.0949L228.771 80.3101C228.771 80.1718 228.771 80.0181 228.879 79.849C229.205 78.5108 229.426 77.1491 229.54 75.7764V75.8533ZM229.14 70.4437C228.781 71.8363 228.53 73.2543 228.387 74.6853L221.241 74.8851C221.029 73.3245 220.695 71.7829 220.242 70.2746C223.546 70.3207 225.836 70.3515 229.14 70.3668V70.4437ZM221.195 80.8326L217.03 81.14C216.769 79.6031 216.477 77.7743 216.169 75.9148L217.844 76.007H220.15C220.362 77.6169 220.711 79.2056 221.195 80.7558V80.8326ZM219.658 70.3054C219.669 71.8497 219.797 73.391 220.042 74.9158L217.891 75.1002L216.123 75.2693C216 74.4855 215.416 71.0584 215.263 70.167C216.031 70.2132 217.691 70.2131 219.596 70.2131L219.658 70.3054Z" fill="black"/>
<path fill-rule="evenodd" clip-rule="evenodd" d="M292.795 24.4007C292.731 24.3419 292.656 24.2967 292.574 24.2676C292.492 24.2386 292.405 24.2264 292.319 24.2317C272.125 25.538 249.088 27.8586 228.172 30.2868C213.864 31.9465 164.286 38.6317 164.286 38.6317C164.04 38.6317 164.163 38.8776 164.163 39.1235V117.394C164.163 117.517 164.563 117.624 164.701 117.64C177.195 119.084 195.56 120.544 214.433 121.835C214.832 123.372 216.507 129.519 217.322 134.253C217.608 135.69 217.747 137.152 217.737 138.617C217.749 138.881 217.685 139.142 217.552 139.37C216.016 140.907 207.271 143.597 207.01 143.704C206.88 143.743 206.768 143.825 206.692 143.937C206.617 144.049 206.582 144.184 206.595 144.319L206.841 147.3C206.848 147.438 206.905 147.569 207.001 147.668C207.097 147.767 207.226 147.827 207.363 147.838C243.31 152.633 241.173 152.556 241.496 152.449C244.633 151.127 247.673 149.587 250.594 147.838C251.498 147.282 252.329 146.616 253.068 145.856C253.486 145.447 253.743 144.901 253.791 144.319C253.449 142.13 252.935 139.972 252.254 137.864C250.717 132.685 248.581 126.031 247.905 124.033L291.028 126.323C291.11 126.33 291.193 126.318 291.27 126.289C291.347 126.259 291.417 126.213 291.474 126.154C291.534 126.1 291.582 126.033 291.613 125.959C291.645 125.885 291.661 125.804 291.658 125.723C291.766 119.115 292.995 24.9694 292.995 24.9694C293.008 24.8656 292.997 24.7602 292.962 24.6616C292.927 24.5629 292.87 24.4736 292.795 24.4007ZM224.422 148.883L207.993 146.67L207.824 144.657H207.963C209.238 144.841 218.797 146.071 220.703 146.286C224.837 146.747 239.683 148.238 240.682 148.33C240.458 149.259 240.458 150.229 240.682 151.158L224.422 148.883ZM251.347 138.033C251.965 140.042 252.418 142.098 252.7 144.181C252.644 144.476 252.487 144.743 252.254 144.934C251.562 145.605 250.793 146.194 249.964 146.686C247.329 148.254 244.593 149.646 241.773 150.85C241.899 149.934 241.825 149.001 241.558 148.115C242.357 147.777 245.108 146.578 247.567 145.395C248.967 144.76 250.309 144.004 251.578 143.136C251.601 143.113 251.62 143.085 251.633 143.055C251.646 143.024 251.653 142.992 251.653 142.959C251.653 142.926 251.646 142.893 251.633 142.863C251.62 142.833 251.601 142.805 251.578 142.782C251.529 142.733 251.462 142.706 251.393 142.706C251.324 142.706 251.258 142.733 251.209 142.782C250.256 143.379 249.253 143.893 248.212 144.319C245.4 145.533 241.742 146.901 240.989 147.177C240.313 147.177 210.76 144.257 209.3 144.104C218.521 140.892 218.521 140 218.659 138.617C218.643 137.066 218.463 135.52 218.121 134.007C217.23 129.396 215.462 123.556 214.924 121.712L247.889 124.002H247.351C247.889 125.708 249.964 132.685 251.347 138.064V138.033ZM290.459 124.955C287.278 124.817 228.249 121.881 215.232 121.005C196.221 119.822 177.595 118.5 164.932 117.133V39.5692C167.621 39.185 227.45 31.547 241.112 30.0716C258.017 28.2428 275.767 26.5676 291.719 25.5533L290.459 124.955Z" fill="black"/>
<path fill-rule="evenodd" clip-rule="evenodd" d="M241.158 139.708C240.328 139.708 229.155 139.155 228.126 139.14C227.096 139.124 221.594 139.14 221.594 139.14C221.56 139.138 221.525 139.142 221.493 139.154C221.46 139.165 221.43 139.182 221.405 139.205C221.379 139.228 221.358 139.256 221.343 139.287C221.328 139.318 221.319 139.351 221.317 139.386C221.317 139.452 221.343 139.517 221.388 139.565C221.434 139.614 221.497 139.643 221.563 139.647C222.224 139.647 230.707 140.707 241.112 140.846H247.643C247.676 140.85 247.709 140.847 247.741 140.838C247.773 140.828 247.802 140.812 247.827 140.79C247.851 140.768 247.871 140.741 247.885 140.711C247.898 140.681 247.905 140.648 247.905 140.615C247.907 140.581 247.902 140.546 247.891 140.514C247.879 140.481 247.862 140.451 247.839 140.426C247.816 140.4 247.788 140.379 247.758 140.364C247.727 140.349 247.693 140.34 247.659 140.339C247.659 140.339 242.664 139.831 241.158 139.708ZM268.759 81.7395L270.434 84.8131L271.771 83.845L270.158 81.0633L272.663 79.8492L265.962 73.9324L266.346 82.9075L268.759 81.7395ZM261.259 90.899C261.244 90.929 261.235 90.9619 261.233 90.9956C261.231 91.0293 261.236 91.063 261.247 91.0948C261.259 91.1265 261.277 91.1555 261.3 91.18C261.323 91.2044 261.351 91.2239 261.382 91.2371C261.917 91.624 262.471 91.9831 263.042 92.3128C263.688 92.6817 265.163 93.3425 265.855 93.6191C266.27 93.7882 268.652 94.6642 268.836 94.2646C268.851 94.2345 268.86 94.2017 268.862 94.168C268.865 94.1343 268.86 94.1005 268.848 94.0688C268.837 94.0371 268.819 94.0081 268.795 93.9836C268.772 93.9591 268.744 93.9397 268.713 93.9265L268.052 93.4655C266.354 92.381 264.505 91.5525 262.566 91.0065C261.966 90.8375 261.598 90.776 261.598 90.776C261.536 90.7493 261.467 90.7471 261.404 90.77C261.341 90.7929 261.289 90.8391 261.259 90.899ZM255.235 104.269C254.349 102.832 253.097 101.654 251.608 100.858C251.585 100.834 251.557 100.816 251.527 100.803C251.497 100.791 251.464 100.784 251.432 100.784C251.399 100.784 251.366 100.791 251.336 100.803C251.306 100.816 251.278 100.834 251.255 100.858C251.232 100.881 251.213 100.908 251.201 100.939C251.188 100.969 251.182 101.001 251.182 101.034C251.182 101.067 251.188 101.1 251.201 101.13C251.213 101.16 251.232 101.188 251.255 101.211C251.358 101.429 251.476 101.64 251.608 101.841C252.493 103.222 253.714 104.354 255.158 105.13C255.18 105.156 255.207 105.177 255.238 105.191C255.268 105.205 255.301 105.212 255.335 105.212C255.369 105.212 255.402 105.205 255.433 105.191C255.463 105.177 255.49 105.156 255.512 105.13C255.556 105.082 255.581 105.019 255.581 104.953C255.581 104.888 255.556 104.825 255.512 104.776L255.235 104.269ZM190.443 84.8285C190.405 84.7728 190.348 84.7327 190.283 84.7158C190.218 84.6988 190.149 84.7061 190.089 84.7363C186.888 85.9295 183.903 87.6373 181.253 89.7924C181.197 89.8301 181.157 89.8867 181.14 89.9518C181.123 90.0169 181.13 90.0859 181.16 90.1459C181.196 90.2044 181.252 90.2468 181.318 90.2641C181.384 90.2813 181.455 90.272 181.514 90.2381C184.707 89.029 187.69 87.3226 190.351 85.182C190.406 85.1443 190.446 85.0877 190.463 85.0226C190.48 84.9576 190.473 84.8886 190.443 84.8285ZM197.712 97.4766C196.236 98.3487 194.86 99.3793 193.609 100.55C188.86 104.684 190.089 104.776 190.351 104.531C190.351 104.531 190.781 104.285 191.442 103.839C193.894 102.141 196.12 100.137 198.065 97.8761C198.091 97.8549 198.111 97.829 198.127 97.7998C198.142 97.7705 198.151 97.7386 198.154 97.7058C198.157 97.673 198.153 97.6399 198.143 97.6085C198.133 97.577 198.117 97.5479 198.096 97.5227C198.075 97.4974 198.049 97.4766 198.02 97.4614C197.99 97.4462 197.959 97.4369 197.926 97.4341C197.893 97.4312 197.86 97.4349 197.828 97.4448C197.797 97.4547 197.768 97.4707 197.743 97.4919L197.712 97.4766ZM221.702 167.402C220.472 166.563 219.118 165.92 217.691 165.496C217.637 165.237 217.533 164.992 217.383 164.774C217.11 164.406 216.765 164.097 216.369 163.867C215.017 163.101 213.52 162.625 211.974 162.469C210.048 162.229 208.092 162.477 206.287 163.191C203.398 164.39 196.313 168.739 188.414 171.567C184.362 173.138 180.065 173.981 175.72 174.056C169.795 174.087 163.889 174.72 158.093 175.947C150.547 177.484 143.8 179.512 141.387 181.003L136.577 173.995H136.715C137.786 173.581 138.816 173.067 139.789 172.458C140.499 172.078 141.121 171.555 141.618 170.921C141.652 170.866 141.67 170.802 141.67 170.737C141.67 170.672 141.652 170.608 141.618 170.552C141.566 170.456 141.477 170.384 141.372 170.353C141.209 170.249 141.033 170.167 140.849 170.107C138.954 170.033 137.056 170.063 135.163 170.199C131.068 159.839 125.831 149.968 119.549 140.769C115.836 135.316 111.727 130.143 107.255 125.293C109.037 121.943 111.05 117.962 114.462 110.324C115.714 109.714 116.792 108.798 117.597 107.662C118.403 106.527 118.91 105.207 119.073 103.824C120.917 104.531 122.146 101.887 122.531 99.7664C124.897 100.689 129.17 102.318 131.582 103.086C131.976 103.229 132.382 103.332 132.797 103.393C134.441 103.393 140.481 94.5566 141.556 92.6356C141.87 92.1262 142.07 91.5546 142.14 90.9604C142.123 90.7613 142.061 90.5688 141.957 90.3981C141.853 90.2274 141.71 90.0832 141.541 89.9769C139.174 88.1634 128.724 85.766 124.744 85.1666C121.301 84.6595 121.409 84.7824 119.303 87.4565C118.504 88.4708 117.628 89.6695 116.875 90.7145C115.479 90.7628 114.093 90.9638 112.741 91.3139C108.038 92.5434 106.594 94.2339 105.795 97.1077C105.129 99.3507 104.823 101.685 104.888 104.023C101.077 107.789 98.2488 110.77 95.2212 114.043C87.325 107.458 78.6734 101.834 69.4487 97.2921L70.3708 91.1449C75.6575 91.1449 82.9574 89.608 84.8323 84.6441C85.7033 82.1952 86.3614 79.6757 86.7995 77.1137C87.3988 73.748 87.6447 70.8127 87.7215 69.7984L90.703 68.3999C90.832 68.3396 90.9353 68.2353 90.9944 68.1058C91.0536 67.9763 91.0647 67.8299 91.0257 67.6929C91.0257 67.6929 87.322 53.8615 87.0914 52.9087C89.0125 52.4784 90.4417 52.0788 90.4417 52.0788C90.4417 27.4897 67.3894 22.3413 67.3894 22.3413C67.3894 22.3413 74.6739 13.1204 75.5345 7.15752C76.3952 1.19465 69.0799 -0.80322 59.4748 1.76327C49.8696 4.32977 56.1398 21.2656 56.1398 21.2656C51.7599 20.2974 43.4918 25.2459 43.4918 25.2459C37.3445 -6.79682 20.5163 6.65037 18.9026 16.1326C17.289 25.6148 38.6508 27.7817 38.6508 27.7817C24.343 33.7753 19.3176 82.1237 19.3176 82.1237C22.6064 84.6595 29.1533 86.2116 36.2226 87.1491C22.8857 96.5537 12.6639 109.73 6.86933 124.986C4.32941 131.565 2.60055 138.428 1.72098 145.425C0.0874406 159.423 1.13051 173.604 4.79462 187.212C7.11996 196.261 10.2045 205.099 14.0156 213.63C14.042 213.691 14.0917 213.739 14.1537 213.763C14.1844 213.775 14.2172 213.781 14.2501 213.781C14.2831 213.78 14.3157 213.773 14.346 213.76C14.3762 213.747 14.4036 213.728 14.4266 213.704C14.4495 213.681 14.4676 213.653 14.4797 213.622C14.4918 213.591 14.4978 213.559 14.4973 213.526C14.4967 213.493 14.4897 213.46 14.4766 213.43C10.8014 204.882 7.83557 196.046 5.60914 187.012C2.10648 173.474 1.17854 159.398 2.87359 145.518C3.77553 138.62 5.50407 131.855 8.02195 125.37C13.8161 110.208 24.0657 97.1565 37.4214 87.9329C62.364 91.4369 96.3892 109.448 118.765 141.307C125.111 150.423 130.425 160.217 134.61 170.506C128.994 175.68 122.807 180.196 116.168 183.969C112.839 185.871 109.389 187.555 105.841 189.01C102.308 190.472 98.6576 191.634 94.9292 192.483C92.163 188.549 78.808 165.496 78.7004 165.373C78.6858 165.344 78.6653 165.317 78.6402 165.296C78.6151 165.274 78.5859 165.258 78.5543 165.247C78.5227 165.237 78.4894 165.234 78.4564 165.237C78.4234 165.24 78.3914 165.25 78.3623 165.266C78.3304 165.28 78.302 165.301 78.279 165.328C78.2559 165.354 78.2387 165.385 78.2285 165.418C78.2183 165.452 78.2154 165.487 78.2199 165.522C78.2244 165.556 78.2363 165.59 78.2547 165.619C78.2547 165.619 78.8694 166.972 79.9145 169.108C83.4492 176.316 89.2584 186.674 94.4682 192.79C92.9314 195.265 90.2573 200.782 93.1773 200.551C95.0061 200.413 97.2959 198.077 97.7877 197.785C104.767 205.198 112.767 211.579 121.547 216.734C127.786 220.207 134.625 222.743 141.311 222.881H141.403C150.362 221.344 159.845 216.304 168.635 210.049C183.558 199.429 196.59 185.46 202.215 179.789C203.144 178.858 204.135 177.99 205.181 177.192C206.861 177.486 208.562 177.645 210.268 177.668C211.548 177.69 212.828 177.608 214.094 177.422C216.275 177.169 218.374 176.44 220.242 175.286C221.24 174.675 222.12 173.889 222.839 172.965C223.387 172.281 223.68 171.429 223.669 170.552C223.646 170.01 223.487 169.481 223.208 169.016C222.825 168.377 222.312 167.828 221.702 167.402ZM44.0297 87.9483C55.0333 88.7935 65.2225 88.5476 65.2225 88.5476C64.6692 84.89 59.7206 67.4009 59.7206 67.4009C55.8632 67.7083 52.4822 64.942 54.8643 59.5785C57.2464 54.215 62.8097 58.0417 62.8097 58.0417C67.4339 56.4708 71.6025 53.7902 74.9505 50.2346C75.4121 51.5234 76.146 52.6975 77.1021 53.6771C78.0857 54.6761 82.942 53.8154 86.5075 53.0317C86.7533 54.3841 87.1683 56.3973 87.6293 58.4874C87.9674 60.1011 89.5196 66.7248 89.704 67.4932L86.8148 68.6765C86.1079 68.9992 86.8148 69.5371 85.4931 76.7448C85.075 79.2317 84.4478 81.6788 83.6182 84.0601C83.2182 84.9927 82.6374 85.8368 81.9094 86.5437C81.1814 87.2506 80.3205 87.8064 79.3766 88.1788C76.3798 89.4006 73.1903 90.0822 69.9559 90.192C69.8483 90.1878 69.7433 90.2254 69.663 90.2971C69.5827 90.3688 69.5335 90.4689 69.5256 90.5762L67.9119 96.5545C60.3081 92.778 52.2945 89.8903 44.0297 87.9483ZM119.334 102.794C118.566 102.794 119.687 99.0749 119.734 98.8443L121.716 99.6127C121.424 100.673 120.533 102.779 119.334 102.794ZM121.685 85.9811C125.42 86.1502 138.898 89.5312 140.573 91.1141C140.25 92.7278 135.302 99.2439 133.411 101.288C132.182 102.594 134.948 103.27 116.245 96.8926C117.198 95.448 118.658 92.8661 117.029 92.2821C116.797 92.2179 116.553 92.2179 116.322 92.2821C117.963 90.0437 119.777 87.937 121.747 85.9811H121.685ZM118.504 98.2757C118.243 99.1517 117.843 101.734 117.059 101.349C116.276 100.965 116.598 98.706 116.952 97.6764L118.504 98.2757ZM97.1884 115.749L95.6515 114.443C96.5429 113.644 101.799 108.834 102.275 108.296C104.304 106.344 105.979 104.7 105.979 104.7C106.045 104.634 106.096 104.554 106.128 104.467C106.16 104.379 106.172 104.285 106.163 104.192C106.023 101.93 106.231 99.6604 106.778 97.4612C107.069 96.0607 107.862 94.8147 109.007 93.9572C111.219 92.5961 113.688 91.7066 116.26 91.3446L115.415 92.5434C112.341 94.2031 108.53 99.6896 108.407 99.8433C108.386 99.8685 108.37 99.8976 108.36 99.9291C108.35 99.9605 108.346 99.9935 108.349 100.026C108.352 100.059 108.361 100.091 108.377 100.12C108.392 100.15 108.413 100.176 108.438 100.197C108.463 100.218 108.492 100.234 108.524 100.244C108.555 100.254 108.588 100.257 108.621 100.255C108.654 100.252 108.686 100.242 108.715 100.227C108.744 100.212 108.77 100.191 108.791 100.166C109.375 99.6127 115.769 93.0812 116.614 93.4193C117.459 93.7574 112.003 100.827 112.51 101.242C113.018 101.657 115.722 97.7839 116.014 97.3382L116.522 97.538C115.661 99.2132 114.985 101.503 116.645 102.44C116.847 102.552 117.074 102.611 117.305 102.611C117.536 102.611 117.764 102.552 117.966 102.44C118.012 102.775 118.133 103.096 118.32 103.378C118.017 105.152 117.091 106.76 115.707 107.912C112.633 110.632 114.539 106.129 109.037 119.038C108.545 120.175 108.1 121.282 107.716 122.235C107.331 123.188 106.916 124.248 106.701 124.817C103.684 121.637 100.509 118.611 97.1884 115.749ZM93.669 199.122C93.4844 199.209 93.2873 199.266 93.085 199.291C93.5606 197.28 94.3488 195.356 95.421 193.589C99.1269 192.718 102.756 191.546 106.271 190.085C109.85 188.573 113.321 186.816 116.66 184.83C123.313 180.893 129.478 176.183 135.025 170.798C136.908 170.684 138.797 170.684 140.68 170.798C140.246 171.164 139.777 171.488 139.282 171.767C138.348 172.313 137.366 172.771 136.347 173.134C136.059 173.196 135.789 173.322 135.557 173.503C135.326 173.684 135.138 173.915 135.01 174.179C134.656 175.086 135.378 175.885 134.472 177.253C133.242 179.051 131.536 178.068 129.385 178.575C126.818 179.174 127.848 183.185 126.311 184.507C124.774 185.828 121.608 183.492 120.164 185.644C119.365 186.858 119.764 188.841 119.057 189.947C118.35 191.054 114.677 187.98 112.51 190.193C111.797 191.277 111.156 192.407 110.589 193.574C109.529 195.203 107.977 193.205 105.979 193.098C102.291 192.913 105.226 201.642 100.277 197.708C99.8036 197.306 99.2884 196.956 98.7406 196.663C96.9578 195.664 96.42 197.969 93.669 199.122ZM201.247 178.821C195.653 184.415 182.682 198.384 167.867 209.019C159.245 215.166 149.994 220.253 141.188 221.805C134.671 221.805 127.986 219.316 121.885 215.996C113.322 211.07 105.482 204.982 98.5869 197.908C98.978 198.155 99.3527 198.427 99.7088 198.722C105.595 203.333 104.903 194.281 106.133 194.342C108.376 194.45 110.236 197.954 112.941 192.145C113.099 191.743 113.323 191.369 113.602 191.038C115.246 189.348 118.735 193.036 120.287 190.577C121.332 188.902 120.61 186.151 121.824 185.967C123.038 185.782 124.144 186.397 125.435 186.197C129.523 185.598 127.633 180.05 129.661 179.574C130.424 179.413 131.203 179.346 131.982 179.374C132.584 179.389 133.184 179.29 133.749 179.082C134.383 178.814 134.919 178.358 135.286 177.776C136.316 176.239 135.655 175.101 135.855 174.533C135.885 174.457 135.939 174.392 136.008 174.348L141.034 181.956C141.054 181.988 141.081 182.016 141.112 182.038C141.144 182.059 141.18 182.073 141.218 182.079C141.292 182.109 141.375 182.109 141.449 182.079C143.585 180.634 150.485 178.406 158.216 176.961C163.957 175.745 169.805 175.107 175.674 175.055C180.144 175.027 184.573 174.199 188.752 172.612C196.682 169.83 203.813 165.527 206.718 164.344C208.334 163.711 210.083 163.495 211.805 163.714C213.003 163.85 214.171 164.182 215.262 164.697C215.666 164.868 216.024 165.131 216.307 165.466C216.362 165.551 216.403 165.644 216.43 165.742H216.123C215.633 165.514 215.117 165.349 214.586 165.25C212.493 164.864 210.347 164.864 208.255 165.25C208.174 165.263 208.096 165.29 208.026 165.332C207.956 165.375 207.895 165.43 207.847 165.496C207.798 165.561 207.763 165.636 207.743 165.715C207.724 165.794 207.72 165.877 207.732 165.957C207.744 166.038 207.772 166.116 207.814 166.186C207.856 166.256 207.912 166.316 207.977 166.365C208.043 166.414 208.117 166.449 208.197 166.468C208.276 166.488 208.358 166.492 208.439 166.48C209.92 166.273 211.417 166.206 212.911 166.28H213.71C214.022 166.33 214.33 166.402 214.632 166.495C215.432 166.672 216.141 167.13 216.63 167.786C214.139 167.402 211.595 167.543 209.161 168.201H208.977C208.831 168.257 208.711 168.364 208.639 168.502C208.566 168.64 208.545 168.799 208.581 168.951C208.617 169.102 208.706 169.236 208.832 169.327C208.959 169.418 209.114 169.46 209.269 169.446H209.484C211.056 169.105 212.656 168.909 214.263 168.862H215.385C215.865 168.904 216.339 168.996 216.799 169.139C216.962 169.197 217.116 169.274 217.26 169.369C217.335 169.416 217.419 169.447 217.506 169.461C217.663 169.544 217.801 169.66 217.909 169.8C218.018 169.941 218.095 170.103 218.136 170.276L217.936 170.368C217.662 170.474 217.379 170.556 217.091 170.614C214.45 171.083 211.871 171.857 209.407 172.919C206.365 174.375 203.615 176.375 201.293 178.821H201.247ZM221.809 172.059C221.16 172.903 220.357 173.618 219.443 174.164C217.731 175.211 215.821 175.891 213.833 176.162C212.619 176.374 211.392 176.507 210.16 176.561C208.722 176.638 207.28 176.638 205.842 176.561C206.672 175.977 207.471 175.486 208.255 175.025C211.405 173.454 214.763 172.341 218.228 171.72C219.166 171.413 219.504 170.906 219.443 170.307C219.393 169.927 219.256 169.565 219.043 169.248C218.829 168.93 218.545 168.667 218.213 168.478C218.09 167.741 217.735 167.062 217.199 166.541L217.383 166.357C217.468 166.245 217.535 166.12 217.583 165.988C218.382 166.35 219.152 166.771 219.888 167.248C220.788 167.797 221.546 168.55 222.101 169.446C222.331 169.855 222.43 170.324 222.386 170.791C222.342 171.257 222.157 171.7 221.855 172.059H221.809Z" fill="black"/>
<path fill-rule="evenodd" clip-rule="evenodd" d="M118.55 94.4029C123.019 96.3367 127.647 97.8793 132.382 99.0134C136.746 100.043 133.596 98.1835 124.698 95.4018C121.486 94.4029 119.058 93.865 118.827 93.865C118.793 93.8478 118.756 93.8382 118.718 93.8369C118.68 93.8355 118.642 93.8424 118.607 93.8572C118.572 93.872 118.541 93.8942 118.515 93.9223C118.49 93.9504 118.471 93.9838 118.459 94.02C118.448 94.0563 118.445 94.0946 118.45 94.1322C118.455 94.1699 118.468 94.206 118.488 94.2381C118.509 94.2701 118.536 94.2974 118.568 94.3179C118.6 94.3384 118.636 94.3517 118.673 94.3568L118.55 94.4029ZM125.343 88.3939L122.131 87.6255L120.763 89.0855L124.313 90.023L125.343 88.3939ZM219.228 88.6552C218.428 88.6552 217.783 89.5466 217.783 90.6531C217.783 91.7596 218.428 92.6356 219.228 92.6356C220.027 92.6356 220.657 91.7442 220.657 90.6531C220.657 89.5619 220.073 88.6552 219.228 88.6552ZM233.182 88.6552C232.383 88.6552 231.737 89.5466 231.737 90.6531C231.737 91.7596 232.383 92.6356 233.182 92.6356C233.981 92.6356 234.611 91.7442 234.611 90.6531C234.611 89.5619 233.966 88.6552 233.182 88.6552ZM81.4976 63.7433C81.6341 63.7456 81.7695 63.7198 81.8956 63.6677C82.0217 63.6156 82.1358 63.5382 82.2309 63.4402C82.3259 63.3423 82.3999 63.226 82.4482 63.0984C82.4966 62.9707 82.5182 62.8346 82.5119 62.6983C82.5119 61.9913 82.5119 61.2998 82.5888 60.5928C82.6163 60.3115 82.5366 60.0302 82.3656 59.8051C82.1947 59.58 81.9451 59.4277 81.6667 59.3787C80.3143 59.1943 80.4833 61.0846 80.4833 62.6061C80.4782 62.8885 80.5797 63.1625 80.7678 63.3733C80.9558 63.5841 81.2164 63.7163 81.4976 63.7433Z" fill="black"/>
</svg>
