<svg width="268" height="265" viewBox="0 0 268 265" fill="none" xmlns="http://www.w3.org/2000/svg">
<path d="M60.8074 33.4202C60.7672 34.0928 60.5573 34.7443 60.1973 35.3139C59.8373 35.8834 59.3389 36.3526 58.7487 36.6776C59.2499 37.5269 59.4867 38.5063 59.4289 39.4908C59.3712 40.4753 59.0214 41.4203 58.4244 42.2052C57.84 42.9708 57.0602 43.5647 56.1669 43.9245C55.2735 44.2843 54.2997 44.3967 53.3479 44.2499C53.0941 44.9409 52.4878 46.1395 51.7968 46.3651C51.6901 46.4207 51.5716 46.4497 51.4513 46.4497C51.331 46.4497 51.2125 46.4207 51.1058 46.3651C51.2733 47.3549 51.7402 48.2695 52.4437 48.9856C53.1472 49.7017 54.0534 50.1848 55.0401 50.3698C58.2692 50.948 61.2869 49.8904 61.2869 46.6048C62.0597 46.7607 62.8571 46.7469 63.6241 46.5643C64.391 46.3817 65.1091 46.0347 65.7288 45.5472C66.1701 45.1856 66.5355 44.7403 66.8042 44.2369C67.0728 43.7336 67.2392 43.1821 67.294 42.6142C67.435 38.9761 64.9109 36.5648 63.3457 36.5648C64.4879 34.5483 63.7546 32.7997 61.9355 31.4742C61.4719 31.1866 60.9531 30.9992 60.4126 30.9243C60.7041 31.723 60.8382 32.5705 60.8074 33.4202ZM32.6192 34.4637C32.6828 34.4637 32.7437 34.4384 32.7887 34.3935C32.8337 34.3485 32.8589 34.2875 32.8589 34.224C32.8589 34.1604 32.8337 34.0994 32.7887 34.0545C32.7437 34.0095 32.6828 33.9843 32.6192 33.9843L31.759 33.8855C31.4911 33.8855 31.054 33.8855 30.8001 33.8009C30.636 31.7313 30.636 29.6519 30.8001 27.5823C30.7973 27.5234 30.7741 27.4672 30.7343 27.4236C30.6946 27.3799 30.6409 27.3515 30.5825 27.3431C30.5241 27.3348 30.4646 27.3471 30.4142 27.3778C30.3639 27.4086 30.3258 27.456 30.3066 27.5118C29.6934 29.0818 29.4195 30.7638 29.5028 32.4472C29.4807 33.0296 29.5329 33.6124 29.6579 34.1817C29.9964 35.07 31.7026 34.6752 32.6192 34.4637ZM26.0762 26.2427C25.3994 26.426 24.4828 27.0888 24.8212 27.3426C25.3184 27.5708 25.885 27.5961 26.4006 27.4131C26.8941 27.2862 27.712 26.7926 27.6979 26.5388C27.6838 26.285 26.739 26.0594 26.0762 26.2427ZM35.2138 27.2298C40.1774 28.2592 37.8789 26.3696 35.4394 26.0594C34.8049 25.9748 33.3243 26.0594 33.3525 26.4119C33.3807 26.7644 34.8331 27.1452 35.2138 27.2298ZM36.3278 29.5988C36.2883 29.529 36.2354 29.4678 36.172 29.4186C36.1087 29.3695 36.0363 29.3334 35.9589 29.3124C35.8815 29.2914 35.8008 29.286 35.7213 29.2964C35.6418 29.3068 35.5652 29.3329 35.4958 29.3732C35.1433 29.5706 35.1574 29.7821 35.242 30.9243C35.2532 31.0851 35.3279 31.2349 35.4495 31.3407C35.5712 31.4464 35.7299 31.4996 35.8907 31.4883C36.0515 31.4771 36.2013 31.4025 36.307 31.2808C36.4128 31.1592 36.4659 31.0005 36.4547 30.8397C36.4759 30.422 36.4331 30.0035 36.3278 29.5988ZM26.3442 30.3743C26.3573 30.2135 26.3059 30.0541 26.2015 29.9311C26.097 29.8082 25.948 29.7317 25.7872 29.7186C25.6264 29.7056 25.4669 29.7569 25.344 29.8613C25.221 29.9658 25.1446 30.1148 25.1315 30.2756C25.1047 30.6182 25.1047 30.9624 25.1315 31.305C25.1427 31.4658 25.2173 31.6156 25.339 31.7214C25.4606 31.8272 25.6193 31.8803 25.7801 31.8691C25.9409 31.8579 26.0907 31.7832 26.1965 31.6616C26.3023 31.5399 26.3554 31.3812 26.3442 31.2204C26.3724 30.9243 26.3301 30.5436 26.3442 30.3743ZM31.2373 39.5542C31.2373 40.0055 33.0281 40.1183 33.9588 39.1876C34.6498 38.4966 34.6075 37.439 34.3254 37.3685C34.0434 37.298 34.2267 37.3685 33.2114 38.2428C32.5769 38.7786 31.2091 39.2017 31.2373 39.5542Z" fill="black"/>
<path d="M267.376 27.8363C267.007 27.7172 266.617 27.6795 266.232 27.7258C265.848 27.772 265.478 27.9011 265.148 28.1042C265.417 27.4586 265.51 26.7528 265.416 26.0595C265.162 24.9174 263.498 24.3956 262.13 26.0595C262.045 25.1571 261.636 24.5366 260.917 24.4097C259.126 24.0713 258.351 27.4838 257.956 29.2746C257.025 28.5837 255.502 27.4133 254.741 28.3298C254.526 28.5599 254.381 28.8468 254.323 29.1567C254.266 29.4665 254.298 29.7864 254.417 30.0784C254.965 31.0366 255.746 31.8416 256.687 32.4192C256.419 33.0396 255.277 34.6754 254.685 35.6343C254.205 35.4932 253.19 35.2253 252.978 35.6343C248.029 42.3746 234.647 57.9987 226.313 57.6744C213.439 57.1808 197.236 50.9481 195.615 51.1737L193.344 46.196C195.842 44.4859 197.717 42.0119 198.689 39.1454C200.27 34.7702 200.988 30.13 200.804 25.4814C200.814 23.9746 200.744 22.4683 200.592 20.969C206.543 20.5742 210.463 13.5659 205.824 7.77032C205.377 7.07544 204.794 6.47765 204.111 6.01253C203.428 5.54741 202.658 5.22446 201.847 5.06289C200.892 5.01312 199.935 5.14225 199.027 5.44363C193.387 6.85374 193.302 3.28615 189.438 2.32727C187.672 2.03138 185.859 2.22148 184.193 2.87721C178.552 4.85138 179.652 7.99594 177.043 10.6188C175.633 12.0289 169.612 10.0406 167.173 14.0453C164.578 18.4308 164.818 27.7094 168.583 31.3475C169.419 32.0987 170.342 32.7473 171.333 33.2794C172.246 34.2133 173.315 34.9815 174.491 35.5496C175.591 37.7917 176.846 44.236 177.311 46.6755L176.874 50.3418C173.867 50.8144 170.901 51.5217 168.005 52.457C163.258 53.9933 158.653 55.9371 154.242 58.2666C146.204 62.497 147.191 62.4124 146.909 61.9611C145.935 60.9003 144.899 59.8974 143.807 58.9576C136.108 52.4711 127.76 46.9434 117.903 45.3218L116.747 38.7647C119.849 36.2265 121.541 31.1078 121.598 27.4838C122.754 27.9632 123.671 27.1171 124.277 26.0737C124.446 25.7634 125.504 26.0737 126.322 24.2405C126.463 23.8583 126.463 23.4382 126.322 23.056C126.604 22.8871 126.847 22.6583 127.032 22.3856C127.217 22.113 127.34 21.8032 127.392 21.478C127.444 21.1527 127.425 20.82 127.335 20.503C127.245 20.1861 127.087 19.8927 126.871 19.6435C127.306 19.3965 127.678 19.0533 127.959 18.6402C128.24 18.2271 128.423 17.7551 128.493 17.2604C128.803 15.4132 128.38 13.7492 126.604 13.1711C126.604 12.7621 126.9 12.0853 126.9 11.9443C126.915 11.2876 126.798 10.6346 126.556 10.0241C126.314 9.4136 125.951 8.85812 125.49 8.39077C123.53 6.71273 122.909 6.85374 121.682 6.98066C121.682 6.13458 122.218 5.57054 121.33 4.41424C120.648 3.62812 119.741 3.071 118.732 2.81869C117.723 2.56638 116.66 2.63113 115.689 3.00412L115.337 3.11693C115.116 2.56278 114.781 2.06149 114.354 1.64592C113.926 1.23036 113.415 0.909921 112.855 0.705632C111.092 0.0428763 109.88 0.903048 108.399 1.67861C106.185 -0.295552 101.955 0.762036 99.6844 2.12985C98.655 2.7503 98.5563 3.85019 98.1474 4.35784C97.2712 4.29397 96.3985 4.52206 95.6656 5.00649C95.0169 5.41542 94.4106 6.00767 93.8888 6.41661C93.5451 6.68335 93.2615 7.01973 93.0569 7.40369C92.6204 8.12059 92.3684 8.93455 92.3236 9.77269C91.977 9.85569 91.6477 9.99888 91.3506 10.1957C90.2241 11.2043 89.4321 12.5325 89.0803 14.003C88.9265 14.8167 89.0047 15.6571 89.3059 16.4284C89.3059 16.5131 89.447 16.6823 89.4893 16.7669C89.2072 17.1758 88.474 17.5001 88.333 18.6C88.1919 19.6999 88.2343 21.8574 89.3059 22.5061C89.7572 22.774 90.7161 23.056 91.0545 23.2675C91.0012 23.8444 91.0012 24.425 91.0545 25.002C91.4211 27.3851 93.776 28.2452 96.2014 27.8927L96.8642 28.2311C97.1218 30.7433 97.7887 33.1964 98.8383 35.4932C99.6211 37.0104 100.8 38.2872 102.251 39.1877L101.574 45.1948C98.2083 45.6866 94.9012 46.5181 91.7031 47.6767C82.0156 51.216 76.3611 55.813 71.3551 63.7943C64.4597 58.0833 52.7839 49.5239 43.7591 49.679C43.8171 49.0693 43.8171 48.4555 43.7591 47.8459C43.7591 47.4369 43.5335 46.1819 43.1528 45.9986C43.1528 45.3077 43.04 44.5885 42.9836 43.9257C46.1704 48.6355 52.6711 46.1396 51.9519 42.9246C52.7562 42.9778 53.5614 42.835 54.2983 42.5083C55.0352 42.1816 55.6817 41.6809 56.1823 41.0491C56.6682 40.3547 56.9289 39.5277 56.9289 38.6801C56.9289 37.8326 56.6682 37.0055 56.1823 36.3111C56.0655 36.1231 55.9231 35.9522 55.7592 35.8035C57.959 35.2394 58.7205 34.2664 59.0025 32.8704C59.2295 31.8024 59.1463 30.6918 58.7628 29.6695C59.0137 29.5455 59.2502 29.3942 59.4678 29.2182C60.1142 28.6006 60.5527 27.7974 60.7229 26.9197C61.0596 23.8641 60.3966 20.7817 58.8333 18.1347C58.3267 17.2521 57.4978 16.6001 56.5207 16.3156C56.3372 15.4761 56.2287 14.622 56.1964 13.7633C55.9637 12.43 55.4146 11.1719 54.595 10.0948C53.7755 9.01763 52.7095 8.1528 51.4866 7.5729C50.3017 7.01734 49.0156 6.71021 47.7075 6.67043C47.158 6.62486 46.6052 6.69697 46.0858 6.88195C45.1869 5.79453 44.0064 4.97503 42.6733 4.51295C40.0863 4.03245 37.4127 4.4714 35.1151 5.75385C34.6498 6.06408 34.2831 6.67043 33.8742 6.96655C32.8703 6.53543 31.7818 6.33686 30.6903 6.3857C29.5988 6.43453 28.5324 6.72951 27.571 7.24858C26.5503 7.69579 25.6307 8.34482 24.8673 9.15663C24.104 9.96844 23.5127 10.9263 23.1291 11.9725C22.5369 13.3826 22.001 15.6952 22.9035 16.9079C22.9553 16.975 23.0024 17.0457 23.0445 17.1194C22.5087 18.0642 21.2819 18.5295 20.8729 21.1523C20.7064 22.468 20.7588 23.8021 21.028 25.1007C21.1031 25.4205 21.2823 25.7063 21.5376 25.9131C21.7929 26.1199 22.1097 26.2359 22.4382 26.2429C22.001 30.4732 22.0715 36.1137 24.3841 39.7659C24.9598 40.6202 25.6317 41.4056 26.3865 42.1067C27.175 42.8792 28.1446 43.4416 29.2067 43.7424V46.2524C28.5017 46.6473 28.9952 48.8894 28.6991 50.2431C22.974 49.8482 14.9645 51.1737 10.5227 54.84C3.66948 60.5369 0.877449 68.5746 0.144188 77.4583C-0.856995 89.7123 5.78466 97.2987 16.0926 98.6101C16.7402 100.755 17.5028 102.864 18.377 104.927C14.0215 113.094 10.8363 121.833 8.91512 130.888C7.505 138.559 6.84225 150.714 6.71534 162.376C6.71534 167.932 6.71534 188.773 8.57669 193.962C8.87282 194.78 10.1419 195.217 10.9739 195.457C13.2875 196.063 15.6449 196.487 18.0245 196.726C18.6167 209.107 20.3794 256.247 20.3794 256.318C17.9565 257.615 15.7259 259.242 13.7518 261.154C13.4382 261.434 13.2029 261.79 13.0694 262.188C12.9358 262.587 12.9086 263.013 12.9904 263.425C13.1356 263.791 13.4082 264.092 13.7579 264.274C14.1076 264.455 14.511 264.504 14.894 264.412C17.2348 264.2 23.538 262.311 26.3865 261.789C26.457 262.395 26.5557 262.988 27.1479 263.199C28.1632 263.552 30.1656 263.735 30.8989 262.818C31.6321 261.902 31.195 259.505 31.2937 258.475C31.3783 257.714 37.8084 213.351 40.0082 198.136H41.7709C44.4783 212.787 51.8814 254.682 51.8955 254.752C50.4296 255.866 49.0399 257.077 47.7357 258.376C46.6499 259.476 44.8308 261.451 45.55 262.804C46.2691 264.158 47.9613 263.467 49.3855 262.945C52.2057 261.958 56.4361 260.054 58.5936 259.349C58.7487 259.928 58.932 260.506 59.5383 260.633C60.3797 260.76 61.2381 260.716 62.0625 260.506C63.2611 260.153 63.4726 259.406 63.4726 258.165C62.9508 251.918 62.9367 271.617 63.3598 197.854C64.9234 197.791 66.4727 197.531 67.9709 197.079C71.9615 195.119 71.5949 137.854 66.4056 119.832C66.0531 118.591 63.8251 112.119 62.2458 108.1C62.2953 107.964 62.2953 107.814 62.2458 107.677C61.7821 106.509 61.2597 105.366 60.6805 104.251C61.1036 99.0613 61.5548 89.0495 61.9779 86.0178L65.4891 88.4291C65.7769 89.5638 66.1834 90.665 66.7018 91.7146C67.2794 93.2303 68.2071 94.588 69.4092 95.6771C70.9281 97.0764 72.7359 98.1251 74.7047 98.7489C76.6735 99.3726 78.7553 99.5563 80.8029 99.287H83.1719C85.9076 115.532 85.1179 113.825 85.5268 114.234C75.1343 150.051 71.7782 217.991 73.1883 252.426C73.1882 252.589 73.2428 252.748 73.3434 252.877C74.0626 253.794 78.5467 254.287 80.0274 254.541C77.2462 256.024 74.5993 257.746 72.1166 259.688C70.8616 260.915 72.5114 263.213 74.0485 263.608C74.8945 263.834 86.4011 262.198 87.2754 262.071C87.3882 262.607 87.642 263.129 88.1778 263.227C89.6862 263.487 91.2167 263.596 92.7466 263.552C93.3671 263.552 94.1567 263.411 94.2978 262.818C94.7688 260.472 95.0424 258.09 95.1156 255.697C96.1168 255.697 97.118 255.697 97.4423 255.415C100.263 252.595 112.855 180.834 113.884 175.038C114.234 173.094 114.324 171.112 114.152 169.144C112.108 144.961 112.869 154.916 112.545 145.595C112.558 145.54 112.59 145.491 112.634 145.455C112.679 145.42 112.734 145.401 112.791 145.401C112.848 145.401 112.904 145.42 112.949 145.455C112.993 145.491 113.025 145.54 113.038 145.595C113.983 156.679 114.547 157.059 115.309 171.668C115.309 172.669 126.801 251.298 128.874 253.356C129.978 253.813 131.162 254.043 132.357 254.033C132.222 257.069 132.464 260.11 133.076 263.086C133.115 263.198 133.177 263.301 133.257 263.388C133.337 263.475 133.433 263.545 133.541 263.594C134.571 264.102 138.42 263.594 139.182 263.495C139.424 263.404 139.636 263.248 139.795 263.044C139.954 262.84 140.054 262.596 140.084 262.339C141.283 262.508 152.479 264.087 153.297 263.876C154.834 263.481 156.498 261.183 155.229 259.942C152.292 257.696 149.169 255.706 145.894 253.991C147.586 253.864 151.14 253.554 152.606 252.694C154.82 251.382 152.705 153.012 134.937 112.669C135.262 112.147 136.503 97.6653 136.559 97.0167C141.016 96.866 145.335 95.4313 148.996 92.885L154.637 90.8545C151.202 103.942 148.625 117.239 146.923 130.662C146.599 133.313 144.963 146.484 146.726 148.458C146.908 148.663 147.159 148.793 147.431 148.824C148.235 148.895 151.45 149.177 154.876 149.388C154.876 189.845 158.853 211.561 165.269 254.16C165.289 254.292 165.355 254.413 165.456 254.501C165.557 254.589 165.685 254.638 165.819 254.64H166.186C166.451 256.604 166.881 258.542 167.469 260.435C168.357 262.226 182.134 262.184 184.08 261.563C184.42 261.389 184.689 261.104 184.843 260.754C184.997 260.405 185.026 260.014 184.926 259.646C184.362 257.136 179.286 256.586 176.888 254.781H177.72C177.85 254.784 177.977 254.742 178.08 254.663C178.183 254.583 178.255 254.47 178.284 254.344L189.072 200.35C189.199 201.14 196.785 255.345 196.785 255.345C196.809 255.487 196.884 255.615 196.995 255.706C197.107 255.797 197.248 255.844 197.391 255.838H198.505C198.704 257.825 199.024 259.799 199.464 261.747C199.486 261.836 199.528 261.919 199.586 261.99C199.645 262.061 199.719 262.118 199.803 262.156C201.213 262.818 213.608 263.566 215.652 262.452C216.024 262.25 216.307 261.917 216.445 261.518C216.583 261.119 216.567 260.682 216.4 260.294C216.046 259.312 215.414 258.455 214.581 257.827C212.875 256.882 209.899 256.67 208.306 255.838H209.095C209.23 255.83 209.359 255.779 209.463 255.693C209.567 255.607 209.641 255.49 209.674 255.359C209.674 255.359 213.777 240.285 216.188 205.61C217.598 185.389 217.993 164.716 217.838 144.721C219.643 144.862 222.717 145.003 224.24 144.932C224.663 144.932 225.072 144.932 225.255 144.524C226.891 141.266 225.65 108.89 224.734 100.725C224.649 99.9356 222.633 86.5254 222.365 84.7769C227.06 84.5935 233.843 83.5924 237.693 80.8426C257.434 66.7414 261.199 42.6566 262.807 39.4275C262.962 39.089 262.581 38.9198 261.636 38.4545C262.179 36.8448 262.824 35.2716 263.568 33.7447C265.528 32.6589 267.799 31.418 267.954 29.1759C268.029 28.9202 268.012 28.6464 267.906 28.4018C267.801 28.1571 267.613 27.9571 267.376 27.8363ZM126.745 13.439C126.632 13.439 126.604 13.3544 126.604 13.2134C126.604 13.0724 126.871 13.439 126.745 13.439ZM178.651 67.0235C185.617 67.4606 189.763 67.517 196.842 67.4747C197.293 70.2103 197.8 73.1998 198.35 76.3726C194.557 76.3726 181.697 76.5136 178.355 76.4572C178.51 73.3549 178.623 70.1821 178.651 67.0517V67.0235ZM176.804 96.5372C185.011 97.0167 191.102 97.1436 202.003 96.918C202.736 100.937 203.497 104.998 204.174 108.566C197.575 108.763 182.346 109.031 175.492 108.833C175.76 106.591 176.31 101.148 176.804 96.5654V96.5372ZM174.9 113.374C185.645 113.994 194.247 114.023 205.175 113.698C205.711 116.406 206.233 119.029 206.741 121.496C194.275 121.976 182.078 122.004 173.405 121.835C173.979 119.043 174.477 116.222 174.9 113.374ZM201.086 91.8415C196.856 91.9261 181.344 92.0954 177.227 92.039C177.593 88.006 177.875 84.3538 178.087 81.04C184.856 81.4631 189.452 81.6182 199.239 81.5054C199.577 83.3667 200.818 90.2904 201.086 91.8415ZM195.022 54.1914C195.192 56.504 195.699 60.0857 196.052 62.3842C192.456 62.3842 181.457 62.5111 178.637 62.4688C178.609 59.5741 178.416 56.6834 178.059 53.8107C181.866 58.9294 192.146 58.2243 195.022 54.1914ZM172.461 126.333C184.241 127.044 196.051 127.133 207.84 126.601C208.376 129.083 208.87 131.339 209.335 133.313C207.107 133.186 180.766 131.903 171.177 131.438C171.572 129.83 171.995 128.124 172.418 126.333H172.461ZM175.549 35.0279C175.055 34.0408 171.925 33.6178 171.629 31.1219C171.29 28.2029 174.689 28.1042 175.859 29.4156C175.958 29.5143 176.649 30.445 176.733 30.5578C177.467 31.5449 178.143 31.5731 178.369 30.163C178.693 27.5402 177.89 22.2945 180.949 22.8445C183.136 23.5303 185.384 24.0025 187.662 24.2546C191.991 24.6494 195.431 24.2546 198.223 21.1523C198.534 21.0818 199.563 21.0395 199.93 21.0113C200.058 22.5024 200.096 23.9999 200.042 25.4955C200.139 30.022 199.353 34.5241 197.73 38.7506C195.488 44.1232 192.386 45.4205 192.386 45.4205C192.314 45.4479 192.248 45.4895 192.192 45.5428C192.136 45.5961 192.092 45.66 192.061 45.7307C191.934 46.055 191.892 45.7307 194.543 51.6673C195.107 56.786 179.948 58.873 177.988 50.8353L178.468 46.7319C178.524 46.4357 176.846 37.6648 175.506 35.0279H175.549ZM144.526 60.41C148.985 64.837 152.057 70.4672 153.368 76.6123C154.2 80.8426 153.847 84.3961 152.465 86.8356C151.56 88.4026 150.429 89.828 149.109 91.066C147.725 92.4803 146.037 93.5606 144.174 94.2246C140.259 95.6605 136.058 96.1439 131.92 95.6348C126.415 94.939 120.981 93.7738 115.675 92.1518C115.675 91.7287 115.591 91.2775 115.548 90.7417L120.413 88.9649C121.345 88.7057 122.247 88.3513 123.106 87.9073C123.6 87.6535 123.642 86.9061 123.699 86.2716C123.938 83.959 123.459 84.2692 124.164 83.7052C125.743 82.4643 130.087 81.2516 131.976 80.7157C132.611 80.5465 133.527 80.4055 133.245 79.7991C133.156 78.933 132.801 78.1155 132.23 77.4583C129.255 64.8519 129.762 64.8942 129.283 64.9788C129.25 64.9818 129.219 64.9919 129.19 65.0084C129.162 65.0248 129.138 65.0472 129.119 65.0741C129.1 65.1009 129.087 65.1315 129.081 65.1638C129.076 65.196 129.077 65.2291 129.085 65.2608C129.72 69.0117 130.665 73.8625 131.342 77.134L129.593 76.8802C129.297 76.8802 129.001 76.8802 128.93 76.7392C128.366 75.5688 128.606 74.1869 127.252 73.51C127.111 73.4151 126.952 73.3508 126.785 73.3214C126.617 73.292 126.446 73.2981 126.281 73.3393C126.116 73.3806 125.961 73.456 125.828 73.5607C125.694 73.6654 125.583 73.7971 125.504 73.9471C124.77 75.3573 125.659 78.5159 125.504 78.4736C124.753 78.7814 123.966 78.9945 123.163 79.1082C123.13 78.979 123.073 78.8576 122.993 78.7511C122.913 78.6445 122.812 78.555 122.698 78.4877C119.837 77.0895 116.859 75.943 113.8 75.0611C113.137 69.5053 112.263 62.5111 111.952 60.1703C112.061 60.12 112.16 60.0534 112.249 59.9729C112.746 58.9914 113.111 57.9482 113.334 56.8706C113.574 57.1385 113.771 57.3924 114.209 57.2232C118.034 54.443 121.649 51.3841 125.024 48.0715C132.177 51.024 138.773 55.1779 144.526 60.3536V60.41ZM126.674 74.6381C127.689 75.2163 127.139 76.9366 128.282 77.7968C129.426 78.1323 130.614 78.2939 131.807 78.2762C132.087 78.7412 132.264 79.2603 132.329 79.7991C131.229 80.1376 125.884 81.3221 123.656 82.8591C123.611 81.7947 123.493 80.7347 123.304 79.6863C124.46 79.5876 125.913 79.6863 126.336 78.939C126.759 78.1916 126.04 74.2574 126.674 74.6381ZM123.953 47.8459C121.428 50.0315 115.774 54.7131 114.082 55.954C113.236 55.0093 111.022 52.3864 110.401 51.4276C111.811 50.2149 117.029 46.6896 117.79 46.2665C119.897 46.5167 121.966 47.0185 123.953 47.7613V47.8459ZM101.743 46.1678L108.625 51.4699C107.581 52.5839 105.029 54.7977 103.887 55.954C102.279 54.7977 97.8936 50.1585 95.4259 47.592C97.4979 46.9783 99.6083 46.5025 101.743 46.1678ZM97.9077 27.4979C97.7103 27.2158 97.682 27.3005 96.2437 26.539C95.299 25.7634 94.1568 25.1289 93.7337 23.9726C93.7337 23.0137 94.0298 21.8292 95.031 21.8856C95.788 22.06 96.4903 22.4184 97.0757 22.9291C97.7157 23.139 98.4038 23.1532 99.0519 22.9698C99.7 22.7864 100.279 22.4138 100.714 21.8997C101.202 21.0197 101.348 19.99 101.123 19.009C102.051 18.926 102.91 18.4862 103.52 17.7822C103.821 17.1735 104.003 16.5131 104.056 15.8362C105.375 16.2109 106.784 16.106 108.032 15.5401C108.886 15.1723 109.665 14.6514 110.331 14.003C110.478 14.374 110.673 14.7247 110.909 15.0465C111.128 15.3818 111.434 15.6518 111.794 15.828C112.154 16.0042 112.554 16.0801 112.954 16.0477C113.451 15.9687 113.93 15.7965 114.364 15.5401V16.1041C114.356 16.5366 114.444 16.9655 114.62 17.3606C114.796 17.7557 115.056 18.1074 115.383 18.391C115.71 18.6746 116.094 18.8833 116.51 19.0022C116.926 19.1211 117.363 19.1475 117.79 19.0795C117.782 19.1733 117.782 19.2677 117.79 19.3615C117.931 20.123 117.635 22.4214 118.693 22.6894C119.75 22.9573 119.172 20.3204 121.203 19.996C121.568 19.907 121.952 19.9485 122.29 20.1134C122.627 20.2782 122.896 20.556 123.05 20.8985C123.445 22.1676 123.05 22.7317 122.387 23.9867L121.95 24.4802C121.273 25.2135 120.54 25.989 120.54 26.6941C120.582 28.851 120.174 30.993 119.341 32.9832C118.625 35.0006 117.366 36.7815 115.703 38.1302C115.621 38.1938 115.556 38.2782 115.517 38.3748C115.477 38.4714 115.464 38.5767 115.478 38.6801L116.634 45.4628L109.33 50.4264C108.046 49.4393 109.753 50.9058 102.73 45.4769L103.492 38.9198C103.505 38.7995 103.482 38.678 103.427 38.5703C103.372 38.4625 103.287 38.3733 103.182 38.3135C98.1192 35.4791 98.514 28.4708 97.9077 27.4979ZM81.5503 54.1491C85.4082 51.3863 89.6964 49.2803 94.2414 47.9164C96.8228 50.8867 99.5674 53.7113 102.462 56.3771C103.083 56.9129 103.872 57.5757 104.422 57.0116C104.62 56.786 104.916 56.4899 105.254 56.1515C105.606 57.3751 106.02 58.58 106.495 59.7614C106.551 59.8659 106.628 59.9583 106.72 60.0333C106.812 60.1083 106.917 60.1644 107.031 60.1985C106.876 62.0175 106.495 67.2491 106.058 73.0447C101.584 72.0844 97.0095 71.6771 92.4364 71.832C92.4364 71.4653 92.8876 67.1222 92.9017 66.9812C92.9017 66.2197 92.9017 65.2185 92.9864 64.8237C93.0032 64.762 92.9948 64.6961 92.9631 64.6406C92.9313 64.585 92.8788 64.5444 92.8171 64.5276C92.7554 64.5107 92.6896 64.5191 92.634 64.5508C92.5785 64.5826 92.5378 64.6351 92.521 64.6968C91.266 67.2491 91.4916 69.054 91.6608 71.8743C88.5067 72.0302 85.4151 72.8115 82.5656 74.1728C82.5076 74.2027 82.4639 74.2544 82.4441 74.3166C82.4242 74.3787 82.4299 74.4462 82.4598 74.5041C82.4897 74.5621 82.5415 74.6058 82.6036 74.6256C82.6657 74.6455 82.7332 74.6398 82.7912 74.6099C92.662 69.7873 110.571 74.3561 120.089 78.4595C120.753 78.7316 121.398 79.0472 122.021 79.4043C122.455 81.6278 122.588 83.8998 122.416 86.1588C122.416 86.7933 122.416 86.9484 121.287 87.3856C120.484 87.7099 119.525 87.9355 118.933 88.1611C117.001 88.8803 115.139 89.5712 113.292 90.2763C102.864 93.6232 92.2092 96.2151 81.4093 98.032C77.8981 98.032 73.2729 97.3833 70.6924 94.9579C59.5243 84.5089 71.2 61.2561 81.5503 54.1491ZM28.6991 42.2054C27.3885 41.4496 26.2692 40.4027 25.4276 39.1454C23.2278 35.733 23.1996 30.1489 23.5662 26.116C25.5363 25.5028 27.3272 24.4186 28.7837 22.9573C30.3602 21.3462 31.7378 19.552 32.8871 17.6129L33.6768 16.09C35.1063 19.7466 37.5529 22.9174 40.7274 25.2276C41.8311 25.7328 43.0252 26.011 44.2386 26.0455C44.2109 27.1514 44.3295 28.2561 44.5911 29.331C44.6193 29.388 44.6588 29.4385 44.7072 29.4796C44.7556 29.5207 44.812 29.5515 44.8727 29.57C44.9335 29.5885 44.9974 29.5943 45.0605 29.5872C45.1237 29.58 45.1847 29.56 45.2398 29.5284C45.8602 29.19 46.0999 27.371 47.0588 26.116C47.3126 25.7634 47.6088 25.4955 47.9754 25.5801C48.3621 25.6393 48.7293 25.7891 49.0471 26.0172C50.4572 27.0607 49.3291 31.2347 46.6922 32.532C45.9025 32.9268 41.785 37.7212 41.517 39.23C41.3406 40.0588 41.3844 40.9194 41.644 41.726C41.7286 42.9528 41.8696 44.5462 41.9683 45.9563C39.3596 45.9563 32.9999 45.9563 30.3912 46.0832C30.5181 42.6002 30.5886 42.9669 28.6991 42.2054ZM55.0401 197.022H44.3937C46.0153 176.942 47.9895 127.701 47.5665 110.258C49.4466 110.173 51.1387 110.06 52.6429 109.919C55.8579 126.545 57.6488 180.764 55.0401 197.022ZM19.7871 195.739C18.2642 178.916 19.7871 124.317 23.8201 109.722C24.5251 109.821 29.5733 110.272 29.5733 110.272C27.43 127.503 25.2302 176.956 25.9916 196.289C23.7073 196.12 21.6203 195.908 19.7025 195.739H19.7871ZM35.383 109.242L30.081 109.031C30.0687 107.511 30.1771 105.993 30.4053 104.49L32.309 104.349L36.4265 104.251C36.2237 105.942 35.8746 107.612 35.383 109.242ZM19.0539 104.603L29.2631 104.406C28.9772 105.959 28.845 107.536 28.8683 109.115C25.0374 109.085 21.2179 108.693 17.4604 107.945C18.5039 105.661 18.9411 104.885 19.0539 104.603ZM30.5463 196.543C30.081 178.945 32.9435 125.106 34.7767 110.342C36.7085 110.342 38.1469 110.441 42.1516 110.342C42.1516 117.026 40.1492 188.604 39.6839 196.853C37.2726 196.853 31.1668 196.585 30.5463 196.543ZM36.4688 109.257C36.8148 107.611 36.985 105.932 36.9765 104.251C46.2409 104.081 55.308 103.856 59.3973 104.406C59.9544 105.388 60.4262 106.417 60.8075 107.48C52.8403 109.186 43.9001 109.257 36.4688 109.257ZM9.9163 193.793C7.4768 192.242 6.68714 148.472 9.67659 131.015C11.1971 123.201 13.7234 115.617 17.1925 108.453L18.6731 108.763C14.7248 123.019 13.1455 174.827 15.1055 195.076C13.3249 194.89 11.5786 194.458 9.9163 193.793ZM30.3207 257.248C26.4006 257.784 24.2854 258.094 22.7484 258.433C21.8664 258.516 20.9844 258.275 20.2666 257.756C21.4229 257.065 21.6767 257.164 21.6767 256.501C21.8036 253.765 19.0116 202.211 18.6731 196.754C25.1033 197.488 33.1409 197.882 39.5711 198.066C37.3854 211.518 31.3219 250.353 30.2784 257.291L30.3207 257.248ZM61.8791 254.344C58.2974 255.345 56.0554 255.993 54.5465 256.557C53.6831 256.762 52.7745 256.642 51.9942 256.219C53.0095 255.415 53.221 255.472 53.1646 254.809C52.9108 251.989 42.9695 200.985 42.4054 198.15C50.3867 198.32 57.9167 198.235 62.8098 197.896C62.4855 213.732 61.9215 247.885 61.8368 254.386L61.8791 254.344ZM65.4608 120.086C70.1706 136.768 70.6501 187.772 67.4773 195.965C66.2928 196.557 60.9767 196.783 59.6794 196.839C62.4996 179.283 61.0895 126.333 57.8603 109.228C59.1858 109.017 60.3703 108.791 61.4702 108.551C63.0354 112.824 65.0942 118.972 65.4185 120.129L65.4608 120.086ZM55.5054 78.8685C54.8991 78.3185 54.3068 77.825 53.7992 77.2891C53.7599 77.2386 53.7022 77.2058 53.6387 77.1979C53.5753 77.1899 53.5112 77.2076 53.4607 77.2468C53.4103 77.2861 53.3774 77.3438 53.3695 77.4073C53.3616 77.4707 53.3792 77.5348 53.4184 77.5853C55.8297 81.5336 59.1717 83.4372 60.9626 85.0589C60.5113 86.7792 60.046 97.0872 59.5525 103.193C55.8297 102.333 36.3842 103.348 29.8554 103.348C29.7066 103.35 29.5647 103.411 29.4605 103.517C24.3277 103.757 20.2807 103.997 19.1526 104.067C18.4757 102.488 17.6297 99.9356 17.1079 98.314C19.3946 98.7246 21.7378 98.7055 24.0175 98.2576C24.0567 99.1149 24.2427 99.9591 24.5674 100.753C25.2725 101.374 48.7369 99.6959 49.4842 99.5408C49.9919 99.428 50.006 98.7229 50.0483 98.1307C50.1752 96.7206 50.2598 93.6183 50.3162 89.9802C50.5344 89.8931 50.7311 89.7597 50.8927 89.5891C51.0543 89.4186 51.1769 89.2149 51.252 88.9923C51.3271 88.7697 51.3529 88.5334 51.3277 88.2998C51.3025 88.0662 51.2268 87.8408 51.1058 87.6394C51.2708 87.4294 51.3911 87.1879 51.4593 86.9297C51.5276 86.6715 51.5423 86.4021 51.5027 86.138C51.4631 85.8739 51.3699 85.6207 51.2289 85.3939C51.088 85.1671 50.9021 84.9715 50.6828 84.8192C50.8651 84.6414 51.0038 84.4239 51.088 84.1837C51.1723 83.9434 51.1998 83.6869 51.1683 83.4343C51.1369 83.1816 51.0475 82.9397 50.907 82.7273C50.7665 82.515 50.5788 82.3381 50.3585 82.2104C50.3585 77.1199 50.3585 72.1563 50.1752 69.3784C50.0906 67.094 50.0201 66.8401 49.6675 66.5581C48.9766 66.1351 46.0012 66.3043 44.6616 66.3607C44.6802 65.7627 44.518 65.173 44.1963 64.6686C43.5476 64.034 40.6851 64.6686 39.0211 64.6686C38.6545 63.4982 38.4712 62.6239 37.1739 62.0175C36.5353 61.792 35.8357 61.8113 35.2106 62.0718C34.5854 62.3323 34.0791 62.8154 33.7896 63.4277C33.7896 63.5687 33.3807 64.725 33.2961 65.1057C31.7829 65.2202 30.2768 65.4132 28.7837 65.6839C28.2478 65.8531 28.2055 66.9812 28.1914 67.7708C22.8189 68.3349 22.4664 68.3349 22.3676 68.8848C22.2689 69.4348 22.6638 78.4031 22.692 79.1505C21.3735 79.3178 20.0683 79.577 18.7859 79.926C19.0528 78.1747 19.2129 76.4088 19.2654 74.6381C19.2654 73.8625 19.3359 70.5488 18.8706 70.5347C18.4052 70.5206 18.1232 73.7779 18.0809 74.4266C17.9963 75.4137 17.8694 79.0941 17.9399 80.194C17.3476 80.3773 16.7836 80.5747 16.2054 80.8003C16.1456 80.8228 16.0971 80.868 16.0707 80.9262C16.0442 80.9844 16.042 81.0507 16.0644 81.1105C16.0869 81.1704 16.1321 81.2188 16.1903 81.2453C16.2485 81.2717 16.3148 81.274 16.3746 81.2516C24.3418 78.5018 35.1292 80.0389 41.0376 83.0001L41.3055 88.9367C36.2009 92.5043 28.0786 96.918 21.8741 97.7076C20.0443 97.9191 18.1942 97.8812 16.3746 97.5948C5.68595 96.2129 0.17239 88.556 0.947955 77.557C1.55431 68.9976 4.27583 60.7202 10.847 55.2349C15.0773 51.7237 23.1573 50.5251 28.6568 51.0045C30.0669 51.1173 29.3054 48.0715 29.6721 46.9716C30.2079 46.887 31.9141 46.8588 32.4923 46.8447C32.4223 47.8164 32.4223 48.7919 32.4923 49.7636C32.4923 50.1726 32.7884 51.7096 33.155 51.5968C33.5217 51.484 33.6627 50.2854 33.6768 49.9469C33.6909 49.6085 33.6768 49.5662 33.5499 46.8447H38.2456C38.1888 47.7839 38.1888 48.7257 38.2456 49.6649C38.2456 50.0739 38.5417 51.6109 38.9083 51.4981C39.275 51.3853 39.416 50.1867 39.4301 49.8482C39.4442 49.5098 39.4301 48.8047 39.3032 46.8729H42.7438C42.8849 47.33 42.9609 47.8047 42.9695 48.283C42.9695 49.9187 42.6874 50.1585 42.9695 50.4828C43.7309 51.343 50.6405 47.9305 70.8475 64.7532C67.0825 71.0987 64.1071 79.4043 65.207 86.7228C61.9215 84.5089 62.556 85.1999 55.5054 78.8685ZM23.7073 78.9954C23.5662 74.2715 23.4534 69.9565 23.4534 69.4348C24.5674 69.2656 27.0915 69.0117 28.2055 68.8989C28.2055 70.9718 28.2901 71.1128 29.6157 71.2538C32.1398 71.5499 43.2656 71.2538 44.436 70.2526C44.5422 70.1667 44.6247 70.055 44.6757 69.9283C44.7651 69.1513 44.784 68.3679 44.7321 67.5875C46.1082 67.5098 47.4876 67.5098 48.8638 67.5875C49.1317 70.0975 49.1599 79.362 49.1599 81.8861C48.6304 81.8908 48.1039 81.9667 47.5947 82.1117C47.7921 80.9554 48.0882 79.08 46.9178 78.8262C46.6045 78.7365 46.2718 78.7409 45.961 78.8387C45.6501 78.9364 45.3748 79.1233 45.1693 79.3761C44.5585 80.318 44.1993 81.4005 44.1258 82.5207C43.4801 82.5228 42.8349 82.4851 42.1939 82.4079C42.1721 82.3316 42.1345 82.2607 42.0834 82.2C42.0324 82.1392 41.9692 82.09 41.8978 82.0553C36.2186 79.4234 29.9321 78.3805 23.7073 79.0377V78.9954ZM50.2175 86.7933C49.6675 87.1176 49.315 86.892 48.3279 87.0189C48.1746 87.0189 48.0275 87.0798 47.9191 87.1883C47.8107 87.2967 47.7498 87.4438 47.7498 87.5971C47.7498 87.7504 47.8107 87.8975 47.9191 88.0059C48.0275 88.1143 48.1746 88.1752 48.3279 88.1752C48.7967 88.2232 49.2692 88.2232 49.738 88.1752C49.8508 88.1752 50.2598 88.2598 50.2598 88.3727C50.2598 89.6559 47.7357 89.1623 46.6217 88.5137C45.2416 88.4291 43.8568 88.5623 42.5182 88.9085L42.2362 83.0988C43.0034 83.3043 43.8036 83.3569 44.5911 83.2539C44.7002 83.1929 44.7812 83.0917 44.8167 82.9719C45.141 81.7874 45.409 79.6017 46.6499 79.9119C46.7228 80.7999 46.632 81.6937 46.382 82.5489C46.2409 83.4231 46.5794 83.6206 47.2421 83.5641C47.8344 83.2981 48.4696 83.1405 49.1176 83.0988C49.4842 83.0988 49.8508 83.0988 49.9637 83.5219C50.0765 83.9449 49.7098 84.1 49.3573 84.2269C49.0048 84.3538 47.6229 84.5512 47.4818 84.5794C47.3424 84.6233 47.2236 84.7161 47.1472 84.8407C47.0707 84.9653 47.0419 85.1133 47.0659 85.2575C47.0899 85.4016 47.1652 85.5323 47.2779 85.6253C47.3906 85.7184 47.5331 85.7676 47.6793 85.7639C49.3855 85.5806 49.0894 85.496 49.597 85.6088C49.8181 85.6606 50.0146 85.7871 50.1533 85.9669C50.292 86.1468 50.3645 86.3689 50.3585 86.5959C50.3609 86.6452 50.3488 86.6942 50.3237 86.7368C50.2987 86.7794 50.2618 86.8137 50.2175 86.8356V86.7933ZM42.4477 89.4866C43.6913 89.3221 44.9442 89.2373 46.1986 89.2328C47.0789 89.7886 48.0912 90.1001 49.1317 90.1353C49.1317 92.6594 49.1317 97.1859 48.9625 98.5114C45.8884 98.8357 27.9658 100.584 24.8918 100.302C24.729 99.5781 24.6206 98.8428 24.5674 98.1025C32.3513 96.4949 42.0529 90.2763 42.4477 89.5289V89.4866ZM93.212 262.24C91.6047 262.345 89.9908 262.26 88.4035 261.986V261.281C88.3871 261.112 88.3063 260.956 88.1778 260.844C87.7971 260.548 88.0932 260.76 78.2224 262.015L74.9932 262.381C74.683 262.381 74.3305 262.536 74.3305 262.381C73.569 262.184 72.455 260.844 72.9204 260.351C75.5555 258.236 78.3355 256.309 81.2401 254.583C85.6255 255.105 90.8712 255.472 94.1144 255.57C93.9709 257.825 93.6741 260.068 93.2261 262.282L93.212 262.24ZM140.86 254.118C142.171 254.118 143.483 254.047 144.738 253.977C146.641 255.147 152.93 259.025 154.482 260.619C154.735 260.886 154.482 261.408 154.256 261.704C153.354 262.945 152.663 262.635 152.409 262.607C150.012 262.409 142.073 261.295 139.718 260.957C139.636 260.945 139.552 260.95 139.473 260.972C139.393 260.993 139.318 261.031 139.253 261.083C139.189 261.134 139.135 261.198 139.096 261.271C139.057 261.344 139.034 261.424 139.027 261.507V262.212C137.446 262.498 135.835 262.588 134.232 262.48C133.662 259.734 133.369 256.937 133.358 254.132C133.33 253.723 132.907 254.301 140.874 254.16L140.86 254.118ZM134.007 111.865C126.773 111.865 92.3659 112.725 86.4998 113.388C86.3588 110.991 84.7231 101.134 84.3282 98.7652C91.134 97.594 97.8741 96.069 104.521 94.1964C104.355 95.1554 104.313 96.1315 104.394 97.1013C106.094 99.1537 107.982 101.042 110.035 102.742C110.141 102.826 110.268 102.879 110.402 102.896C110.536 102.914 110.672 102.894 110.796 102.84C112.813 101.157 114.541 99.1569 115.915 96.918C115.974 95.7516 115.893 94.5823 115.675 93.435C119.595 94.8451 130.228 97.0731 135.558 96.9885C135.304 99.9074 134.232 110.37 134.007 111.865ZM148.954 124.881C152.564 100.02 155.934 91.7851 156.005 89.952C158.239 88.9804 160.319 87.6883 162.181 86.1165C162.913 85.4671 163.6 84.7699 164.24 84.0295C164.479 83.8039 164.155 83.4513 163.929 83.6629C163.704 83.8744 163.154 84.1705 162.759 84.4243C157.965 87.6394 156.865 88.8098 151.238 90.8122C152.467 89.5984 153.399 88.1167 153.96 86.4831C156.428 78.1493 153.029 69.5617 147.628 62.8072C154.068 58.8291 160.919 55.5574 168.061 53.0492C170.878 52.105 173.763 51.379 176.691 50.8776C176.797 51.4947 176.991 52.0932 177.269 52.6544C179.525 66.5158 175.069 106.859 172.418 120.255C170.881 128.039 167.948 139.391 164.578 146.653C164.353 147.191 164.084 147.71 163.774 148.204C161.998 148.796 149.532 147.753 147.6 147.569C146.162 144.961 148.545 127.898 148.982 124.881H148.954ZM208.602 254.611H197.899C197.899 254.188 189.946 197.939 189.72 197.163C190.623 191.368 196.771 160.275 196.559 152.505C196.559 152.441 196.534 152.38 196.489 152.335C196.444 152.29 196.383 152.265 196.32 152.265C196.256 152.265 196.195 152.29 196.15 152.335C196.105 152.38 196.08 152.441 196.08 152.505C196.08 153.323 195.826 154.902 195.488 157.003C190.256 189.661 186.237 208.472 177.241 253.653L166.355 253.54C159.22 208.416 155.722 186.531 155.539 149.445C157.034 149.529 163.238 149.924 164.437 149.318C164.86 149.106 165.297 148.162 165.565 147.612C167.682 142.779 169.426 137.791 170.783 132.693C180.442 133.229 205.26 134.385 209.533 134.61C211.352 143.184 211.479 143.677 211.986 143.861C213.599 144.272 215.246 144.532 216.907 144.636C217.02 173.219 215.526 226.79 208.63 254.541L208.602 254.611ZM262.186 39.3711C260.24 43.9257 256.095 66.7132 237.114 80.0247C233.406 82.6194 226.651 83.55 222.139 83.677C221.935 81.4592 221.51 79.2673 220.87 77.134C220.588 76.2597 220.165 75.2304 219.911 74.6099C219.885 74.5584 219.841 74.5174 219.788 74.4939C219.736 74.4703 219.676 74.4655 219.62 74.4803C219.564 74.4952 219.515 74.5287 219.481 74.5753C219.446 74.622 219.429 74.679 219.432 74.7368C220.207 80.9131 220.334 78.7274 221.18 84.3115C221.18 84.3115 223.507 100.063 223.591 100.838C224.677 110.709 225.368 139.673 224.268 143.692C220.375 143.783 216.482 143.481 212.649 142.789C211.14 137.755 196.376 64.6263 196.052 52.2736C199.789 52.9505 214.2 58.1397 226.271 58.5205C237.044 58.8448 253.246 35.9586 253.387 35.9586C254.501 35.7612 260.649 38.3699 262.201 39.3006L262.186 39.3711ZM266.91 29.0913C266.797 30.9104 264.682 32.1372 263.117 33.096C262.567 33.4486 261.326 37.6366 261.171 38.2289C259.222 37.3184 257.22 36.5227 255.178 35.8458C256.588 33.7024 257.815 32.5743 257.279 32.0667C256.306 31.1783 254.459 29.9797 255.418 28.9785C255.536 29.0042 255.65 29.047 255.756 29.1054C257.096 29.74 258.168 31.4603 258.746 30.4027C259.004 29.16 259.358 27.939 259.803 26.7505C260.551 25.0161 261.016 25.3404 260.833 27.0325C260.673 28.1891 260.384 29.3242 259.973 30.4168C259.924 30.5701 259.938 30.7365 260.012 30.8793C260.086 31.0221 260.214 31.1297 260.367 31.1783C260.521 31.2269 260.687 31.2126 260.83 31.1386C260.973 31.0645 261.08 30.9368 261.129 30.7834C261.481 29.5357 262.008 28.3441 262.694 27.244C263.385 26.2288 264.217 25.9749 264.189 26.6659C263.969 27.9046 263.489 29.0823 262.779 30.1207C262.597 30.374 262.485 30.6707 262.454 30.9809C262.431 31.1126 262.455 31.2481 262.521 31.3645C262.587 31.4808 262.691 31.5707 262.815 31.6189C262.94 31.6671 263.078 31.6707 263.205 31.6289C263.332 31.5871 263.44 31.5026 263.512 31.3898C263.936 30.7977 264.407 30.2412 264.922 29.7259C265.754 28.908 266.967 28.3439 266.924 29.0208L266.91 29.0913Z" fill="black"/>
<path d="M108.103 30.1912C108.681 31.5026 111.84 30.6847 111.219 30.022C111.174 29.9772 111.113 29.952 111.05 29.952C110.987 29.952 110.926 29.9772 110.881 30.022C110.693 30.0824 110.491 30.0824 110.303 30.022C109.918 29.9668 109.543 29.8576 109.189 29.6976V24.3956C109.175 24.3402 109.144 24.2909 109.099 24.2556C109.054 24.2203 108.999 24.2012 108.942 24.2012C108.885 24.2012 108.83 24.2203 108.785 24.2556C108.74 24.2909 108.708 24.3402 108.695 24.3956C108.189 25.9359 107.974 27.5569 108.061 29.1759C108.025 29.5146 108.039 29.8566 108.103 30.1912ZM104.014 26.6941C104.014 26.3133 104.014 25.9044 103.929 25.5519C103.901 25.3946 103.814 25.2541 103.685 25.1595C103.557 25.065 103.396 25.0237 103.238 25.0442C103.158 25.0562 103.081 25.0841 103.012 25.1262C102.943 25.1684 102.883 25.2239 102.835 25.2897C102.788 25.3554 102.754 25.4299 102.736 25.5088C102.718 25.5878 102.716 25.6695 102.73 25.7493C102.73 26.0031 102.73 26.2992 102.801 26.7787C102.806 26.8583 102.828 26.9361 102.863 27.0075C102.899 27.0789 102.948 27.1427 103.008 27.195C103.069 27.2474 103.139 27.2874 103.214 27.3128C103.29 27.3381 103.37 27.3483 103.449 27.3427C103.529 27.3372 103.607 27.316 103.678 27.2804C103.75 27.2448 103.813 27.1955 103.866 27.1352C103.918 27.075 103.958 27.005 103.984 26.9293C104.009 26.8536 104.019 26.7737 104.014 26.6941ZM113.532 26.5954C113.532 26.7562 113.596 26.9104 113.709 27.0241C113.823 27.1378 113.977 27.2017 114.138 27.2017C114.299 27.2017 114.453 27.1378 114.567 27.0241C114.681 26.9104 114.745 26.7562 114.745 26.5954V25.9608C114.825 25.8463 114.865 25.7079 114.857 25.5681C114.849 25.4282 114.794 25.2952 114.701 25.1906C114.608 25.086 114.482 25.016 114.344 24.992C114.206 24.968 114.064 24.9914 113.941 25.0583C113.391 25.4109 113.532 26.1159 113.532 26.5954ZM110.683 35.3099C110.176 35.5922 109.643 35.8236 109.09 36.0009C108.78 36.0009 108.709 36.438 109.09 36.4803C109.448 36.6602 109.846 36.7475 110.246 36.7341C110.655 36.6857 111.048 36.5451 111.395 36.3228C111.742 36.1005 112.034 35.8024 112.249 35.4509C112.423 35.0768 112.496 34.6635 112.46 34.2523C112.473 34.1887 112.461 34.1226 112.425 34.0683C112.389 34.0141 112.333 33.9763 112.27 33.9632C112.206 33.9501 112.14 33.9628 112.086 33.9985C112.032 34.0342 111.994 34.09 111.981 34.1536C111.596 34.5892 111.16 34.9774 110.683 35.3099ZM189.396 36.2688C190.468 36.6072 192.216 36.8328 192.964 35.9868C193.711 35.1407 193.302 32.9409 193.218 32.0102C193.042 30.1826 192.644 28.3833 192.033 26.6518C192.02 26.5882 191.982 26.5324 191.928 26.4967C191.874 26.461 191.808 26.4483 191.744 26.4614C191.68 26.4745 191.625 26.5123 191.589 26.5665C191.553 26.6207 191.541 26.6869 191.554 26.7505C191.554 27.1876 191.751 29.3451 191.793 29.895C192.063 31.6913 192.158 33.5095 192.075 35.324C191.759 35.5379 191.397 35.6733 191.018 35.7188C189.608 35.9586 189.283 35.6201 189.213 35.9868C189.205 36.0174 189.203 36.0494 189.208 36.0808C189.213 36.1122 189.224 36.1421 189.241 36.1688C189.259 36.1954 189.281 36.218 189.308 36.2353C189.335 36.2525 189.365 36.2639 189.396 36.2688ZM187.013 26.9761C187.013 26.5249 185.716 26.2992 184.87 26.4826C184.024 26.6659 182.867 27.5542 183.192 27.8927C183.516 28.2311 186.957 27.385 187.013 26.9761ZM186.082 30.3463V31.559C186.082 31.7198 186.146 31.874 186.26 31.9877C186.374 32.1014 186.528 32.1653 186.689 32.1653C186.85 32.1653 187.004 32.1014 187.117 31.9877C187.231 31.874 187.295 31.7198 187.295 31.559V30.3886C187.299 30.2264 187.239 30.0691 187.128 29.9505C187.018 29.8319 186.865 29.7614 186.703 29.754C186.543 29.7539 186.389 29.8154 186.274 29.9257C186.158 30.036 186.09 30.1867 186.082 30.3463ZM198.111 27.5542C198.223 27.385 197.772 26.4826 196.701 26.1441C195.629 25.8057 194.811 26.3415 194.811 26.5954C194.811 26.8492 197.899 27.8645 198.111 27.5542ZM185.476 39.2864C185.152 39.3851 185.152 41.4157 187.084 41.9939C188.071 42.2759 189.41 42.1208 189.438 41.7682C189.467 41.4157 187.521 40.9927 186.886 40.5555C186.252 40.1184 185.744 39.2018 185.476 39.2864ZM196.179 29.5143C196.099 29.5124 196.02 29.5263 195.946 29.555C195.871 29.5838 195.804 29.6269 195.746 29.6819C195.688 29.7369 195.642 29.8027 195.61 29.8756C195.578 29.9484 195.56 30.0269 195.558 30.1066V31.3052C195.581 31.4519 195.655 31.5857 195.767 31.6824C195.88 31.7792 196.023 31.8323 196.172 31.8323C196.32 31.8323 196.464 31.7792 196.576 31.6824C196.689 31.5857 196.763 31.4519 196.785 31.3052V30.1348C196.787 30.054 196.773 29.9736 196.743 29.8984C196.714 29.8232 196.669 29.7547 196.613 29.6969C196.556 29.6391 196.489 29.5931 196.414 29.5618C196.34 29.5304 196.26 29.5143 196.179 29.5143Z" fill="black"/>
</svg>
